<?xml version="1.0" encoding="UTF-8"?>
<!-- Generator: visioncortex VTracer 0.6.12 -->
<svg version="1.1" xmlns="http://www.w3.org/2000/svg" width="540" height="540">
<path d="M0 0 C178.2 0 356.4 0 540 0 C540 178.2 540 356.4 540 540 C361.8 540 183.6 540 0 540 C0 361.8 0 183.6 0 0 Z M226.68 80.535 C224.411 83.864 223.875 86.355 223.886 90.288 C223.887 91.149 223.887 92.009 223.887 92.896 C223.892 93.821 223.897 94.746 223.902 95.699 C223.904 96.649 223.905 97.6 223.907 98.579 C223.912 101.615 223.925 104.651 223.938 107.688 C223.943 109.745 223.947 111.803 223.951 113.861 C223.962 118.908 223.979 123.954 224 129 C223.054 128.987 222.108 128.974 221.133 128.96 C220.508 128.955 220.508 128.955 217.348 128.93 C216.113 128.917 214.878 128.904 213.606 128.89 C203.557 129.196 194.88 133.637 186 138 C185.968 137.657 185.968 137.657 185.804 135.924 C185.495 132.78 185.154 129.64 184.812 126.5 C184.762 125.961 184.762 125.961 184.506 123.234 C183.678 115.9 182.27 109.502 176.333 104.633 C166.94 99.019 153.062 102.197 142.581 103.062 C140.241 103.251 137.9 103.416 135.559 103.582 C118.824 104.882 118.824 104.882 112.562 111.625 C109.767 115.875 109.85 119.215 109.875 124.188 C109.871 124.931 109.867 125.674 109.863 126.439 C109.871 131.061 110.239 135.441 111 140 C111.584 140.004 112.168 140.008 112.769 140.012 C135.558 140.294 135.558 140.294 143.812 147.605 C151.139 155.302 153.3 167.479 154.085 177.791 C153.884 183.003 150.662 186.6 147 190 C145.93 185.553 145.002 181.126 144.305 176.605 C144.182 175.819 144.059 175.032 143.933 174.222 C143.69 172.64 143.455 171.057 143.229 169.473 C142.249 163.13 140.658 157.884 135.5 153.688 C134.912 153.196 134.324 152.705 133.719 152.199 C124.973 146.097 105.513 150.397 95.364 151.117 C92.543 151.314 89.722 151.492 86.9 151.67 C85.081 151.796 83.261 151.923 81.441 152.051 C80.611 152.101 79.781 152.151 78.925 152.203 C72.368 152.698 65.678 153.695 61.125 158.875 C54.738 168.268 57.639 178.43 59.551 188.953 C59.69 189.731 59.83 190.509 59.973 191.311 C60.313 193.208 60.656 195.104 61 197 C62.018 196.984 63.037 196.969 64.086 196.952 C67.895 196.898 71.705 196.864 75.514 196.835 C77.157 196.82 78.8 196.8 80.443 196.774 C82.816 196.737 85.189 196.72 87.562 196.707 C88.287 196.692 89.011 196.676 89.757 196.66 C97.302 196.658 103.819 198.968 109.398 204.152 C115.37 211.041 117.043 219.162 118 228 C118.186 229.176 118.371 230.351 118.562 231.562 C117.925 235.458 116.616 237.433 114.465 240.715 C113.82 241.705 113.176 242.695 112.511 243.715 C112.013 244.469 111.514 245.223 111 246 C110.9 245.183 110.8 244.366 110.696 243.525 C110.231 239.806 109.741 236.091 109.25 232.375 C109.093 231.09 108.935 229.805 108.773 228.48 C108.606 227.237 108.438 225.993 108.266 224.711 C108.119 223.569 107.972 222.428 107.821 221.251 C106.18 214.755 102.228 210.812 97 207 C88.831 204.252 78.616 206.096 70.156 206.586 C69.066 206.648 67.976 206.71 66.852 206.773 C64.563 206.904 62.274 207.037 59.985 207.172 C56.51 207.374 53.034 207.566 49.559 207.758 C47.32 207.887 45.082 208.018 42.844 208.148 C41.819 208.204 40.795 208.259 39.74 208.316 C19.887 209.524 19.887 209.524 14 216 C8.256 223.85 11.029 236.036 12.13 245.149 C12.25 246.192 12.371 247.234 12.495 248.308 C12.89 251.711 13.296 255.114 13.703 258.516 C13.985 260.901 14.267 263.286 14.549 265.671 C15.139 270.651 15.735 275.63 16.334 280.608 C17.1 286.977 17.846 293.348 18.587 299.72 C19.161 304.639 19.75 309.556 20.342 314.473 C20.623 316.821 20.899 319.17 21.17 321.52 C21.55 324.804 21.949 328.086 22.353 331.368 C22.46 332.33 22.567 333.293 22.677 334.284 C23.567 341.269 25.278 347.184 30.258 352.336 C33.684 354.415 37.038 355.535 40.875 356.625 C41.216 356.727 41.216 356.727 42.941 357.242 C44.298 357.645 45.657 358.042 47.019 358.431 C48.938 358.982 50.848 359.565 52.758 360.148 C56 361 56 361 60 361 C60 368.59 60 376.18 60 384 C50.063 383.813 50.063 383.813 46.989 383.73 C39.569 383.663 32.7 384.713 26.625 389.25 C21.893 394.207 20.697 399.254 20.309 405.887 C19.962 408.262 19.079 409.871 18 412 C17.244 418.694 17.244 418.694 19.051 421.816 C21.474 424.782 23.35 426.739 27.172 427.344 C33.837 427.748 33.837 427.748 36.992 425.719 C39.9 422.658 41.356 420.068 41.5 415.812 C41.061 412.461 40.489 410.878 39 408 C39.33 406.35 39.66 404.7 40 403 C46.6 402.67 53.2 402.34 60 402 C59 409 59 409 57.938 411.062 C56.562 413.905 56.625 415.875 57 419 C59.04 422.658 60.504 424.669 64 427 C67.391 427.546 70.61 427.552 74 427 C77.063 424.562 77.063 424.562 79 422 C79.33 421.67 79.66 421.34 80 421 C80.098 419.336 80.13 417.667 80.125 416 C80.128 415.092 80.13 414.185 80.133 413.25 C80 411 80 411 79 410 C78.67 407.36 78.34 404.72 78 402 C84.6 402.33 91.2 402.66 98 403 C98 409.533 98 409.533 96.812 412.938 C95.906 416.319 96.051 417.184 97.062 420.812 C99.2 424.329 100.161 425.581 104 427 C108.578 427.666 111.877 427.645 115.938 425.312 C118.175 422.804 119.239 421.273 120 418 C119.721 414.706 119.484 411.969 118 409 C117.711 407.086 117.443 405.169 117.188 403.25 C116.095 396.573 114.035 393.035 109.25 388.25 C102.534 383.601 95.384 383.726 87.5 383.875 C86.582 383.884 85.664 383.893 84.719 383.902 C82.479 383.926 80.239 383.962 78 384 C78.33 379.71 78.66 375.42 79 371 C80.425 371.598 81.849 372.195 83.317 372.811 C88.764 374.986 94.254 376.567 99.93 378.023 C100.951 378.29 101.971 378.557 103.023 378.832 C106.305 379.688 109.59 380.532 112.875 381.375 C113.434 381.519 113.434 381.519 116.261 382.25 C135.013 387.094 153.776 391.614 172.84 395.066 C173.326 395.154 173.326 395.154 175.785 395.599 C176.516 395.732 177.247 395.864 178 396 C178.006 396.688 178.012 397.376 178.018 398.086 C178.082 405.256 178.166 412.426 178.262 419.596 C178.297 422.271 178.324 424.946 178.346 427.622 C178.38 431.469 178.432 435.317 178.488 439.164 C178.491 439.761 178.491 439.761 178.508 442.782 C178.638 450.185 179.258 454.969 184.375 460.625 C214.646 483.292 281.915 474.542 317.436 469.514 C344.248 465.466 344.248 465.466 350.809 458.793 C354.944 452.569 354.258 445.544 354.195 438.383 C354.192 437.171 354.19 435.958 354.187 434.709 C354.176 430.848 354.15 426.986 354.125 423.125 C354.115 420.503 354.106 417.88 354.098 415.258 C354.076 408.838 354.042 402.419 354 396 C354.787 395.941 355.574 395.883 356.384 395.822 C364.618 395.179 372.542 393.934 380.625 392.25 C381.322 392.106 382.02 391.963 382.738 391.815 C397.456 388.761 412.012 385.071 426.562 381.312 C427.112 381.172 427.112 381.172 429.891 380.459 C433.056 379.645 436.218 378.819 439.379 377.988 C439.849 377.868 439.849 377.868 442.226 377.256 C448.838 375.495 454.886 373.057 461 370 C461.33 374.62 461.66 379.24 462 384 C461.294 383.983 461.294 383.983 457.723 383.895 C455.836 383.866 453.949 383.839 452.062 383.812 C451.599 383.8 451.599 383.8 449.256 383.736 C442.088 383.661 435.427 384.265 429.66 388.867 C424.885 394.868 422.875 399.147 422.344 406.816 C422 409 422 409 420.965 411.031 C419.35 414.327 419.932 417.615 421 421 C423.5 423.937 423.5 423.937 426 426 C426.33 426.33 426.66 426.66 427 427 C431.702 427.531 435.727 427.637 440 425.5 C442.646 422.193 443.713 419.224 444 415 C443.125 411.875 443.125 411.875 442 409 C442 407.02 442 405.04 442 403 C448.6 402.67 455.2 402.34 462 402 C461.34 404.97 460.68 407.94 460 411 C459.509 415.358 459.52 418.871 461.25 422.938 C463.564 425.664 465.641 426.791 469.184 427.336 C473.183 427.405 475.427 427.341 478.938 425.25 C481.469 422.488 482.992 420.5 483.012 416.676 C482.905 415.896 482.798 415.116 482.688 414.312 C482.638 413.919 482.638 413.919 482.387 411.926 C482 410 482 410 481 409 C480.67 406.69 480.34 404.38 480 402 C486.93 402 493.86 402 501 402 C501 408 501 408 500 409.875 C498.434 413.203 498.311 416.446 499 420 C500.748 423.021 502.832 425.416 506 427 C511.207 427.645 514.817 427.917 519.062 424.625 C522.123 420.479 522.567 417.091 522 412 C521.683 411.375 521.366 410.75 521.039 410.105 C519.735 407.463 519.529 405.108 519.188 402.188 C518.183 395.846 516.494 391.661 511.328 387.727 C504.518 383.478 497.35 383.866 489.625 383.938 C486.449 383.958 483.272 383.979 480 384 C480.33 376.74 480.66 369.48 481 362 C482.663 361.541 484.326 361.082 486.039 360.609 C488.235 359.99 490.43 359.37 492.625 358.75 C493.719 358.45 494.814 358.149 495.941 357.84 C503.019 355.824 508.301 354.074 513.25 348.438 C517.025 341.022 517.347 331.957 518.329 323.762 C518.446 322.804 518.563 321.847 518.684 320.86 C519.066 317.731 519.444 314.602 519.82 311.473 C520.086 309.275 520.353 307.078 520.619 304.88 C521.174 300.289 521.727 295.697 522.278 291.105 C522.981 285.246 523.694 279.388 524.41 273.531 C524.962 268.997 525.508 264.463 526.052 259.928 C526.312 257.769 526.574 255.611 526.839 253.452 C530.559 223.061 530.559 223.061 525.777 215.719 C519.714 209.855 513.784 209.292 505.688 208.875 C505.133 208.84 505.133 208.84 502.324 208.661 C499.229 208.467 496.134 208.29 493.038 208.117 C490.155 207.951 487.273 207.767 484.39 207.583 C480.615 207.342 476.839 207.108 473.062 206.875 C472.342 206.83 471.621 206.786 470.878 206.74 C444.133 205.104 444.133 205.104 438 210 C432.024 216.415 431.628 224.666 430.688 233 C430.519 234.361 430.349 235.722 430.178 237.082 C429.768 240.386 429.376 243.692 429 247 C424.811 242.872 422.221 240.246 421.625 234.188 C422.043 223.792 423.228 211.594 431 204 C438.284 198.592 443.844 196.838 452.828 196.902 C453.577 196.904 454.326 196.905 455.098 196.907 C457.482 196.912 459.866 196.925 462.25 196.938 C463.87 196.943 465.49 196.947 467.109 196.951 C471.073 196.962 475.036 196.979 479 197 C479.48 194.458 479.959 191.917 480.438 189.375 C480.505 189.019 480.505 189.019 480.846 187.215 C484.48 167.892 484.48 167.892 480.875 161.688 C477.575 156.995 473.637 154.158 468 153 C466.61 152.839 465.216 152.711 463.821 152.611 C463.005 152.551 462.19 152.491 461.35 152.429 C460.474 152.369 459.598 152.308 458.695 152.246 C457.78 152.181 456.864 152.116 455.921 152.049 C453.979 151.912 452.038 151.776 450.096 151.643 C447.17 151.441 444.245 151.23 441.32 151.018 C411.51 148.906 411.51 148.906 404.648 152.539 C399.986 156.671 398.419 161.252 397.438 167.25 C397.322 167.928 397.207 168.606 397.089 169.305 C396.843 170.76 396.605 172.216 396.372 173.674 C395.979 176.134 395.565 178.59 395.148 181.047 C394.418 185.362 393.705 189.68 393 194 C389 189.395 386.077 185.369 385.875 179.129 C386.272 175.022 387.113 171.024 388 167 C388.204 165.875 388.407 164.749 388.617 163.59 C390.174 155.989 392.79 150.244 399.027 145.438 C403.908 142.238 407.929 140.945 413.766 140.684 C414.655 140.642 415.545 140.6 416.461 140.557 C417.381 140.517 418.302 140.478 419.25 140.438 C420.186 140.394 421.122 140.351 422.086 140.307 C424.39 140.201 426.695 140.099 429 140 C429.427 136.816 429.811 133.628 430.188 130.438 C430.308 129.542 430.429 128.647 430.553 127.725 C431.384 120.401 430.224 116.494 426.25 110.25 C421.389 105.389 415.451 104.514 408.828 104.051 C408.447 104.02 408.447 104.02 406.516 103.862 C404.909 103.733 403.303 103.61 401.695 103.492 C399.27 103.314 396.846 103.119 394.422 102.92 C369.098 100.899 369.098 100.899 362 106 C355.574 111.918 355.653 121.837 354.875 130.062 C354.832 130.495 354.832 130.495 354.613 132.686 C354.404 134.79 354.201 136.895 354 139 C350.667 137.724 347.571 136.265 344.438 134.562 C336.552 130.62 328.935 128.819 320.113 128.926 C318.963 128.936 317.812 128.947 316.626 128.958 C315.76 128.972 314.893 128.986 314 129 C314.01 128.349 314.01 128.349 314.063 125.056 C314.136 120.214 314.182 115.373 314.22 110.531 C314.24 108.438 314.267 106.344 314.302 104.251 C314.35 101.238 314.373 98.225 314.391 95.211 C314.401 94.745 314.401 94.745 314.453 92.388 C314.455 86.727 313.801 83.484 310 79 C306.282 75.442 302.218 73.607 297.438 71.875 C296.728 71.616 296.018 71.358 295.287 71.091 C275.516 64.125 242.294 63.475 226.68 80.535 Z " fill="#000000" transform="translate(0,0)"/>
<path d="M0 0 C0.91 -0.006 1.819 -0.011 2.756 -0.017 C3.742 -0.018 4.727 -0.02 5.743 -0.021 C6.267 -0.023 6.267 -0.023 8.918 -0.036 C12.381 -0.05 15.845 -0.057 19.308 -0.063 C21.721 -0.068 24.134 -0.074 26.547 -0.08 C31.606 -0.09 36.666 -0.096 41.726 -0.1 C48.194 -0.105 54.662 -0.129 61.13 -0.158 C66.115 -0.176 71.101 -0.182 76.086 -0.183 C78.47 -0.186 80.853 -0.194 83.237 -0.207 C86.58 -0.224 89.923 -0.222 93.266 -0.216 C94.242 -0.225 95.217 -0.234 96.222 -0.244 C104.573 -0.194 112.562 1.332 119.515 6.203 C120.272 6.71 121.029 7.216 121.808 7.738 C125.652 11.403 128.402 15.728 131.328 20.14 C131.612 20.569 131.612 20.569 133.051 22.736 C134.822 25.426 136.577 28.125 138.328 30.828 C139.653 32.867 140.979 34.906 142.305 36.945 C142.974 37.976 143.643 39.007 144.333 40.069 C147.45 44.868 150.576 49.66 153.703 54.453 C154.316 55.393 154.929 56.333 155.56 57.301 C160.311 64.585 165.068 71.863 169.828 79.14 C177.056 90.192 184.274 101.251 191.485 112.314 C193.973 116.13 196.461 119.945 198.95 123.76 C200.198 125.675 201.446 127.589 202.695 129.503 C205.868 134.37 209.043 139.236 212.219 144.101 C218.056 153.046 223.891 161.992 229.703 170.953 C230.162 171.659 230.62 172.364 231.093 173.091 C235.021 179.157 236.14 182.895 235.328 190.14 C232.842 195.024 229.961 198.176 224.783 200.073 C223.818 200.335 222.853 200.597 221.859 200.867 C220.75 201.172 219.64 201.477 218.497 201.791 C217.286 202.113 216.075 202.434 214.828 202.765 C213.54 203.112 212.252 203.459 210.964 203.806 C207.481 204.74 203.995 205.657 200.506 206.57 C198.327 207.141 196.149 207.716 193.971 208.293 C153.913 218.86 113.248 226.155 71.765 227.703 C70.739 227.746 69.712 227.789 68.654 227.834 C52.82 228.442 37.022 228.236 21.203 227.39 C20.393 227.348 19.584 227.305 18.749 227.26 C-110.551 220.217 -110.551 220.217 -134.672 194.14 C-137.23 189.745 -137.543 186.115 -136.672 181.14 C-132.291 172.075 -126.224 163.721 -120.672 155.328 C-119.83 154.05 -118.989 152.772 -118.148 151.493 C-116.456 148.922 -114.762 146.352 -113.069 143.782 C-109.669 138.621 -106.295 133.444 -102.922 128.265 C-101.709 126.403 -100.495 124.541 -99.281 122.68 C-98.688 121.768 -98.094 120.857 -97.483 119.919 C-94.38 115.158 -91.276 110.4 -88.172 105.64 C-86.922 103.724 -85.672 101.807 -84.422 99.89 C-76.922 88.39 -69.422 76.89 -61.922 65.39 C-61.303 64.441 -60.683 63.491 -60.045 62.513 C-58.801 60.605 -57.557 58.697 -56.312 56.79 C-52.435 50.846 -48.562 44.9 -44.69 38.953 C-42.792 36.041 -40.891 33.131 -38.988 30.222 C-37.045 27.25 -35.111 24.271 -33.199 21.277 C-26.478 10.878 -19.862 3.503 -7.299 0.59 C-4.807 0.164 -2.524 0.01 0 0 Z " fill="#000000" transform="translate(219.6720428466797,151.85955810546875)"/>
</svg>
