<?xml version="1.0" encoding="UTF-8"?>
<!-- Generator: visioncortex VTracer 0.6.12 -->
<svg version="1.1" xmlns="http://www.w3.org/2000/svg" width="540" height="540">
<path d="M0 0 C178.2 0 356.4 0 540 0 C540 178.2 540 356.4 540 540 C361.8 540 183.6 540 0 540 C0 361.8 0 183.6 0 0 Z M53.75 53.688 C52.897 54.504 52.043 55.321 51.164 56.162 C50.362 56.958 49.56 57.754 48.734 58.574 C47.994 59.302 47.254 60.03 46.491 60.78 C45 63 45 63 45.134 65.599 C46.351 68.974 48.507 71.318 50.875 73.938 C51.888 75.094 52.898 76.253 53.906 77.414 C54.423 78.007 54.94 78.601 55.473 79.212 C57.863 82.01 60.12 84.905 62.375 87.812 C66.513 93.124 70.701 98.392 74.938 103.625 C75.481 104.3 76.025 104.975 76.585 105.671 C77.103 106.308 77.62 106.945 78.152 107.602 C78.606 108.162 79.06 108.722 79.527 109.299 C82.853 113.14 85.955 115.741 90.465 118.129 C91.512 118.689 92.56 119.249 93.639 119.826 C94.727 120.399 95.816 120.972 96.938 121.562 C99.093 122.709 101.248 123.856 103.402 125.004 C104.356 125.507 105.31 126.011 106.293 126.53 C110.958 129.064 114.781 131.532 118.55 135.309 C118.99 135.749 118.99 135.749 121.222 137.973 C122.186 138.945 123.15 139.916 124.115 140.887 C125.139 141.913 126.165 142.938 127.191 143.963 C129.967 146.739 132.738 149.521 135.508 152.305 C138.405 155.215 141.309 158.12 144.212 161.025 C149.705 166.525 155.193 172.029 160.68 177.536 C166.927 183.806 173.181 190.07 179.434 196.334 C192.296 209.216 205.15 222.106 218 235 C220.906 233.604 222.971 232.269 225.234 229.961 C225.808 229.381 226.382 228.801 226.973 228.203 C227.559 227.6 228.146 226.997 228.75 226.375 C229.051 226.069 229.051 226.069 230.574 224.523 C232.054 223.02 233.528 221.511 235 220 C233.512 216.529 231.547 214.317 228.865 211.678 C227.999 210.821 227.133 209.964 226.24 209.08 C225.278 208.138 224.315 207.195 223.353 206.253 C222.341 205.254 221.329 204.255 220.317 203.255 C218.138 201.103 215.956 198.953 213.773 196.806 C210.309 193.398 206.857 189.98 203.407 186.559 C202.223 185.385 201.039 184.212 199.855 183.038 C199.262 182.451 198.669 181.863 198.058 181.257 C190.028 173.298 181.988 165.349 173.927 157.421 C168.487 152.07 163.061 146.704 157.651 141.322 C154.793 138.48 151.928 135.646 149.045 132.83 C126.698 110.986 126.698 110.986 121 96 C115.97 85.191 110.477 79.218 100.941 72.421 C97.519 69.916 94.272 67.197 91 64.5 C85.765 60.225 80.5 55.991 75.188 51.812 C74.607 51.355 74.026 50.897 73.428 50.426 C63.8 42.88 61.77 45.686 53.75 53.688 Z M360 70 C349.478 82.476 340.89 99.293 340.867 115.949 C340.867 116.415 340.867 116.415 340.863 118.771 C340.867 119.734 340.871 120.696 340.875 121.688 C340.871 122.63 340.867 123.573 340.863 124.545 C340.865 125.483 340.866 126.421 340.867 127.387 C340.868 128.224 340.869 129.062 340.871 129.925 C341 133 341 133 341.613 135.061 C342.315 137.967 342.458 140.031 342 143 C339.019 147.648 335.097 151.315 331.151 155.131 C329.958 156.325 328.767 157.522 327.578 158.72 C324.305 162.006 320.999 165.256 317.687 168.502 C314.12 172.009 310.585 175.548 307.046 179.083 C300.909 185.206 294.752 191.308 288.582 197.397 C279.652 206.212 270.755 215.059 261.867 223.915 C247.433 238.296 232.976 252.654 218.504 266.997 C217.637 267.855 216.771 268.714 215.879 269.598 C215.445 270.028 215.445 270.028 213.25 272.203 C211.495 273.942 209.74 275.681 207.985 277.42 C207.116 278.282 206.246 279.144 205.35 280.032 C195.698 289.598 186.052 299.169 176.409 308.743 C175.546 309.599 174.683 310.456 173.793 311.339 C159.394 325.635 145.006 339.943 130.625 354.258 C121.756 363.084 112.876 371.898 103.979 380.696 C97.88 386.729 91.792 392.771 85.711 398.822 C82.204 402.311 78.693 405.795 75.168 409.265 C71.936 412.446 68.719 415.641 65.513 418.847 C64.354 420.001 63.191 421.149 62.022 422.291 C52.603 431.502 45.058 441.162 44.708 454.838 C44.611 465.597 46.182 474.556 53.172 483.152 C61.333 491.4 71.543 496.083 83.125 496.25 C104.062 496.016 116.936 480.255 130.707 466.319 C131.857 465.16 133.007 464 134.158 462.841 C136.641 460.338 139.124 457.832 141.605 455.326 C145.643 451.247 149.685 447.171 153.728 443.096 C155.146 441.666 156.564 440.237 157.982 438.807 C158.697 438.087 159.411 437.367 160.147 436.625 C162.363 434.39 164.579 432.156 166.795 429.921 C177.58 419.044 188.377 408.179 199.18 397.32 C199.963 396.534 200.745 395.747 201.551 394.937 C208.811 387.64 216.072 380.344 223.333 373.048 C228.303 368.054 233.273 363.059 238.242 358.064 C239.067 357.235 239.893 356.405 240.743 355.551 C254.134 342.089 267.502 328.605 280.862 315.112 C294.59 301.249 308.344 287.412 322.123 273.6 C330.617 265.084 339.089 256.548 347.534 247.984 C353.319 242.122 359.13 236.286 364.961 230.47 C368.325 227.113 371.676 223.746 374.997 220.347 C378.039 217.236 381.111 214.158 384.211 211.104 C385.326 209.995 386.429 208.873 387.518 207.739 C395.665 199.278 395.665 199.278 401.507 198.583 C404.771 198.819 407.806 199.307 411 200 C433.07 201.189 453.294 195.289 470.188 180.688 C485.226 166.528 494.739 147.609 495.969 126.793 C496.094 115.576 494.213 105.67 491 95 C487.544 96.474 485.43 98.39 482.865 101.114 C482.462 101.538 482.462 101.538 480.425 103.681 C479.562 104.596 478.698 105.511 477.809 106.453 C475.959 108.371 474.109 110.288 472.256 112.203 C469.337 115.224 466.428 118.253 463.554 121.316 C461.678 123.316 459.785 125.296 457.87 127.259 C456.07 129.105 454.294 130.977 452.547 132.874 C446.564 138.911 446.564 138.911 442.153 139.162 C439.308 138.671 436.726 137.944 434 137 C432.831 136.713 431.661 136.426 430.456 136.13 C429.467 135.848 428.477 135.565 427.457 135.273 C426.365 134.964 425.272 134.655 424.146 134.336 C423.596 134.177 423.596 134.177 420.812 133.375 C420.241 133.213 420.241 133.213 417.35 132.391 C414.565 131.598 411.782 130.801 409 130 C407.83 125.519 406.673 121.035 405.527 116.548 C405.136 115.022 404.741 113.497 404.343 111.974 C403.77 109.781 403.21 107.587 402.652 105.391 C402.562 105.051 402.562 105.051 402.106 103.332 C401.229 99.827 400.696 97.391 402 94 C403.753 91.9 403.753 91.9 406.061 89.63 C406.922 88.776 407.782 87.922 408.669 87.042 C409.605 86.128 410.54 85.215 411.504 84.273 C412.467 83.321 413.43 82.367 414.392 81.413 C416.922 78.905 419.461 76.406 422.002 73.909 C426.074 69.907 430.139 65.897 434.195 61.878 C435.616 60.474 437.043 59.077 438.47 57.68 C438.898 57.256 438.898 57.256 441.069 55.111 C441.829 54.363 442.59 53.616 443.374 52.846 C445 51 445 51 445 49 C443.314 48.515 441.626 48.038 439.938 47.562 C438.998 47.296 438.058 47.029 437.09 46.754 C408.946 39.887 379.909 49.283 360 70 Z M336.998 287.573 C336.475 288.1 335.951 288.626 335.411 289.169 C334.853 289.718 334.295 290.268 333.72 290.834 C331.873 292.658 330.038 294.492 328.203 296.328 C326.927 297.597 325.651 298.865 324.375 300.133 C321.7 302.795 319.031 305.462 316.366 308.133 C312.943 311.561 309.503 314.971 306.058 318.376 C303.418 320.991 300.789 323.617 298.163 326.246 C296.899 327.508 295.631 328.767 294.359 330.021 C292.584 331.773 290.826 333.541 289.071 335.313 C288.539 335.832 288.008 336.351 287.46 336.885 C286.023 338.355 286.023 338.355 284 341 C284.065 345.4 287.629 348.045 290.553 350.934 C290.846 351.229 290.846 351.229 292.327 352.722 C294.295 354.702 296.274 356.672 298.253 358.641 C299.664 360.057 301.075 361.473 302.485 362.889 C306.321 366.739 310.167 370.579 314.015 374.418 C318.037 378.432 322.051 382.454 326.067 386.474 C332.814 393.227 339.567 399.973 346.324 406.715 C354.139 414.513 361.942 422.322 369.74 430.137 C376.431 436.841 383.128 443.54 389.829 450.234 C393.834 454.234 397.836 458.235 401.834 462.243 C405.593 466.01 409.359 469.771 413.131 473.525 C414.515 474.905 415.897 476.288 417.275 477.673 C419.156 479.562 421.046 481.442 422.939 483.32 C423.484 483.871 424.029 484.423 424.59 484.992 C427.544 487.9 430.037 489.756 434 491 C435.481 491.683 436.961 492.37 438.438 493.062 C448.5 497.515 458.991 496.856 469.18 493.223 C479.762 488.957 486.921 482.236 492 472 C494.567 465.843 495.522 460.275 495.438 453.625 C495.431 452.797 495.425 451.969 495.419 451.116 C495.099 438.521 489.904 429.582 481.11 420.85 C480.525 420.261 479.94 419.671 479.337 419.065 C477.385 417.102 475.426 415.147 473.467 413.192 C472.062 411.783 470.657 410.373 469.253 408.963 C465.446 405.142 461.632 401.328 457.817 397.516 C454.634 394.334 451.454 391.149 448.274 387.964 C440.776 380.455 433.273 372.951 425.767 365.451 C418.015 357.705 410.272 349.95 402.533 342.19 C395.891 335.53 389.244 328.877 382.591 322.228 C378.617 318.255 374.645 314.28 370.678 310.3 C366.952 306.562 363.22 302.831 359.482 299.106 C358.108 297.734 356.737 296.361 355.368 294.984 C353.507 293.112 351.636 291.249 349.763 289.388 C349.218 288.836 348.673 288.284 348.111 287.715 C343.52 283.19 341.64 283.04 336.998 287.573 Z " fill="#000000" transform="translate(0,0)"/>
<path d="M0 0 C3.308 3.216 4.113 4.959 4.625 9.562 C4.175 13.911 3.048 15.86 0.25 19.188 C-2.677 21.561 -4.433 22.147 -8.188 22.625 C-12.524 22.092 -14.485 21.082 -17.75 18.188 C-20.123 14.331 -21.124 11.495 -20.312 7.062 C-18.917 2.599 -16.606 0.732 -12.75 -1.812 C-8.245 -3.783 -3.985 -2.626 0 0 Z " fill="#000000" transform="translate(91.75,446.8125)"/>
</svg>
