<?xml version="1.0" encoding="UTF-8"?>
<!-- Generator: visioncortex VTracer 0.6.12 -->
<svg version="1.1" xmlns="http://www.w3.org/2000/svg" width="540" height="540">
<path d="M0 0 C178.2 0 356.4 0 540 0 C540 178.2 540 356.4 540 540 C361.8 540 183.6 540 0 540 C0 361.8 0 183.6 0 0 Z M85.972 102.817 C56.095 135.897 41.219 180.712 43.207 225.004 C45.314 259.104 56.598 292.112 78 319 C78.433 319.546 78.866 320.091 79.312 320.653 C107.572 355.891 147.794 379.62 193 385 C193.422 385.055 193.422 385.055 195.559 385.332 C236.081 389.848 276.245 378.257 310 356 C310.696 355.408 311.392 354.817 312.109 354.207 C314 353 314 353 315.809 353.164 C320.95 355.125 324.803 359.832 328.688 363.625 C329.174 364.099 329.661 364.573 330.163 365.062 C340.348 375.147 340.348 375.147 340.562 383.125 C340.377 385.417 340.19 387.709 340 390 C342.434 401.17 349.373 409.832 357.315 417.719 C358.022 418.433 358.729 419.146 359.457 419.881 C361.771 422.214 364.096 424.535 366.422 426.855 C368.049 428.487 369.675 430.119 371.302 431.751 C374.703 435.161 378.109 438.565 381.52 441.966 C385.873 446.308 390.211 450.666 394.544 455.028 C397.897 458.399 401.259 461.761 404.623 465.12 C406.226 466.722 407.825 468.328 409.422 469.936 C411.661 472.19 413.912 474.431 416.167 476.669 C416.814 477.325 417.46 477.981 418.126 478.657 C428.49 488.859 439.5 493.108 454 493 C461.636 491.996 467.855 489.605 474 485 C475.011 484.299 476.021 483.598 477.062 482.875 C483.583 477.23 488.277 468.574 489.217 460.028 C489.923 447.92 488.55 437.604 480.699 427.895 C478.313 425.234 475.812 422.713 473.223 420.25 C471.44 418.446 469.819 416.628 468.18 414.699 C459.002 404.183 448.862 394.475 439.033 384.573 C436.306 381.824 433.588 379.064 430.879 376.296 C427.58 372.925 424.263 369.573 420.934 366.231 C419.681 364.968 418.434 363.698 417.193 362.422 C408.465 353.46 398.971 344.748 386 343 C385.526 343.059 385.526 343.059 383.125 343.359 C378.853 343.893 375 344.331 371.259 341.841 C367.662 338.727 364.549 335.175 361.432 331.59 C359.047 328.942 356.331 326.725 353.586 324.465 C351.786 322.803 350.415 320.994 349 319 C349.461 318.415 349.923 317.83 350.398 317.227 C377.243 281.893 387.555 236.339 381.812 192.625 C376.265 154.83 357.574 115.629 327.98 90.672 C326.69 89.583 325.421 88.469 324.176 87.328 C263.494 31.862 166.984 33.82 85.972 102.817 Z " fill="#000000" transform="translate(0,0)"/>
<path d="M0 0 C25.555 22.542 41.49 53.049 45.427 86.961 C46.335 102.265 46.525 118.089 42.427 132.961 C42.207 133.764 41.986 134.567 41.759 135.394 C34.157 162.071 19.327 187.477 -2.573 204.961 C-3.071 205.361 -3.569 205.76 -4.083 206.172 C-23.516 221.569 -45.146 230.981 -69.573 234.961 C-70.625 235.146 -71.677 235.33 -72.76 235.52 C-88.312 237.32 -104.342 236.535 -119.573 232.961 C-119.915 232.883 -119.915 232.883 -121.646 232.49 C-157.81 223.949 -186.369 200.112 -205.727 169.114 C-216.986 150.527 -222.573 128.554 -223.573 106.961 C-223.614 106.205 -223.655 105.448 -223.698 104.668 C-224.3 82.812 -219.034 61.523 -209.573 41.961 C-209.225 41.188 -208.877 40.414 -208.518 39.617 C-198.727 18.476 -180.924 0.508 -161.573 -12.039 C-160.634 -12.661 -159.696 -13.284 -158.729 -13.926 C-109.203 -44.879 -43.477 -37.589 0 0 Z M-141.573 19.961 C-143.149 23.047 -143.149 23.047 -144.327 26.551 C-144.55 27.196 -144.772 27.841 -145.002 28.506 C-145.731 30.631 -146.433 32.764 -147.135 34.899 C-147.642 36.391 -148.15 37.882 -148.66 39.373 C-149.742 42.547 -150.813 45.724 -151.876 48.905 C-153.905 54.969 -155.986 61.014 -158.067 67.06 C-160.92 75.355 -163.744 83.658 -166.573 91.961 C-181.093 92.291 -195.613 92.621 -210.573 92.961 C-210.573 100.551 -210.573 108.141 -210.573 115.961 C-202.85 116.085 -195.127 116.176 -187.404 116.236 C-184.777 116.261 -182.15 116.295 -179.524 116.338 C-175.746 116.399 -171.969 116.427 -168.19 116.449 C-167.604 116.462 -167.604 116.462 -164.638 116.528 C-155.522 116.531 -155.522 116.531 -152.012 114.022 C-148.863 110.07 -147.435 106.285 -145.924 101.504 C-145.773 101.053 -145.773 101.053 -145.008 98.768 C-144.053 95.901 -143.125 93.025 -142.198 90.149 C-141.552 88.196 -140.905 86.243 -140.256 84.291 C-138.675 79.521 -137.117 74.744 -135.573 69.961 C-132.612 80.539 -130.77 91.322 -128.829 102.122 C-128.219 105.511 -127.603 108.899 -126.985 112.287 C-125.232 121.91 -123.487 131.535 -121.752 141.161 C-120.686 147.071 -119.612 152.978 -118.532 158.884 C-118.124 161.128 -117.718 163.373 -117.317 165.618 C-116.756 168.752 -116.184 171.884 -115.61 175.015 C-115.448 175.938 -115.286 176.861 -115.118 177.811 C-112.995 189.215 -112.995 189.215 -107.885 192.899 C-103.914 194.172 -100.459 194.706 -96.573 192.961 C-91.289 187.738 -89.217 181.665 -86.694 174.778 C-86.006 172.945 -85.318 171.113 -84.63 169.281 C-83.907 167.35 -83.191 165.417 -82.476 163.484 C-81.009 159.515 -79.525 155.552 -78.039 151.59 C-76.328 147.03 -74.621 142.468 -72.918 137.904 C-69.668 129.195 -66.37 120.506 -63.011 111.838 C-62.275 109.936 -61.543 108.033 -60.811 106.129 C-60.385 105.031 -59.96 103.933 -59.522 102.801 C-59.164 101.877 -58.807 100.952 -58.439 100 C-57.573 97.961 -57.573 97.961 -56.573 96.961 C-56.419 97.512 -56.265 98.062 -56.106 98.629 C-54.496 104.376 -52.872 110.118 -51.238 115.858 C-50.631 117.998 -50.028 120.14 -49.429 122.282 C-48.565 125.368 -47.687 128.45 -46.807 131.531 C-46.543 132.485 -46.28 133.438 -46.008 134.42 C-44.206 140.664 -42.37 145.618 -37.26 149.899 C-33.432 151.412 -31.523 151.166 -27.573 149.961 C-21.834 145.724 -17.006 140.381 -12.198 135.149 C-11.535 134.454 -10.872 133.759 -10.189 133.043 C-7.326 130.034 -4.716 127.171 -2.366 123.735 C0.633 119.63 3.687 117.303 8.724 116.314 C9.309 116.285 9.309 116.285 12.267 116.137 C13.536 116.07 14.805 116.004 16.112 115.936 C21.893 115.79 27.646 115.828 33.427 115.961 C33.427 108.371 33.427 100.781 33.427 92.961 C28.444 92.8 23.47 92.661 18.486 92.577 C16.794 92.542 15.103 92.494 13.412 92.433 C-2.457 91.876 -2.457 91.876 -7.475 96.242 C-8.546 97.449 -9.585 98.686 -10.573 99.961 C-11.327 100.671 -12.081 101.382 -12.858 102.114 C-16.774 106.047 -20.516 110.081 -24.127 114.297 C-25.227 115.563 -26.387 116.776 -27.573 117.961 C-30.162 111.42 -32.103 104.794 -33.971 98.016 C-34.622 95.699 -35.273 93.383 -35.924 91.067 C-36.941 87.443 -37.952 83.819 -38.952 80.191 C-39.923 76.67 -40.914 73.155 -41.909 69.641 C-42.202 68.559 -42.494 67.478 -42.796 66.364 C-44.495 60.424 -46.114 56.302 -50.573 51.961 C-53.721 50.387 -57.165 50.292 -60.573 50.961 C-64.794 53.786 -66.465 56.192 -68.202 60.926 C-68.315 61.229 -68.315 61.229 -68.891 62.761 C-69.653 64.802 -70.394 66.85 -71.135 68.899 C-71.676 70.356 -72.218 71.813 -72.761 73.269 C-73.991 76.57 -75.212 79.873 -76.43 83.178 C-78.876 89.8 -81.372 96.402 -83.87 103.004 C-84.325 104.207 -84.78 105.41 -85.248 106.649 C-86.168 109.081 -87.089 111.514 -88.009 113.946 C-90.228 119.816 -92.442 125.689 -94.655 131.563 C-95.051 132.614 -95.447 133.666 -95.856 134.749 C-96.761 137.153 -97.667 139.557 -98.573 141.961 C-100.652 136.424 -101.63 130.801 -102.664 125.002 C-102.863 123.909 -103.061 122.815 -103.266 121.689 C-103.696 119.321 -104.124 116.952 -104.551 114.583 C-105.227 110.833 -105.911 107.084 -106.596 103.336 C-108.545 92.68 -110.487 82.024 -112.409 71.363 C-113.585 64.837 -114.776 58.315 -115.975 51.793 C-116.429 49.31 -116.878 46.825 -117.322 44.339 C-117.943 40.864 -118.581 37.392 -119.223 33.92 C-119.401 32.895 -119.58 31.869 -119.765 30.812 C-120.81 25.273 -121.93 21.317 -125.573 16.961 C-131.819 12.797 -136.797 14.754 -141.573 19.961 Z " fill="#000000" transform="translate(302.57275390625,115.038818359375)"/>
</svg>
