<?xml version="1.0" encoding="UTF-8"?>
<!-- Generator: visioncortex VTracer 0.6.12 -->
<svg version="1.1" xmlns="http://www.w3.org/2000/svg" width="540" height="540">
<path d="M0 0 C178.2 0 356.4 0 540 0 C540 178.2 540 356.4 540 540 C361.8 540 183.6 540 0 540 C0 361.8 0 183.6 0 0 Z M485 82 C483.967 82.974 482.929 83.942 481.887 84.906 C476.013 90.448 476.013 90.448 474 93 C474.33 96.333 475.622 97.991 477.959 100.3 C478.58 100.92 479.2 101.54 479.84 102.18 C480.513 102.837 481.186 103.495 481.879 104.172 C482.566 104.854 483.252 105.537 483.96 106.24 C486.154 108.417 488.358 110.584 490.562 112.75 C492.052 114.225 493.541 115.7 495.029 117.176 C498.678 120.792 502.337 124.398 506 128 C509.394 126.394 511.633 124.612 514.293 121.938 C515.088 121.141 515.882 120.344 516.701 119.523 C517.522 118.691 518.342 117.858 519.188 117 C520.02 116.167 520.852 115.335 521.709 114.477 C528.819 107.315 528.819 107.315 529.5 102.375 C529.448 98.629 528.511 96.984 525.988 94.254 C525.353 93.562 524.718 92.871 524.063 92.158 C520.646 88.583 517.194 85.05 513.688 81.562 C512.973 80.844 512.258 80.125 511.521 79.385 C510.838 78.702 510.154 78.02 509.449 77.316 C508.834 76.702 508.219 76.088 507.585 75.455 C504.524 72.644 501.597 72.352 497.555 72.41 C492.166 73.654 488.732 78.163 485 82 Z M35 91 C26.848 100.824 21.886 110.523 21.869 123.452 C21.865 124.516 21.861 125.579 21.857 126.675 C21.858 127.832 21.859 128.99 21.86 130.182 C21.857 131.42 21.854 132.658 21.851 133.933 C21.843 137.363 21.841 140.792 21.84 144.222 C21.838 147.923 21.831 151.625 21.824 155.326 C21.81 163.417 21.804 171.509 21.8 179.6 C21.797 184.655 21.793 189.71 21.788 194.765 C21.776 208.771 21.766 222.776 21.762 236.781 C21.762 237.677 21.762 238.573 21.762 239.496 C21.762 240.394 21.761 241.292 21.761 242.217 C21.761 244.037 21.76 245.857 21.76 247.676 C21.76 248.579 21.759 249.481 21.759 250.411 C21.755 265.03 21.738 279.649 21.714 294.268 C21.691 309.288 21.678 324.309 21.677 339.329 C21.676 347.758 21.67 356.186 21.652 364.615 C21.637 371.794 21.632 378.972 21.64 386.151 C21.644 389.81 21.643 393.469 21.629 397.128 C21.614 401.104 21.622 405.08 21.633 409.056 C21.624 410.2 21.616 411.344 21.608 412.522 C21.681 424.477 24.186 434.135 31 444 C31.578 444.887 32.155 445.774 32.75 446.688 C41.439 455.618 53.549 461.615 66.047 462.124 C67.135 462.124 68.224 462.123 69.345 462.123 C69.976 462.124 69.976 462.124 73.171 462.129 C74.564 462.126 75.957 462.123 77.351 462.12 C78.837 462.121 80.323 462.122 81.809 462.123 C85.888 462.125 89.968 462.121 94.047 462.116 C98.448 462.112 102.849 462.113 107.25 462.114 C114.873 462.114 122.496 462.111 130.12 462.106 C141.142 462.098 152.164 462.095 163.186 462.094 C181.069 462.092 198.951 462.085 216.834 462.075 C234.205 462.066 251.577 462.059 268.948 462.055 C269.489 462.055 269.489 462.055 272.226 462.054 C280.685 462.052 289.145 462.05 297.604 462.048 C339.07 462.039 380.535 462.019 422 462 C422 387.75 422 313.5 422 237 C419.69 238.98 417.38 240.96 415 243 C411.769 245.573 411.769 245.573 410.158 246.853 C398.896 255.967 387.29 265.62 385.327 280.684 C384.61 288.594 384.893 296.52 385.262 304.441 C385.434 308.767 385.447 313.095 385.479 317.425 C385.562 325.578 385.782 333.721 386.055 341.87 C386.36 351.165 386.506 360.461 386.641 369.76 C386.921 388.845 387.395 407.922 388 427 C346.809 426.964 305.619 426.907 264.428 426.822 C259.568 426.812 254.707 426.802 249.847 426.792 C248.879 426.791 247.912 426.789 246.915 426.787 C231.237 426.756 215.559 426.739 199.881 426.727 C183.8 426.714 167.718 426.687 151.637 426.645 C141.71 426.62 131.784 426.607 121.857 426.609 C115.054 426.609 108.251 426.594 101.448 426.568 C97.521 426.553 93.593 426.545 89.666 426.554 C86.071 426.562 82.477 426.552 78.882 426.528 C76.963 426.519 75.044 426.531 73.125 426.542 C71.987 426.531 70.848 426.52 69.675 426.508 C68.693 426.506 67.711 426.505 66.698 426.503 C63.23 425.856 61.534 424.403 59 422 C57.488 418.976 57.827 416.338 58 413 C59.188 409.62 59.898 409.068 63 407 C82.949 403.01 103.659 405.363 124 405 C124 327.12 124 249.24 124 169 C141.881 169.383 159.761 169.766 178.184 170.16 C189.563 170.329 200.942 170.489 212.322 170.611 C218.308 170.676 224.294 170.743 230.281 170.813 C231.031 170.821 231.781 170.83 232.553 170.839 C244.589 170.982 256.619 171.241 268.651 171.546 C281.043 171.857 293.433 172.038 305.83 172.105 C312.777 172.146 319.713 172.243 326.656 172.489 C373.811 174.115 373.811 174.115 390.419 159.274 C397.761 152.215 404.28 144.422 410 136 C410 135.67 410 135.34 410 135 C315.62 135 221.24 135 124 135 C124 116.19 124 97.38 124 78 C116.261 77.937 108.522 77.877 100.783 77.845 C97.177 77.829 93.572 77.808 89.967 77.774 C86.485 77.741 83.004 77.723 79.522 77.715 C77.568 77.707 75.614 77.684 73.66 77.66 C60.005 77.658 44.716 80.449 35 91 Z M461.206 105.667 C460.391 106.48 459.575 107.293 458.734 108.13 C457.832 109.034 456.931 109.938 456.001 110.869 C455.047 111.822 454.093 112.774 453.139 113.727 C450.537 116.324 447.938 118.924 445.34 121.526 C442.62 124.249 439.897 126.969 437.174 129.69 C432.594 134.269 428.016 138.849 423.439 143.431 C418.161 148.714 412.88 153.994 407.596 159.272 C403.057 163.807 398.519 168.344 393.983 172.882 C391.276 175.591 388.568 178.299 385.859 181.005 C383.304 183.557 380.751 186.111 378.201 188.668 C376.829 190.042 375.454 191.414 374.079 192.785 C369.705 197.175 365.474 201.619 361.463 206.344 C359.322 208.768 356.92 210.82 354.453 212.906 C337.546 227.799 330.355 242.232 325 264 C324.661 263.658 324.661 263.658 322.944 261.927 C322.05 261.028 321.156 260.129 320.234 259.203 C319.35 258.313 318.465 257.422 317.554 256.505 C315.506 254.497 313.443 252.594 311.25 250.75 C307.29 247.37 303.659 243.698 300 240 C292.714 232.637 292.714 232.637 289 229.5 C284.449 225.655 280.342 221.367 276.155 217.135 C272.413 213.369 268.61 209.749 264.539 206.336 C263 205 263 205 260.75 202.5 C260.173 202.005 259.595 201.51 259 201 C255.467 201.369 253.804 202.849 251.391 205.352 C250.718 206.039 250.045 206.726 249.352 207.434 C248.658 208.157 247.965 208.88 247.25 209.625 C242.619 214.405 237.947 218.992 232.897 223.33 C229.958 225.917 227.235 228.701 224.5 231.5 C220.493 235.557 216.441 239.44 212.09 243.129 C209.281 245.644 206.649 248.318 204 251 C200.776 254.264 197.565 257.468 194.062 260.438 C190.34 263.6 186.931 267.03 183.5 270.5 C179.495 274.551 175.451 278.434 171.102 282.117 C167.688 285.175 164.499 288.46 161.299 291.739 C158.356 294.732 155.332 297.447 152 300 C153.503 303.668 155.637 305.689 158.625 308.25 C159.442 308.956 160.26 309.663 161.102 310.391 C161.728 310.922 162.355 311.453 163 312 C166.932 310.411 169.33 307.837 172.25 304.812 C175.381 301.607 178.515 298.461 181.938 295.562 C185.477 292.546 188.735 289.306 192 286 C195.83 282.123 199.721 278.438 203.875 274.906 C206.694 272.377 209.339 269.694 212 267 C215.83 263.123 219.721 259.438 223.875 255.906 C227.249 252.88 230.392 249.628 233.576 246.405 C236.896 243.059 240.318 239.92 243.91 236.867 C248.473 232.791 252.711 228.36 257 224 C262.188 227.153 266.164 230.964 270.375 235.312 C274.8 239.814 279.219 244.193 284.047 248.266 C287.148 251.019 290.021 254.001 292.932 256.952 C296.15 260.197 299.485 263.218 302.961 266.18 C306.33 269.187 309.454 272.435 312.605 275.668 C313.396 276.438 314.186 277.207 315 278 C315.349 278.411 315.349 278.411 317.113 280.488 C320.532 282.279 320.941 282.006 324.481 280.929 C328.052 279.868 331.616 278.829 335.225 277.907 C363.802 270.513 381.882 259.055 402.004 237.734 C405.431 234.134 408.939 230.614 412.437 227.083 C419.002 220.436 425.494 213.724 431.962 206.983 C439.348 199.291 446.815 191.678 454.288 184.07 C469.614 168.465 484.84 152.766 500 137 C493.707 129.582 493.707 129.582 490.764 126.635 C490.208 126.075 489.651 125.515 489.077 124.938 C488.498 124.362 487.92 123.785 487.324 123.191 C487.019 122.886 487.019 122.886 485.474 121.338 C484.197 120.061 482.919 118.784 481.639 117.509 C479.672 115.547 477.71 113.579 475.748 111.611 C474.503 110.367 473.257 109.123 472.012 107.879 C471.717 107.584 471.717 107.584 470.228 106.089 C465.493 101.382 465.493 101.382 461.206 105.667 Z M253.801 239.941 C252.98 240.806 252.159 241.671 251.312 242.562 C248.338 245.632 245.39 248.616 242.125 251.375 C238.567 254.414 235.286 257.674 232 261 C228.17 264.877 224.279 268.562 220.125 272.094 C217.306 274.623 214.661 277.306 212 280 C208.173 283.875 204.286 287.558 200.133 291.086 C196.742 294.129 193.568 297.39 190.387 300.65 C189.906 301.14 189.425 301.629 188.93 302.133 C188.509 302.565 188.089 302.997 187.656 303.442 C186 305 186 305 182.939 307.109 C180.232 309.375 180.022 309.89 179.278 313.6 C179.261 315.007 179.277 316.414 179.319 317.82 C179.318 318.591 179.317 319.362 179.316 320.157 C179.32 322.695 179.367 325.231 179.414 327.77 C179.425 329.534 179.434 331.298 179.44 333.062 C179.463 337.697 179.522 342.33 179.588 346.965 C179.66 352.53 179.688 358.095 179.723 363.66 C179.781 372.107 179.896 380.552 180 389 C200.79 389 221.58 389 243 389 C243 367.55 243 346.1 243 324 C252.9 324 262.8 324 273 324 C273 345.45 273 366.9 273 389 C293.46 389 313.92 389 335 389 C335.281 369.565 335.281 369.565 335.342 361.26 C335.384 355.6 335.433 349.94 335.528 344.281 C335.604 339.716 335.646 335.152 335.664 330.587 C335.677 328.848 335.702 327.109 335.74 325.371 C336.024 311.772 336.024 311.772 333.522 307.444 C331.77 305.661 330.092 304.354 328 303 C326.78 301.972 325.57 300.932 324.375 299.875 C323.712 299.305 323.05 298.735 322.367 298.148 C319.304 295.369 316.408 292.441 313.5 289.5 C309.491 285.445 305.441 281.56 301.09 277.871 C297.725 274.858 294.595 271.614 291.422 268.402 C288.697 265.657 285.95 263.007 283 260.5 C279.479 257.507 276.245 254.284 273 251 C262.446 240.358 262.446 240.358 259 238 C256 238 256 238 253.801 239.941 Z " fill="#000000" transform="translate(0,0)"/>
<path d="M0 0 C0 85.14 0 170.28 0 258 C-10.89 258.33 -21.78 258.66 -33 259 C-33.113 226.999 -33.203 194.998 -33.255 162.996 C-33.262 159.219 -33.268 155.441 -33.275 151.664 C-33.276 150.912 -33.277 150.159 -33.279 149.385 C-33.3 137.206 -33.34 125.027 -33.386 112.848 C-33.433 100.352 -33.46 87.857 -33.47 75.361 C-33.477 67.65 -33.499 59.939 -33.54 52.227 C-33.569 46.316 -33.572 40.404 -33.566 34.492 C-33.567 32.066 -33.577 29.64 -33.596 27.214 C-33.621 23.905 -33.615 20.597 -33.601 17.288 C-33.616 16.325 -33.63 15.362 -33.645 14.37 C-33.596 9.984 -33.427 6.937 -30.65 3.419 C-22.147 -4.344 -12.788 0 0 0 Z " fill="#000000" transform="translate(90,113)"/>
<path d="M0 0 C3.256 2.442 4.945 3.772 6.25 7.688 C6.816 14.701 6.816 14.701 4.789 18.234 C1.332 21.574 -2.157 22.658 -6.688 24.062 C-7.486 24.334 -8.285 24.606 -9.107 24.887 C-13.309 26.244 -16.409 27.178 -20.75 25.688 C-22.543 20.537 -20.717 16.469 -19 11.562 C-18.734 10.752 -18.469 9.941 -18.195 9.105 C-15.864 2.26 -15.864 2.26 -12.75 -0.312 C-8.216 -1.824 -4.373 -2.087 0 0 Z " fill="#000000" transform="translate(361.75,235.3125)"/>
</svg>
