<?xml version="1.0" encoding="UTF-8"?>
<!-- Generator: visioncortex VTracer 0.6.12 -->
<svg version="1.1" xmlns="http://www.w3.org/2000/svg" width="540" height="540">
<path d="M0 0 C178.2 0 356.4 0 540 0 C540 178.2 540 356.4 540 540 C361.8 540 183.6 540 0 540 C0 361.8 0 183.6 0 0 Z M218.625 52.5 C218.164 53.067 217.702 53.634 217.227 54.219 C213.274 59.958 212.949 65.373 212.977 72.219 C212.978 72.76 212.978 72.76 212.987 75.498 C212.991 76.324 212.996 77.149 213 78 C211.807 77.993 210.614 77.987 209.385 77.98 C198.115 77.919 186.846 77.874 175.576 77.845 C169.783 77.829 163.99 77.808 158.197 77.774 C152.602 77.741 147.006 77.723 141.41 77.715 C139.281 77.71 137.151 77.699 135.021 77.683 C132.027 77.661 129.034 77.658 126.04 77.659 C125.168 77.649 124.297 77.638 123.4 77.627 C116.17 77.663 109.308 78.915 103.125 82.812 C96.899 89.222 94.754 95.895 94.743 104.737 C94.739 105.38 94.736 106.023 94.732 106.686 C94.723 108.832 94.728 110.978 94.733 113.125 C94.729 114.683 94.724 116.241 94.719 117.799 C94.707 122.074 94.707 126.348 94.709 130.623 C94.71 135.236 94.699 139.849 94.689 144.462 C94.673 153.497 94.667 162.532 94.666 171.567 C94.665 178.911 94.661 186.255 94.654 193.6 C94.637 214.425 94.628 235.251 94.629 256.076 C94.629 257.199 94.629 258.321 94.629 259.478 C94.629 260.602 94.63 261.726 94.63 262.883 C94.63 281.099 94.611 299.314 94.583 317.53 C94.554 336.236 94.541 354.943 94.542 373.649 C94.543 384.15 94.537 394.651 94.516 405.153 C94.498 414.093 94.493 423.033 94.507 431.974 C94.513 436.534 94.514 441.094 94.496 445.654 C94.481 449.832 94.483 454.01 94.501 458.188 C94.504 459.696 94.5 461.204 94.489 462.712 C94.424 472.14 94.815 480.809 100.965 488.438 C101.616 488.953 102.267 489.469 102.938 490 C103.262 490.268 103.262 490.268 104.902 491.625 C109.041 494.338 112.614 495.25 117.538 495.263 C118.646 495.271 119.754 495.278 120.896 495.286 C122.108 495.284 123.32 495.283 124.569 495.281 C125.86 495.287 127.152 495.293 128.483 495.299 C132.066 495.315 135.65 495.319 139.234 495.32 C143.1 495.324 146.966 495.339 150.831 495.352 C159.284 495.38 167.737 495.392 176.189 495.4 C181.468 495.406 186.748 495.414 192.027 495.423 C206.647 495.448 221.267 495.468 235.888 495.475 C236.823 495.476 237.759 495.476 238.723 495.476 C239.66 495.477 240.598 495.477 241.564 495.478 C243.464 495.479 245.365 495.48 247.265 495.48 C247.736 495.481 247.736 495.481 250.121 495.482 C265.391 495.49 280.661 495.525 295.931 495.571 C311.614 495.619 327.296 495.644 342.979 495.646 C351.782 495.648 360.585 495.659 369.388 495.696 C376.885 495.726 384.382 495.737 391.878 495.72 C395.702 495.712 399.524 495.714 403.347 495.742 C407.497 495.772 411.646 495.756 415.797 495.735 C416.997 495.751 418.198 495.767 419.436 495.784 C427.359 495.691 432.765 493.987 439 489 C443.939 483.197 445.249 476.749 445.254 469.258 C445.258 468.614 445.261 467.97 445.264 467.306 C445.272 465.158 445.267 463.01 445.261 460.862 C445.264 459.302 445.268 457.743 445.272 456.183 C445.283 451.905 445.28 447.626 445.276 443.348 C445.274 438.731 445.283 434.114 445.29 429.497 C445.303 420.454 445.305 411.412 445.302 402.37 C445.301 395.021 445.302 387.672 445.307 380.323 C445.307 379.8 445.307 379.8 445.308 377.153 C445.31 375.029 445.311 372.904 445.312 370.78 C445.323 350.855 445.321 330.93 445.315 311.005 C445.309 292.775 445.321 274.546 445.34 256.316 C445.359 237.598 445.367 218.88 445.364 200.162 C445.362 189.654 445.364 179.145 445.378 168.636 C445.39 159.69 445.392 150.745 445.38 141.799 C445.374 137.235 445.373 132.671 445.385 128.107 C445.395 123.928 445.392 119.749 445.378 115.57 C445.376 114.06 445.378 112.549 445.386 111.038 C445.44 99.986 444.639 92.064 436.828 83.695 C430.202 77.551 421.992 77.852 413.506 77.886 C412.569 77.886 411.632 77.886 410.666 77.886 C407.582 77.887 404.498 77.894 401.414 77.902 C399.27 77.904 397.127 77.906 394.983 77.907 C389.351 77.91 383.718 77.92 378.086 77.931 C372.335 77.942 366.583 77.946 360.832 77.951 C349.555 77.962 338.277 77.979 327 78 C327.013 77.118 327.026 76.236 327.04 75.328 C327.05 74.165 327.06 73.002 327.07 71.805 C327.083 70.655 327.096 69.505 327.11 68.32 C326.874 61.192 324.52 56.02 319.988 50.605 C314.471 46.15 308.958 44.401 301.875 44.482 C301.491 44.479 301.491 44.479 299.546 44.461 C297.03 44.444 294.516 44.455 292 44.469 C290.237 44.466 288.474 44.462 286.711 44.457 C283.026 44.451 279.341 44.46 275.656 44.479 C270.949 44.501 266.242 44.488 261.535 44.464 C257.897 44.45 254.26 44.454 250.622 44.465 C248.887 44.467 247.152 44.464 245.417 44.455 C242.986 44.445 240.556 44.46 238.125 44.482 C237.418 44.474 236.712 44.466 235.983 44.458 C229.239 44.571 222.862 47.112 218.625 52.5 Z " fill="#000000" transform="translate(0,0)"/>
<path d="M0 0 C3.938 2.568 6.746 5.617 8.875 9.875 C9.396 15.103 9.518 19.515 7.25 24.312 C2.726 29.194 -1.271 31.524 -7.887 31.969 C-12.186 31.789 -15.543 30.416 -18.633 27.406 C-22.97 22.35 -23.479 19.136 -23.402 12.637 C-23.011 8.741 -21.77 6.729 -19.125 3.875 C-12.965 -0.776 -7.544 -2.716 0 0 Z " fill="#000000" transform="translate(277.125,69.125)"/>
<path d="M0 0 C20.13 0 40.26 0 61 0 C61 11.22 61 22.44 61 34 C113.14 34 165.28 34 219 34 C219 22.78 219 11.56 219 0 C239.13 0 259.26 0 280 0 C280 114.84 280 229.68 280 348 C187.6 348 95.2 348 0 348 C0 233.16 0 118.32 0 0 Z M33 78 C33 85.59 33 93.18 33 101 C103.62 101 174.24 101 247 101 C247 93.41 247 85.82 247 78 C176.38 78 105.76 78 33 78 Z M140 123 C140 130.59 140 138.18 140 146 C175.31 146 210.62 146 247 146 C247 138.41 247 130.82 247 123 C211.69 123 176.38 123 140 123 Z M186 179 C184.042 178.967 182.083 178.934 180.125 178.887 C175.53 179.132 172.003 181.151 168.562 184.062 C167 186 167 186 167 188 C165.948 188.082 164.896 188.165 163.812 188.25 C159.548 189.089 157.929 189.827 155 193 C154.189 194.987 153.543 196.997 152.887 199.039 C151.403 202.321 148.83 203.846 146 206 C145.023 208.931 144.805 211.186 144.625 214.25 C144.332 217.971 143.929 220.158 142.375 223.625 C140.596 227.993 140.947 231.456 142 236 C142.33 236.33 142.66 236.66 143 237 C143.158 238.747 143.277 240.498 143.375 242.25 C143.746 246.595 144.099 249.581 147 253 C147.413 253.289 147.413 253.289 149.5 254.75 C152.189 257.17 152.535 258.146 153.5 261.5 C154.749 265.742 156.009 267.773 160 270 C161.052 270.165 162.104 270.33 163.188 270.5 C164.116 270.665 165.044 270.83 166 271 C167.125 272.875 167.125 272.875 168 275 C171.647 278.177 174.532 279.123 179.312 278.875 C183.679 278.805 186.093 280.046 190 282 C195.502 282.688 199.793 281.811 205 280 C206.134 280.041 207.269 280.082 208.438 280.125 C213.207 279.958 215.142 278.799 219 276 C220.438 273.25 220.438 273.25 221 271 C221.516 270.969 221.516 270.969 224.125 270.812 C228.798 269.833 230.791 268.514 234 265 C234.875 261.188 234.875 261.188 235 258 C235.763 257.773 236.526 257.546 237.312 257.312 C240.655 255.68 241.473 254.36 243 251 C243.727 247.894 244.011 245.25 243.875 242.062 C244 239 244 239 245.562 235.625 C247.386 231.026 246.974 228.789 246 224 C245.67 223.34 245.34 222.68 245 222 C244.846 220.231 244.726 218.46 244.625 216.688 C244.253 212.366 243.885 209.4 241 206 C240.175 205.423 239.35 204.845 238.5 204.25 C235.811 201.83 235.465 200.854 234.5 197.5 C233.251 193.258 231.991 191.227 228 189 C226.948 188.835 225.896 188.67 224.812 188.5 C224.348 188.418 224.348 188.418 222 188 C220.875 186.125 220.875 186.125 220 184 C216.146 180.643 213.15 179.896 208.125 180.125 C203.689 180.189 201.774 179.322 198 177 C193.272 176.418 190.022 176.319 186 179 Z M33 241 C33 248.59 33 256.18 33 264 C61.05 264 89.1 264 118 264 C118 256.41 118 248.82 118 241 C89.95 241 61.9 241 33 241 Z M225 277 C224.492 277.482 223.984 277.964 223.461 278.461 C216.782 284.59 211.218 286.076 202.391 287.535 C200 288 200 288 198 289 C198.592 292.591 199.557 295.489 201.188 298.738 C201.411 299.186 201.411 299.186 202.544 301.453 C203.024 302.396 203.505 303.34 204 304.312 C204.244 304.797 204.244 304.797 205.482 307.25 C209.746 315.641 214.277 323.861 219 332 C221.728 328.754 223.884 325.619 225.75 321.812 C226.178 320.953 226.606 320.093 227.047 319.207 C228 317 228 317 228 315 C229.12 315.3 230.24 315.601 231.395 315.91 C232.867 316.295 234.34 316.679 235.812 317.062 C236.55 317.262 237.288 317.461 238.049 317.666 C243.66 319.113 243.66 319.113 247 318 C228.372 278.686 228.372 278.686 225 277 Z M160 279 C159.607 279.73 159.215 280.46 158.81 281.212 C157.323 283.976 155.836 286.74 154.348 289.504 C153.4 291.266 152.452 293.029 151.504 294.791 C150.892 295.929 150.279 297.066 149.648 298.238 C149.041 299.368 148.433 300.498 147.808 301.663 C146.617 303.861 145.415 306.054 144.2 308.24 C143.926 308.733 143.926 308.733 142.539 311.23 C142.049 312.105 141.558 312.979 141.053 313.88 C140 316 140 316 140 318 C142.042 317.858 144.084 317.711 146.125 317.562 C147.262 317.481 148.399 317.4 149.57 317.316 C152.754 317.023 155.855 316.569 159 316 C159.255 316.715 159.51 317.431 159.773 318.168 C161.088 321.202 162.695 323.632 164.625 326.312 C165.257 327.196 165.888 328.079 166.539 328.988 C167.021 329.652 167.503 330.316 168 331 C170.9 327.552 173.167 324.117 175.277 320.141 C175.874 319.024 176.47 317.908 177.084 316.758 C177.696 315.6 178.307 314.443 178.938 313.25 C180.154 310.963 181.372 308.677 182.59 306.391 C183.167 305.302 183.745 304.213 184.339 303.092 C186.219 299.593 188.167 296.137 190.155 292.698 C191 291 191 291 191 289 C186.527 286.662 183.06 285.817 178 285.562 C171.579 285.176 167.621 283.621 163 279 C162.01 279 161.02 279 160 279 Z " fill="#000000" transform="translate(130,113)"/>
<path d="M0 0 C6.522 5.872 10.036 14.371 10.516 22.996 C10.32 31.462 7.179 39.018 1.516 45.309 C-4.697 50.903 -12.243 54.09 -20.609 54.371 C-29.293 53.897 -36.725 51.094 -42.922 44.871 C-48.637 37.306 -51.749 29.465 -50.922 19.871 C-48.711 9.754 -44.249 3.03 -35.922 -3.129 C-23.795 -9.991 -11.007 -7.716 0 0 Z " fill="#000000" transform="translate(344.921875,319.12890625)"/>
</svg>
