<?xml version="1.0" encoding="UTF-8"?>
<!-- Generator: visioncortex VTracer 0.6.12 -->
<svg version="1.1" xmlns="http://www.w3.org/2000/svg" width="540" height="540">
<path d="M0 0 C178.2 0 356.4 0 540 0 C540 178.2 540 356.4 540 540 C361.8 540 183.6 540 0 540 C0 361.8 0 183.6 0 0 Z M251.669 64.736 C248.176 69.475 245.422 74.676 242.562 79.812 C241.86 81.061 241.156 82.309 240.451 83.556 C239.004 86.119 237.56 88.683 236.118 91.248 C232.935 96.898 229.686 102.511 226.438 108.125 C225.197 110.273 223.956 112.422 222.715 114.57 C222.102 115.63 221.49 116.69 220.859 117.782 C217.737 123.187 214.619 128.593 211.5 134 C210.25 136.167 209 138.333 207.75 140.5 C207.441 141.036 207.441 141.036 205.875 143.75 C155.25 231.5 155.25 231.5 153.375 234.75 C152.124 236.918 150.874 239.086 149.623 241.254 C146.512 246.647 143.4 252.039 140.285 257.43 C133.465 269.236 126.677 281.06 119.923 292.905 C114.767 301.943 109.547 310.943 104.289 319.922 C99.808 327.586 95.395 335.287 91 343 C86.046 351.694 81.056 360.365 76 369 C70.283 378.766 64.651 388.58 59.047 398.411 C54.412 406.54 49.745 414.649 45.062 422.75 C43.251 425.889 41.441 429.028 39.632 432.168 C38.592 433.973 37.551 435.778 36.509 437.582 C35.229 439.801 33.957 442.025 32.688 444.25 C32.332 444.863 31.977 445.477 31.612 446.108 C27.951 452.566 25.858 458.59 27 466 C29.267 472.711 32.83 478.325 39 482 C43.642 483.86 47.816 484.286 52.759 484.257 C53.142 484.259 53.142 484.259 55.081 484.268 C57.65 484.277 60.22 484.272 62.789 484.267 C64.649 484.271 66.509 484.276 68.369 484.281 C73.482 484.293 78.595 484.293 83.708 484.291 C89.221 484.29 94.735 484.301 100.248 484.311 C111.051 484.328 121.853 484.333 132.655 484.334 C141.434 484.335 150.213 484.339 158.992 484.346 C179.824 484.36 200.656 484.373 221.488 484.372 C222.154 484.371 222.82 484.371 223.506 484.371 C226.883 484.371 230.259 484.371 233.636 484.371 C234.306 484.371 234.977 484.371 235.668 484.371 C237.024 484.371 238.38 484.371 239.736 484.37 C260.837 484.369 281.937 484.384 303.038 484.412 C326.745 484.442 350.451 484.46 374.157 484.458 C386.71 484.457 399.262 484.463 411.814 484.484 C422.5 484.502 433.186 484.507 443.872 484.493 C449.325 484.486 454.778 484.486 460.231 484.504 C465.222 484.519 470.213 484.517 475.205 484.499 C477.011 484.496 478.817 484.5 480.623 484.511 C483.079 484.525 485.533 484.514 487.989 484.498 C488.69 484.508 489.391 484.518 490.113 484.528 C496.761 484.433 501.656 481.865 506.75 477.812 C511.196 472.255 513.998 466.097 513.613 458.871 C512.154 452.039 508.41 446.023 505 440 C504.474 439.071 503.948 438.142 503.407 437.186 C499.993 431.189 496.532 425.22 493.056 419.26 C489.648 413.409 486.295 407.528 482.945 401.644 C477.68 392.4 472.375 383.181 467 374 C461.993 365.445 457.038 356.86 452.125 348.25 C451.792 347.667 451.459 347.083 451.116 346.483 C448.402 341.726 445.691 336.967 442.979 332.208 C440.612 328.055 438.245 323.902 435.875 319.75 C435.708 319.458 435.708 319.458 434.866 317.982 C430.287 309.962 425.664 301.97 421 294 C415.993 285.444 411.038 276.86 406.125 268.25 C405.959 267.958 405.959 267.958 405.116 266.483 C402.402 261.726 399.691 256.967 396.979 252.208 C394.612 248.055 392.245 243.902 389.875 239.75 C389.708 239.458 389.708 239.458 388.866 237.982 C384.287 229.962 379.664 221.97 375 214 C369.993 205.444 365.038 196.86 360.125 188.25 C359.959 187.958 359.959 187.958 359.116 186.483 C356.402 181.726 353.691 176.967 350.979 172.208 C348.612 168.055 346.245 163.902 343.875 159.75 C343.708 159.458 343.708 159.458 342.866 157.982 C337.726 148.98 332.523 140.018 327.286 131.073 C323.174 124.039 319.112 116.977 315.075 109.9 C314.068 108.134 313.058 106.369 312.049 104.604 C308.997 99.266 305.953 93.925 302.945 88.562 C301.944 86.78 300.939 85.002 299.931 83.224 C298.686 81.025 297.45 78.821 296.223 76.612 C291.92 69.044 287.219 61.677 279.75 56.938 C268.333 54.083 259.316 55.555 251.669 64.736 Z " fill="#000000" transform="translate(0,0)"/>
<path d="M0 0 C1.17 0.002 2.341 0.004 3.546 0.007 C4.19 0.007 4.834 0.006 5.497 0.006 C7.635 0.007 9.772 0.015 11.909 0.023 C13.388 0.024 14.866 0.026 16.344 0.027 C20.242 0.031 24.14 0.041 28.038 0.052 C32.013 0.062 35.987 0.066 39.962 0.071 C47.766 0.082 55.57 0.099 63.374 0.12 C60.474 12.007 57.303 23.806 54.023 35.593 C53.517 37.414 53.012 39.235 52.507 41.057 C51.191 45.8 49.873 50.544 48.554 55.287 C47.477 59.16 46.402 63.035 45.328 66.909 C43.103 74.926 40.878 82.944 38.649 90.96 C38.447 91.686 38.246 92.412 38.038 93.16 C37.848 93.845 37.657 94.53 37.461 95.235 C37.298 95.82 37.136 96.405 36.968 97.007 C36.113 100.048 35.242 103.083 34.374 106.12 C49.554 106.12 64.734 106.12 80.374 106.12 C79.03 109.482 77.751 112.436 76.046 115.577 C75.815 116.004 75.815 116.004 74.644 118.161 C74.143 119.075 73.641 119.99 73.124 120.933 C72.595 121.9 72.067 122.867 71.522 123.863 C67.062 131.972 62.419 139.967 57.729 147.944 C53.517 155.119 49.419 162.35 45.374 169.62 C40.238 178.85 34.972 187.993 29.624 197.101 C24.852 205.249 20.235 213.478 15.644 221.73 C10.897 230.239 6.017 238.667 1.079 247.068 C-2.235 252.71 -5.48 258.382 -8.626 264.12 C-9.748 260.754 -9.493 259.712 -8.652 256.351 C-8.411 255.37 -8.17 254.389 -7.921 253.378 C-7.648 252.302 -7.375 251.227 -7.093 250.119 C-6.953 249.552 -6.953 249.552 -6.241 246.684 C-5.307 242.924 -4.361 239.167 -3.415 235.409 C-2.764 232.803 -2.116 230.196 -1.467 227.589 C0.069 221.416 1.614 215.246 3.162 209.077 C5.431 200.031 7.687 190.982 9.944 181.933 C10.277 180.596 10.611 179.26 10.944 177.923 C11.107 177.271 11.27 176.618 11.437 175.946 C12.56 171.446 13.686 166.947 14.814 162.448 C15.113 161.253 15.412 160.058 15.72 158.826 C16.279 156.595 16.838 154.364 17.398 152.134 C17.645 151.147 17.892 150.16 18.146 149.143 C18.36 148.289 18.575 147.435 18.795 146.554 C19.381 144.09 19.877 141.604 20.374 139.12 C5.524 139.12 -9.326 139.12 -24.626 139.12 C-23.95 130.329 -23.098 121.851 -21.692 113.186 C-21.499 111.966 -21.305 110.747 -21.106 109.49 C-20.581 106.191 -20.051 102.892 -19.519 99.594 C-18.961 96.129 -18.408 92.663 -17.855 89.197 C-16.927 83.394 -15.995 77.591 -15.06 71.789 C-13.979 65.077 -12.905 58.364 -11.835 51.65 C-10.802 45.177 -9.765 38.704 -8.725 32.232 C-8.284 29.481 -7.844 26.73 -7.405 23.978 C-6.795 20.152 -6.177 16.327 -5.559 12.502 C-5.378 11.357 -5.196 10.212 -5.008 9.033 C-4.84 7.999 -4.672 6.964 -4.499 5.899 C-4.353 4.995 -4.208 4.091 -4.058 3.159 C-3.411 0.109 -3.192 0.146 0 0 Z " fill="#000000" transform="translate(244.62586975097656,163.87974548339844)"/>
</svg>
