<?xml version="1.0" encoding="UTF-8"?>
<!-- Generator: visioncortex VTracer 0.6.12 -->
<svg version="1.1" xmlns="http://www.w3.org/2000/svg" width="538" height="538">
<path d="M0 0 C177.54 0 355.08 0 538 0 C538 177.54 538 355.08 538 538 C360.46 538 182.92 538 0 538 C0 360.46 0 182.92 0 0 Z M251.562 40.188 C247.174 45.993 245.21 52.759 246 60 C247.698 66.409 250.373 71.249 256 75 C256.432 77.522 256.432 77.522 256.512 80.664 C256.547 81.786 256.583 82.907 256.619 84.062 C256.63 84.65 256.63 84.65 256.688 87.625 C256.722 88.808 256.756 89.992 256.791 91.211 C256.874 94.141 256.943 97.07 257 100 C255.926 99.99 254.853 99.979 253.746 99.968 C249.726 99.932 245.706 99.909 241.686 99.89 C239.953 99.88 238.22 99.867 236.487 99.849 C233.982 99.825 231.478 99.813 228.973 99.805 C228.21 99.794 227.447 99.784 226.661 99.773 C217.199 99.771 209.21 101.614 202 108 C197.374 113.826 195.878 118.658 195.839 126.098 C195.834 126.817 195.829 127.537 195.824 128.277 C195.809 130.658 195.802 133.038 195.797 135.418 C195.791 137.076 195.785 138.734 195.78 140.392 C195.769 143.872 195.763 147.351 195.76 150.83 C195.754 155.274 195.73 159.718 195.702 164.162 C195.683 167.589 195.678 171.017 195.676 174.444 C195.673 176.082 195.665 177.719 195.652 179.356 C195.518 197.338 195.518 197.338 200.648 204.207 C206.551 209.696 211.307 213.096 219.552 213.154 C220.46 213.163 221.368 213.171 222.304 213.18 C223.293 213.184 224.282 213.188 225.301 213.193 C225.825 213.197 225.825 213.197 228.476 213.218 C231.945 213.242 235.414 213.259 238.883 213.273 C239.476 213.276 239.476 213.276 242.478 213.29 C248.759 213.316 255.041 213.336 261.322 213.35 C266.514 213.363 271.704 213.391 276.896 213.432 C283.17 213.482 289.444 213.506 295.719 213.513 C298.106 213.52 300.492 213.535 302.879 213.559 C306.227 213.591 309.574 213.591 312.922 213.583 C313.899 213.6 314.876 213.616 315.883 213.633 C322.819 213.571 328.237 211.943 334 208 C339.888 201.811 342.241 196.162 342.291 187.583 C342.297 186.854 342.304 186.124 342.311 185.373 C342.33 182.971 342.334 180.57 342.336 178.168 C342.342 176.49 342.349 174.813 342.356 173.135 C342.368 169.621 342.372 166.106 342.371 162.592 C342.37 158.103 342.398 153.614 342.432 149.125 C342.454 145.66 342.458 142.195 342.457 138.73 C342.46 137.076 342.469 135.422 342.484 133.768 C342.57 123.707 342.529 116.244 335.625 108.25 C324.447 98.669 312.344 99.73 298.375 99.875 C296.686 99.885 294.997 99.894 293.309 99.902 C289.205 99.922 285.103 99.962 281 100 C281 91.75 281 83.5 281 75 C282.32 74.34 283.64 73.68 285 73 C289.58 68.281 292.091 62.573 292.375 56 C292.05 48.786 289.148 43.034 284 38 C273.569 31.496 260.579 30.543 251.562 40.188 Z M96 155 C94.562 156.977 94.562 156.977 93 159.625 C92.484 160.484 91.969 161.342 91.438 162.227 C86.871 171.038 86.698 181.334 88.582 190.98 C92.309 201.684 101.149 209.075 111 214 C111.001 214.642 111.003 215.284 111.004 215.945 C111.024 222.662 111.079 229.378 111.153 236.095 C111.176 238.597 111.19 241.099 111.196 243.602 C111.205 247.212 111.246 250.82 111.293 254.43 C111.289 255.537 111.285 256.645 111.281 257.786 C111.432 265.919 113.133 272.783 118.755 278.914 C134.545 293.765 159.907 286 179 286 C179 319.33 179 352.66 179 387 C238.4 387 297.8 387 359 387 C359 352.02 359 317.04 359 281 C364.28 281.165 364.28 281.165 391 282 C391 297.51 391 313.02 391 329 C387.37 330.98 383.74 332.96 380 335 C371.259 343.495 366.927 351.861 366.688 364.062 C366.655 373.936 369.068 381.876 376 389 C380.559 386.125 384.455 382.938 388.375 379.25 C388.92 378.743 389.466 378.237 390.027 377.715 C391.355 376.48 392.678 375.241 394 374 C393.513 373.083 393.025 372.167 392.523 371.223 C390.738 367.445 390.549 365.136 391 361 C392.5 358.187 392.5 358.187 394 356 C394 355.34 394 354.68 394 354 C398.712 352.115 402.976 351.189 408 352 C411.442 353.721 413.404 354.998 415.375 358.312 C416.556 363.392 416.603 367.445 414 372 C414 372.99 414 373.98 414 375 C416.266 377.121 416.266 377.121 419.25 379.438 C422.055 381.631 424.74 383.735 427.234 386.277 C429 388 429 388 431 388.125 C435.739 385.459 437.93 379.748 439.457 374.746 C441.677 363.517 440.41 352.992 434.305 343.312 C429.891 337.308 424.866 333 418 330 C417.01 330 416.02 330 415 330 C415.011 329.358 415.022 328.716 415.034 328.055 C415.145 321.339 415.22 314.622 415.275 307.905 C415.3 305.403 415.334 302.901 415.377 300.398 C415.438 296.789 415.466 293.18 415.488 289.57 C415.514 288.463 415.54 287.355 415.566 286.214 C415.57 277.658 413.511 271.149 407.938 264.562 C400.062 258.211 393.548 256.862 383.414 256.902 C382.712 256.904 382.01 256.905 381.287 256.907 C379.067 256.912 376.846 256.925 374.625 256.938 C373.111 256.943 371.596 256.947 370.082 256.951 C366.388 256.961 362.694 256.981 359 257 C359 247.76 359 238.52 359 229 C299.6 229 240.2 229 179 229 C179 240.22 179 251.44 179 263 C164.81 262.67 150.62 262.34 136 262 C135.67 246.16 135.34 230.32 135 214 C135.825 213.835 135.825 213.835 140 213 C149.693 208.05 156.557 200.31 160 190 C162.725 178.681 160.888 168.289 155 158.312 C154.67 157.931 154.67 157.931 153 156 C147.906 156 147.099 157.357 143.5 160.812 C140.434 163.731 137.455 166.547 134 169 C134.309 169.66 134.619 170.32 134.938 171 C136.739 176.085 137.666 180.142 135.812 185.312 C133.502 188.738 132.043 190.497 127.953 191.504 C122.793 192.326 119.404 192.145 115 189 C111.75 185.317 111.612 181.938 111.762 177.227 C112.075 174.298 112.885 171.717 114 169 C113.515 168.576 113.031 168.152 112.531 167.715 C111.861 167.128 111.191 166.542 110.5 165.938 C109.776 165.306 109.051 164.674 108.305 164.023 C106.78 162.685 105.264 161.336 103.758 159.977 C103.054 159.345 102.35 158.713 101.625 158.062 C100.978 157.476 100.331 156.889 99.664 156.285 C98 155 98 155 96 155 Z M141.535 419.75 C134.259 430.415 132.919 441.422 134 454 C136.324 465.037 142.854 474.497 152 481 C160.45 486.073 168.626 488.311 178.412 488.261 C179.22 488.265 180.028 488.268 180.861 488.272 C183.549 488.283 186.237 488.279 188.925 488.275 C190.861 488.279 192.797 488.284 194.732 488.29 C199.976 488.304 205.22 488.304 210.464 488.302 C214.847 488.301 219.231 488.305 223.615 488.31 C233.959 488.321 244.304 488.322 254.649 488.316 C265.308 488.31 275.966 488.322 286.625 488.343 C295.789 488.361 304.952 488.367 314.116 488.364 C319.583 488.362 325.051 488.364 330.518 488.378 C335.662 488.391 340.805 488.389 345.948 488.376 C347.83 488.374 349.713 488.376 351.595 488.385 C367.536 488.45 380.005 486.573 392.25 475.375 C400.251 466.823 403.58 456.571 404 445 C403.549 433.694 398.829 423.021 391.031 414.812 C377.889 403.086 363.573 402.551 346.852 402.596 C344.94 402.59 343.028 402.583 341.117 402.575 C335.956 402.557 330.795 402.558 325.633 402.564 C321.312 402.567 316.991 402.561 312.669 402.555 C302.469 402.541 292.269 402.543 282.069 402.554 C271.572 402.565 261.076 402.551 250.58 402.525 C241.542 402.502 232.504 402.496 223.466 402.502 C218.079 402.505 212.693 402.503 207.306 402.485 C202.239 402.47 197.173 402.474 192.106 402.493 C190.255 402.496 188.404 402.493 186.554 402.483 C168.733 402.389 153.487 405.284 141.535 419.75 Z " fill="#000000" transform="translate(0,0)"/>
<path d="M0 0 C3.779 1.918 6.378 4.494 8.266 8.293 C10.012 13.737 9.782 18.64 7.238 23.727 C3.659 27.79 0.47 30.933 -5.09 31.59 C-10.701 31.776 -14.762 31.116 -19.074 27.352 C-22.813 22.559 -23.728 18.776 -23.461 12.715 C-22.668 7.869 -20.017 5.182 -16.449 2.039 C-11.49 -1.484 -5.835 -1.824 0 0 Z M-12.074 8.352 C-14.441 11.508 -14.546 14.503 -14.074 18.352 C-12.016 22.056 -10.763 23.135 -6.699 24.414 C-2.145 24.336 -0.364 23.485 2.926 20.352 C4.143 16.415 4.347 14.349 2.738 10.539 C0.851 8.261 -0.288 7.28 -3.074 6.352 C-6.921 6.352 -8.742 6.598 -12.074 8.352 Z " fill="#000000" transform="translate(248.07421875,141.6484375)"/>
<path d="M0 0 C3.779 1.918 6.378 4.494 8.266 8.293 C10.012 13.737 9.782 18.64 7.238 23.727 C3.659 27.79 0.47 30.933 -5.09 31.59 C-10.701 31.776 -14.762 31.116 -19.074 27.352 C-22.813 22.559 -23.728 18.776 -23.461 12.715 C-22.668 7.869 -20.017 5.182 -16.449 2.039 C-11.49 -1.484 -5.835 -1.824 0 0 Z M-12.074 8.352 C-14.441 11.508 -14.546 14.503 -14.074 18.352 C-11.992 22.099 -10.78 23.146 -6.637 24.352 C-2.656 24.352 -1.113 23.869 1.926 21.352 C4.059 18.637 3.923 17.303 3.738 13.789 C2.926 10.352 2.926 10.352 1.801 8.477 C-2.715 5.767 -7.591 5.662 -12.074 8.352 Z " fill="#000000" transform="translate(304.07421875,141.6484375)"/>
<path d="M0 0 C1.737 3.168 2.703 6.253 3.604 9.747 C3.904 10.901 4.204 12.055 4.514 13.245 C4.831 14.487 5.149 15.728 5.477 17.008 C5.807 18.285 6.137 19.562 6.477 20.877 C7.174 23.575 7.868 26.273 8.56 28.972 C9.447 32.435 10.341 35.896 11.236 39.356 C12.09 42.656 12.939 45.957 13.789 49.258 C14.111 50.504 14.433 51.749 14.764 53.033 C15.058 54.181 15.352 55.329 15.655 56.512 C15.915 57.526 16.176 58.54 16.444 59.585 C17 62 17 62 17 64 C17.66 64 18.32 64 19 64 C19.266 63.142 19.531 62.284 19.805 61.4 C21.012 57.964 22.469 54.851 24.117 51.605 C24.416 51.014 24.714 50.422 25.022 49.813 C25.969 47.936 26.921 46.061 27.875 44.188 C31.76 36.532 35.605 28.89 39 21 C41.83 24.377 43.471 28.068 45.137 32.102 C45.279 32.44 45.279 32.44 45.998 34.155 C46.595 35.581 47.189 37.008 47.781 38.437 C48.688 40.627 49.606 42.814 50.525 45 C51.105 46.388 51.684 47.776 52.262 49.164 C52.537 49.819 52.812 50.474 53.095 51.15 C55 55.769 55 55.769 55 58 C55.699 57.434 56.397 56.868 57.117 56.285 C58.027 55.552 58.937 54.818 59.875 54.062 C60.78 53.332 61.685 52.601 62.617 51.848 C65.822 49.363 67.376 48.876 71.352 48.902 C71.777 48.904 71.777 48.904 73.93 48.912 C74.819 48.92 75.709 48.929 76.625 48.938 C77.522 48.942 78.419 48.947 79.344 48.951 C81.563 48.963 83.781 48.981 86 49 C86 52.3 86 55.6 86 59 C84.958 58.887 83.917 58.773 82.844 58.656 C75.47 58.255 70.07 58.625 64.309 63.629 C60.293 67.532 56.564 71.682 53 76 C49.977 73.443 48.803 70.643 47.301 67.02 C46.814 65.856 46.328 64.693 45.826 63.494 C45.327 62.279 44.827 61.064 44.312 59.812 C43.797 58.573 43.281 57.334 42.764 56.096 C41.502 53.066 40.248 50.035 39 47 C38.55 47.9 38.1 48.8 37.637 49.727 C30.091 64.818 22.546 79.909 15 95 C13.257 91.827 12.303 88.741 11.412 85.238 C11.115 84.08 10.818 82.922 10.512 81.729 C10.197 80.485 9.883 79.24 9.559 77.957 C9.228 76.665 8.897 75.372 8.565 74.08 C7.518 69.992 6.477 65.902 5.438 61.812 C4.394 57.712 3.349 53.612 2.299 49.513 C1.645 46.961 0.995 44.408 0.349 41.854 C0.055 40.705 -0.239 39.557 -0.541 38.374 C-0.799 37.358 -1.058 36.342 -1.324 35.295 C-2 33 -2 33 -3 32 C-3.358 32.782 -3.717 33.565 -4.086 34.371 C-5.413 37.266 -6.742 40.16 -8.072 43.053 C-8.648 44.307 -9.223 45.562 -9.798 46.816 C-10.622 48.617 -11.45 50.416 -12.277 52.215 C-12.526 52.757 -12.526 52.757 -13.785 55.5 C-15 58 -15 58 -16 59 C-17.927 59.087 -19.857 59.107 -21.785 59.098 C-22.37 59.096 -22.37 59.096 -25.33 59.088 C-25.946 59.084 -25.946 59.084 -29.062 59.062 C-29.68 59.06 -29.68 59.06 -32.807 59.049 C-35.871 59.037 -38.936 59.021 -42 59 C-42 55.7 -42 52.4 -42 49 C-35.4 49 -28.8 49 -22 49 C-21.01 46.03 -20.02 43.06 -19 40 C-18.07 37.87 -17.097 35.759 -16.074 33.672 C-15.524 32.541 -14.975 31.411 -14.408 30.246 C-13.84 29.092 -13.273 27.939 -12.688 26.75 C-11.565 24.454 -10.444 22.157 -9.324 19.859 C-8.777 18.737 -8.229 17.615 -7.666 16.459 C-5.039 11.005 -2.513 5.507 0 0 Z " fill="#000000" transform="translate(250,249)"/>
<path d="M0 0 C4.389 3.429 7.162 7.298 7.965 12.875 C7.693 19.272 5.542 23.506 0.965 27.875 C-3.463 30.763 -6.784 31.509 -12.035 30.875 C-17.852 28.943 -21.102 26.389 -24.035 20.875 C-25.575 16.254 -25.574 12.427 -23.973 7.812 C-21.277 3.725 -17.827 -0.165 -13.082 -1.797 C-8.522 -2.528 -4.091 -2.261 0 0 Z " fill="#000000" transform="translate(196.03515625,431.125)"/>
<path d="M0 0 C3.599 2.982 5.718 6.403 7.188 10.812 C7.585 16.081 7.112 19.379 4.188 23.812 C0.11 27.939 -3.058 30.542 -9 31.125 C-15.062 30.628 -19.161 28.633 -23.25 24.125 C-25.885 18.538 -26.44 14.026 -24.75 8.062 C-22.034 3.507 -19.082 1.162 -14.5 -1.562 C-9.482 -2.73 -4.715 -1.991 0 0 Z " fill="#000000" transform="translate(277.8125,431.1875)"/>
<path d="M0 0 C4.538 4.011 6.867 7.803 7.25 13.812 C6.98 18.921 5.167 22.652 1.688 26.375 C-3 29.856 -7.46 31.134 -13.312 30.375 C-18.988 28.332 -22.611 24.778 -25.312 19.375 C-25.834 14.147 -25.955 9.735 -23.688 4.938 C-16.72 -2.58 -9.21 -4.518 0 0 Z " fill="#000000" transform="translate(359.3125,431.625)"/>
</svg>
