<?xml version="1.0" encoding="UTF-8"?>
<!-- Generator: visioncortex VTracer 0.6.12 -->
<svg version="1.1" xmlns="http://www.w3.org/2000/svg" width="540" height="540">
<path d="M0 0 C178.2 0 356.4 0 540 0 C540 178.2 540 356.4 540 540 C361.8 540 183.6 540 0 540 C0 361.8 0 183.6 0 0 Z M319.219 93.857 C317.983 95.97 317.983 95.97 317 98 C316.42 99.057 315.84 100.114 315.242 101.203 C309.982 112.926 306.287 124.371 304.339 137.069 C304.023 138.871 303.567 140.648 303.102 142.418 C302.345 146.073 302.114 148.356 303 152 C306.324 156.851 310.887 160.64 315.296 164.474 C317.985 166.882 320.259 169.591 322.57 172.352 C324 174 324 174 326.051 175.518 C328.986 179.255 328.603 182.729 328.609 187.359 C328.625 188.161 328.641 188.963 328.657 189.79 C328.709 192.776 328.728 195.763 328.75 198.75 C328.832 205.433 328.915 212.115 329 219 C307.88 219 286.76 219 265 219 C265 200.85 265 182.7 265 164 C270.61 164 276.22 164 282 164 C282.109 159.895 282.188 155.793 282.25 151.688 C282.267 151.114 282.267 151.114 282.352 148.209 C282.444 140.03 281.865 131.508 276.308 125.026 C270.415 119.475 263.931 117.546 255.974 117.606 C255.196 117.599 254.417 117.593 253.614 117.587 C251.02 117.571 248.425 117.575 245.831 117.58 C243.964 117.573 242.098 117.564 240.231 117.554 C235.171 117.532 230.111 117.529 225.051 117.531 C220.822 117.531 216.592 117.523 212.363 117.514 C202.381 117.495 192.399 117.492 182.417 117.499 C172.133 117.506 161.849 117.483 151.564 117.446 C142.723 117.415 133.883 117.404 125.041 117.408 C119.766 117.41 114.491 117.404 109.216 117.38 C104.252 117.357 99.289 117.359 94.326 117.38 C92.509 117.383 90.693 117.378 88.877 117.364 C70.779 117.231 70.779 117.231 63 123 C60.746 125.352 60.746 125.352 59.438 127.625 C58.982 128.38 58.527 129.136 58.059 129.914 C56.004 133.963 55.883 137.148 55.902 141.637 C55.906 142.935 55.909 144.234 55.912 145.572 C55.92 146.944 55.929 148.316 55.938 149.688 C55.943 151.071 55.947 152.454 55.951 153.838 C55.963 157.225 55.981 160.613 56 164 C61.61 164 67.22 164 73 164 C73 191.39 73 218.78 73 247 C70.36 247.33 67.72 247.66 65 248 C59.376 250.389 54.679 254.169 52.193 259.842 C49.93 266.06 49.572 271.674 49.612 278.252 C49.607 279.341 49.601 280.43 49.596 281.552 C49.583 285.129 49.591 288.705 49.602 292.281 C49.6 294.78 49.597 297.279 49.593 299.778 C49.588 305.675 49.598 311.571 49.614 317.468 C49.626 322.157 49.622 326.847 49.609 331.537 C49.591 338.024 49.589 344.512 49.599 351 C49.601 353.465 49.598 355.931 49.591 358.396 C49.583 361.847 49.595 365.297 49.612 368.748 C49.609 369.253 49.609 369.253 49.593 371.809 C49.667 380.118 50.91 387.91 57 394 C63.219 398.837 69.231 400.265 77.027 400.195 C78.313 400.189 79.599 400.182 80.924 400.176 C82.262 400.159 83.6 400.142 84.938 400.125 C86.303 400.115 87.668 400.106 89.033 400.098 C92.356 400.074 95.678 400.041 99 400 C99.208 399.007 99.415 398.015 99.629 396.992 C103.757 378.333 112.101 363.058 128.48 352.457 C144.04 343.459 161.053 340.604 178.688 344.062 C195.622 348.593 209.527 358.756 218.652 373.707 C223.281 382.317 225.141 390.279 228 400 C250.11 400 272.22 400 295 400 C295.66 397.69 296.32 395.38 297 393 C302.532 373.861 311.875 360.184 329 350 C346.892 341.183 364.457 340.102 383.285 346.035 C400.212 352.478 411.503 364.699 419.324 380.711 C423.458 390.453 424.219 399.549 424.015 410.02 C423.978 412.013 423.985 414.007 424 416 C425.768 417.768 428.313 417.155 430.71 417.177 C431.932 417.19 433.153 417.203 434.412 417.216 C435.758 417.224 437.104 417.232 438.449 417.238 C439.125 417.242 439.8 417.246 440.497 417.251 C444.076 417.272 447.656 417.286 451.235 417.295 C454.926 417.306 458.617 417.341 462.308 417.38 C465.15 417.407 467.992 417.415 470.834 417.418 C472.194 417.423 473.554 417.435 474.914 417.453 C488.201 417.624 488.201 417.624 493 413 C495.749 408.876 495.938 405.744 495 401 C493.907 398.513 492.775 396.149 491.516 393.75 C491.159 393.054 490.802 392.359 490.435 391.642 C489.678 390.168 488.919 388.697 488.155 387.227 C487.033 385.064 485.923 382.896 484.816 380.725 C482.596 376.374 480.362 372.03 478.125 367.688 C477.734 366.928 477.343 366.168 476.94 365.385 C472.341 356.451 467.735 347.521 463.062 338.625 C462.68 337.896 462.298 337.168 461.905 336.417 C460.444 333.65 459.007 331.009 457.184 328.461 C454.64 323.172 457.462 317.041 459 311.688 C460.631 305.783 461.749 300.126 462 294 C462.052 293.286 462.103 292.572 462.156 291.836 C463.163 267.412 453.65 245.033 437.336 227.281 C436.951 226.905 436.951 226.905 435 225 C434.549 224.5 434.098 224 433.634 223.485 C430.212 220.041 427.693 218.595 422.799 218.319 C420.805 218.32 418.81 218.353 416.816 218.414 C415.761 218.423 414.705 218.431 413.618 218.44 C410.265 218.473 406.915 218.548 403.562 218.625 C401.282 218.655 399.001 218.682 396.721 218.707 C391.146 218.773 385.573 218.873 380 219 C379.92 213.325 379.9 207.653 379.933 201.977 C379.936 200.05 379.923 198.123 379.894 196.196 C379.666 180.179 379.666 180.179 382.947 174.82 C385.183 172.597 387.44 170.827 390 169 C391.245 167.658 392.46 166.287 393.625 164.875 C396.466 161.556 399.472 158.477 402.617 155.445 C405.707 152.216 405.328 148.905 405.277 144.645 C403.923 126.844 398.464 109.164 389 94 C388.8 93.653 388.8 93.653 387.79 91.897 C386 90 386 90 383.288 89.465 C382.741 89.458 382.741 89.458 379.971 89.419 C379.351 89.406 379.351 89.406 376.209 89.342 C374.851 89.335 373.494 89.331 372.137 89.328 C370.743 89.315 369.349 89.302 367.955 89.288 C365.032 89.264 362.11 89.256 359.187 89.259 C355.45 89.259 351.716 89.205 347.98 89.136 C345.1 89.091 342.22 89.083 339.34 89.085 C337.963 89.081 336.586 89.063 335.21 89.032 C323.102 88.785 323.102 88.785 319.219 93.857 Z M127.793 380.492 C120.011 391.377 118.935 403.024 120 416 C122.38 427.535 129.507 437.213 139 444 C150.556 450.31 163.185 452.126 176.156 449.316 C178.599 448.385 180.753 447.332 183 446 C183.775 445.553 184.549 445.105 185.348 444.645 C195.731 438.179 202.249 430.147 205.816 418.285 C208.769 404.886 206.328 392.628 199 381 C192.223 372.539 183.619 366.429 173 364 C154.891 362.162 139.866 366.274 127.793 380.492 Z M324.605 380.711 C316.763 391.892 315.776 403.772 317 417 C319.693 428.014 326.765 437.512 336 444 C347.488 450.166 358.946 451.636 371.832 449.539 C374.034 448.865 375.955 448.058 378 447 C378.828 446.575 379.655 446.149 380.508 445.711 C392.205 439.181 399.267 429.942 403 417 C404.953 404.731 403.82 393.562 397 383 C390.02 373.688 381.283 367.123 370 364 C366.738 363.553 363.539 363.475 360.25 363.5 C359.372 363.505 358.494 363.51 357.589 363.515 C343.968 363.879 333.266 370.445 324.605 380.711 Z " fill="#000000" transform="translate(0,0)"/>
<path d="M0 0 C29.37 0 58.74 0 89 0 C89 20.13 89 40.26 89 61 C59.63 61 30.26 61 0 61 C0 40.87 0 20.74 0 0 Z " fill="#000000" transform="translate(124,186)"/>
</svg>
