<?xml version="1.0" encoding="UTF-8"?>
<!-- Generator: visioncortex VTracer 0.6.12 -->
<svg version="1.1" xmlns="http://www.w3.org/2000/svg" width="540" height="540">
<path d="M0 0 C178.2 0 356.4 0 540 0 C540 178.2 540 356.4 540 540 C361.8 540 183.6 540 0 540 C0 361.8 0 183.6 0 0 Z M157.562 40.188 C143.219 54.811 132.306 72.93 125 92 C124.54 93.198 124.08 94.395 123.605 95.629 C109.572 134.931 112.004 179.031 129.403 216.817 C137.227 233.122 147.683 248.688 161 261 C167.033 256.016 172.518 250.581 178 245 C175.109 241.019 172.211 237.187 168.812 233.625 C146.918 208.776 137.363 173.044 139.271 140.507 C141.885 106.827 156.028 79.093 178 54 C173.028 47.982 167.702 42.337 162 37 C160.1 37 158.842 38.939 157.562 40.188 Z M379.062 41.25 C378.167 42.039 377.271 42.828 376.348 43.641 C374.223 45.775 373.228 47.321 372 50 C369.875 51.25 369.875 51.25 368 52 C368.618 55.525 369.08 56.077 371.875 58.75 C390.442 76.592 400.444 103.246 405 128 C405.097 128.527 405.097 128.527 405.59 131.191 C407.327 147.323 407.016 164.242 403 180 C402.823 180.751 402.645 181.501 402.462 182.274 C397.692 202.078 388.357 220.597 375 236 C374.641 236.422 374.641 236.422 372.824 238.555 C371.238 240.392 369.636 242.207 368 244 C369.321 246.932 370.746 248.987 373.039 251.234 C373.619 251.808 374.199 252.382 374.797 252.973 C375.099 253.266 375.099 253.266 376.625 254.75 C376.931 255.051 376.931 255.051 378.477 256.574 C379.98 258.054 381.489 259.528 383 261 C399.674 254.087 412.185 226.277 419 211 C434.878 171.57 435.474 126.673 418.934 87.332 C410.73 68.636 399.684 51.298 385 37 C382.82 37 380.553 39.924 379.062 41.25 Z M189.562 72.062 C175.445 86.433 166.712 105.662 162 125 C161.754 125.955 161.508 126.91 161.254 127.895 C155.206 156.382 162.464 186.845 178 211 C182.755 218.087 187.436 223.374 194 229 C199.28 223.72 204.56 218.44 210 213 C204 205 204 205 201.125 201.5 C187.183 182.826 181.836 158.892 185 136 C188.262 116.689 196.899 100.444 210 86 C205.028 79.982 199.702 74.337 194 69 C192.101 69 190.865 70.828 189.562 72.062 Z M343.312 76.25 C342.598 76.932 341.883 77.614 341.146 78.316 C340.476 78.98 339.805 79.644 339.113 80.328 C338.492 80.936 337.871 81.543 337.232 82.169 C336 84 336 84 336.21 86.117 C337.228 88.544 338.632 89.896 340.5 91.75 C356.571 109.237 361.915 132.254 361.352 155.391 C360.341 176.899 349.852 196.044 336 212 C337.321 214.932 338.746 216.987 341.039 219.234 C341.619 219.808 342.199 220.382 342.797 220.973 C343.099 221.266 343.099 221.266 344.625 222.75 C344.931 223.051 344.931 223.051 346.477 224.574 C347.98 226.054 349.489 227.528 351 229 C363.35 224.221 371.187 205.967 376.527 194.809 C388.931 166.494 389.141 134.749 378 106 C373.153 94.819 367.204 85.019 359 76 C357.852 74.606 356.706 73.21 355.562 71.812 C354.717 70.884 353.871 69.956 353 69 C349.011 69 346.009 73.576 343.312 76.25 Z M222.52 102.328 C208.53 118.078 204.026 135.982 204.825 156.583 C205.923 171.758 213.245 186.44 224 197 C226.932 195.679 228.987 194.254 231.234 191.961 C231.808 191.381 232.382 190.801 232.973 190.203 C233.559 189.6 234.146 188.997 234.75 188.375 C235.352 187.764 235.954 187.153 236.574 186.523 C238.054 185.02 239.528 183.511 241 182 C239.546 178.96 237.863 176.158 236.062 173.312 C229.635 162.668 227.422 151.312 230.188 139.125 C232.297 131.254 235.507 124.103 241 118 C239.687 115.101 238.273 113.017 236.031 110.766 C235.46 110.192 234.889 109.618 234.301 109.027 C233.707 108.441 233.112 107.854 232.5 107.25 C232.203 106.949 232.203 106.949 230.699 105.426 C230.128 104.857 229.557 104.289 228.969 103.703 C228.447 103.184 227.926 102.665 227.389 102.13 C225.336 100.46 224.471 100.578 222.52 102.328 Z M317.282 102.377 C316.976 102.691 316.976 102.691 315.426 104.281 C315.092 104.62 315.092 104.62 313.404 106.332 C313.059 106.69 313.059 106.69 311.312 108.5 C310.611 109.215 309.909 109.931 309.186 110.668 C307.45 112.439 305.722 114.216 304 116 C305.417 118.908 306.982 121.439 308.875 124.062 C315.909 134.717 317.571 145.447 316 158 C313.896 166.807 309.54 173.927 304 181 C307.418 185.119 310.945 189.113 314.625 193 C315.36 193.784 316.095 194.567 316.852 195.375 C319 197 319 197 321.066 196.98 C329.741 192.582 334.825 178.844 338.07 170.125 C343.41 153.12 341.742 135.269 334.598 119.035 C331.246 112.667 327.102 106.102 322 101 C319 101 319 101 317.282 102.377 Z M253.117 136.258 C249.575 141.781 249.36 147.621 250 154 C251.676 159.493 254.638 164.224 259 168 C261.191 168.695 261.191 168.695 263 169 C262.573 169.853 262.147 170.707 261.707 171.586 C261.413 172.174 261.12 172.761 260.817 173.366 C260.129 174.741 259.441 176.116 258.753 177.491 C256.471 182.052 254.196 186.616 251.926 191.184 C250.826 193.393 249.725 195.603 248.625 197.812 C248.121 198.829 247.616 199.846 247.097 200.894 C243.915 207.278 240.642 213.605 237.309 219.91 C232.098 229.769 227.02 239.693 221.962 249.631 C219.325 254.81 216.684 259.987 214.043 265.164 C213.782 265.676 213.782 265.676 212.459 268.269 C208.077 276.857 203.671 285.432 199.25 294 C197.9 296.617 196.549 299.234 195.199 301.852 C194.864 302.502 194.528 303.153 194.182 303.823 C189.794 312.333 185.429 320.855 181.062 329.375 C174.717 341.755 168.365 354.131 162 366.5 C156.081 378.004 150.17 389.512 144.269 401.025 C137.751 413.74 131.232 426.453 124.7 439.16 C123.577 441.348 122.455 443.536 121.334 445.724 C117.951 452.32 114.538 458.895 111.023 465.422 C110.414 466.562 109.805 467.703 109.177 468.877 C108.062 470.959 106.935 473.035 105.793 475.103 C102.847 480.619 100.699 485.635 101 492 C102.533 495.712 104.439 498.126 108 500 C114.88 501.679 119.572 500.56 125.844 497.574 C126.673 497.2 127.503 496.826 128.358 496.441 C131.081 495.209 133.79 493.948 136.5 492.688 C138.421 491.813 140.344 490.941 142.267 490.071 C146.236 488.273 150.201 486.467 154.163 484.654 C162.107 481.03 170.105 477.53 178.108 474.037 C182.333 472.191 186.555 470.337 190.777 468.484 C192.471 467.742 194.165 466.999 195.859 466.256 C202.004 463.56 208.146 460.86 214.289 458.158 C218.631 456.249 222.974 454.342 227.32 452.44 C228.993 451.707 230.667 450.975 232.34 450.242 C233.153 449.886 233.967 449.53 234.805 449.163 C239.503 447.104 244.191 445.026 248.872 442.928 C251.676 441.672 254.485 440.427 257.294 439.183 C258.582 438.61 259.867 438.032 261.151 437.449 C262.892 436.658 264.641 435.885 266.391 435.113 C266.875 434.896 266.875 434.896 269.329 433.794 C275.119 432.073 280.222 435.266 285.453 437.621 C285.871 437.807 285.871 437.807 287.984 438.746 C289.793 439.55 291.6 440.356 293.407 441.165 C296.293 442.457 299.182 443.743 302.072 445.027 C305.073 446.361 308.073 447.695 311.073 449.031 C320.908 453.41 330.764 457.741 340.625 462.062 C343.16 463.174 345.694 464.286 348.228 465.397 C349.921 466.139 351.613 466.882 353.305 467.624 C360.331 470.705 367.354 473.794 374.375 476.885 C381.226 479.899 388.081 482.902 394.938 485.901 C399.459 487.88 403.972 489.875 408.478 491.888 C410.456 492.77 412.435 493.645 414.417 494.518 C416.759 495.551 419.097 496.594 421.429 497.65 C427.245 500.193 431.636 501.753 438 501 C441.372 499.094 442.678 497.658 444.375 494.188 C445.605 487.914 443.808 482.992 440.973 477.422 C440.665 476.811 440.357 476.2 440.04 475.571 C439.057 473.626 438.06 471.688 437.062 469.75 C436.428 468.498 435.795 467.245 435.162 465.992 C431.586 458.933 427.915 451.926 424.219 444.93 C419.04 435.124 413.993 425.252 408.962 415.369 C406.325 410.19 403.684 405.013 401.043 399.836 C400.52 398.811 399.998 397.786 399.459 396.731 C395.077 388.143 390.671 379.568 386.25 371 C380.17 359.217 374.11 347.424 368.062 335.625 C361.717 323.245 355.365 310.869 349 298.5 C342.656 286.172 336.325 273.838 330 261.5 C321.445 244.811 312.873 228.131 304.292 211.456 C300.579 204.238 296.866 197.02 293.154 189.802 C291.96 187.481 290.766 185.16 289.572 182.839 C288.849 181.433 288.125 180.027 287.402 178.621 C287.071 177.977 286.74 177.333 286.398 176.669 C284.114 172.228 284.114 172.228 283 170 C283.908 169.443 284.815 168.886 285.75 168.312 C291.738 164.051 294.629 159.16 296 152 C296.19 144.583 294.616 138.884 289.562 133.312 C283.705 128.026 278.473 125.408 270.434 125.625 C263.332 126.719 257.422 130.591 253.117 136.258 Z " fill="#000000" transform="translate(0,0)"/>
<path d="M0 0 C0.66 0 1.32 0 2 0 C2.341 0.688 2.683 1.376 3.035 2.085 C14.561 25.291 14.561 25.291 20.125 35.812 C20.515 36.551 20.906 37.289 21.308 38.05 C23.031 41.303 24.761 44.552 26.496 47.798 C28.044 50.696 29.585 53.598 31.125 56.5 C31.611 57.403 32.097 58.307 32.598 59.238 C33.043 60.077 33.487 60.916 33.945 61.781 C34.343 62.524 34.74 63.268 35.149 64.033 C36 66 36 66 36 69 C33.865 70.644 31.776 72.075 29.5 73.5 C28.128 74.385 26.757 75.272 25.387 76.16 C24.669 76.622 23.952 77.083 23.212 77.559 C19.535 79.954 15.924 82.445 12.312 84.938 C11.642 85.398 10.972 85.858 10.281 86.332 C9.965 86.55 9.965 86.55 8.363 87.652 C7.771 88.056 7.179 88.459 6.569 88.875 C5 90 5 90 2.855 91.941 C2.243 92.291 1.631 92.64 1 93 C-3.458 91.659 -7.176 89.092 -11.016 86.535 C-11.672 86.101 -12.328 85.667 -13.005 85.22 C-14.385 84.305 -15.763 83.388 -17.14 82.469 C-19.251 81.062 -21.371 79.668 -23.492 78.275 C-24.834 77.384 -26.175 76.491 -27.516 75.598 C-28.151 75.182 -28.786 74.766 -29.441 74.338 C-33.885 71.344 -33.885 71.344 -35 68 C-34.328 66.086 -34.328 66.086 -33.193 63.894 C-32.77 63.066 -32.348 62.239 -31.913 61.387 C-31.443 60.491 -30.973 59.595 -30.488 58.672 C-30.008 57.738 -29.528 56.804 -29.033 55.842 C-27.469 52.807 -25.891 49.778 -24.312 46.75 C-23.247 44.689 -22.183 42.628 -21.119 40.566 C-18.545 35.582 -15.959 30.604 -13.368 25.628 C-12.153 23.295 -10.94 20.96 -9.729 18.625 C-6.503 12.407 -3.264 6.197 0 0 Z " fill="#000000" transform="translate(272,204)"/>
<path d="M0 0 C0.25 0.489 0.5 0.978 0.757 1.482 C3.384 6.627 6.013 11.77 8.643 16.913 C9.621 18.826 10.598 20.739 11.575 22.653 C12.989 25.422 14.404 28.19 15.82 30.957 C16.275 31.847 16.729 32.737 17.198 33.654 C20.057 39.231 23.01 44.729 26.167 50.143 C26.442 50.756 26.717 51.369 27 52 C26.835 52.33 26.835 52.33 26 54 C25.429 53.599 24.858 53.198 24.27 52.785 C10.097 42.849 -4.192 33.126 -18.625 23.572 C-21.421 21.721 -24.212 19.862 -27 18 C-24.235 15.086 -21.423 12.777 -18.086 10.547 C-17.16 9.928 -16.235 9.309 -15.281 8.672 C-14.322 8.038 -13.363 7.403 -12.375 6.75 C-11.408 6.1 -10.441 5.451 -9.445 4.781 C-8.522 4.168 -7.599 3.554 -6.648 2.922 C-5.805 2.361 -4.961 1.8 -4.091 1.222 C-2 0 -2 0 0 0 Z " fill="#000000" transform="translate(320,294)"/>
<path d="M0 0 C2.901 0.598 4.979 1.45 7.426 3.109 C7.742 3.322 7.742 3.322 9.342 4.398 C9.992 4.844 10.642 5.29 11.312 5.75 C11.951 6.181 12.59 6.611 13.248 7.055 C17.55 9.966 21.783 12.967 26 16 C22.421 19.984 18.203 22.667 13.75 25.562 C12.127 26.631 10.505 27.7 8.883 28.77 C8.066 29.308 7.249 29.846 6.407 30.401 C2.784 32.808 -0.797 35.275 -4.375 37.75 C-10.871 42.238 -17.414 46.646 -24 51 C-24.33 50.34 -24.66 49.68 -25 49 C-24.079 46.688 -24.079 46.688 -22.605 43.785 C-22.066 42.715 -21.527 41.644 -20.972 40.542 C-20.383 39.393 -19.794 38.245 -19.188 37.062 C-18.597 35.896 -18.006 34.73 -17.397 33.529 C-12.672 24.232 -7.854 14.984 -2.939 5.786 C-1.932 3.87 -0.962 1.938 0 0 Z " fill="#000000" transform="translate(225,295)"/>
<path d="M0 0 C3.431 1.285 6.326 3.474 9.324 5.542 C10.051 6.036 10.778 6.531 11.527 7.04 C13.918 8.667 16.302 10.302 18.687 11.936 C21.178 13.634 23.671 15.329 26.163 17.024 C27.871 18.186 29.579 19.348 31.287 20.511 C40.09 26.503 48.946 32.414 57.812 38.311 C59.255 39.272 60.698 40.232 62.141 41.193 C65.427 43.379 68.713 45.565 72 47.749 C69.66 50.089 67.658 50.891 64.613 52.19 C63.465 52.684 62.317 53.177 61.134 53.686 C59.861 54.228 58.587 54.77 57.312 55.311 C54.601 56.469 51.89 57.63 49.18 58.792 C48.458 59.101 47.736 59.409 46.993 59.727 C41.14 62.239 35.322 64.825 29.508 67.425 C26.857 68.603 24.205 69.781 21.553 70.958 C19.812 71.734 18.073 72.515 16.336 73.3 C13.884 74.407 11.425 75.497 8.965 76.585 C8.599 76.753 8.599 76.753 6.746 77.602 C2.696 79.371 0.197 80.278 -4 78.749 C-6.871 77.617 -9.69 76.393 -12.508 75.136 C-13.339 74.769 -14.17 74.403 -15.026 74.026 C-17.728 72.834 -20.426 71.635 -23.125 70.436 C-24.977 69.618 -26.829 68.8 -28.681 67.982 C-33.273 65.953 -37.861 63.919 -42.449 61.882 C-44.822 60.828 -47.196 59.775 -49.57 58.723 C-57.051 55.407 -64.528 52.084 -72 48.749 C-60.685 39.542 -48.373 31.543 -36.327 23.336 C-33.474 21.39 -30.627 19.436 -27.782 17.478 C-26.481 16.583 -25.178 15.69 -23.875 14.799 C-20.418 12.432 -16.991 10.032 -13.59 7.585 C-12.864 7.069 -12.138 6.553 -11.389 6.021 C-9.994 5.028 -8.606 4.026 -7.226 3.012 C-2.517 -0.316 -2.517 -0.316 0 0 Z " fill="#000000" transform="translate(273.0000762939453,326.2511749267578)"/>
<path d="M0 0 C6.463 2.018 12.618 4.469 18.793 7.238 C19.701 7.642 20.61 8.045 21.546 8.46 C24.428 9.74 27.308 11.026 30.188 12.312 C33.972 13.998 37.757 15.681 41.543 17.363 C41.996 17.565 41.996 17.565 44.287 18.585 C51.497 21.789 58.734 24.924 66 28 C63.942 30.243 62.147 31.584 59.363 32.799 C58.633 33.122 57.903 33.445 57.151 33.777 C56.356 34.12 55.561 34.463 54.742 34.816 C53.903 35.185 53.064 35.554 52.199 35.934 C49.427 37.15 46.651 38.356 43.875 39.562 C41.943 40.408 40.01 41.254 38.079 42.101 C34.067 43.858 30.054 45.611 26.039 47.362 C20.228 49.898 14.426 52.452 8.625 55.012 C5.91 56.208 3.196 57.405 0.481 58.601 C-1.228 59.355 -2.938 60.109 -4.647 60.863 C-15.7 65.738 -26.807 70.453 -38 75 C-36.814 71.269 -35.508 67.767 -33.75 64.27 C-33.312 63.394 -32.873 62.519 -32.422 61.617 C-31.952 60.691 -31.483 59.766 -31 58.812 C-30.511 57.841 -30.022 56.869 -29.518 55.868 C-25.994 48.893 -22.38 41.97 -18.712 35.07 C-15.173 28.393 -11.797 21.64 -8.486 14.847 C-5.946 9.689 -3.124 4.825 0 0 Z " fill="#000000" transform="translate(177,390)"/>
<path d="M0 0 C1.283 2.015 1.283 2.015 2.566 4.68 C2.806 5.17 2.806 5.17 4.021 7.653 C4.53 8.716 5.038 9.78 5.562 10.875 C6.649 13.098 7.738 15.321 8.828 17.543 C9.098 18.095 9.098 18.095 10.463 20.888 C12.507 25.027 14.643 29.113 16.812 33.188 C20.933 40.965 25.026 48.756 29.086 56.566 C29.776 57.892 30.468 59.218 31.162 60.543 C32.135 62.403 33.103 64.266 34.07 66.129 C34.353 66.671 34.353 66.671 35.782 69.412 C37 72 37 72 37 74 C32.135 72.475 27.539 70.563 22.887 68.5 C22.096 68.152 21.306 67.804 20.491 67.446 C17.889 66.299 15.288 65.15 12.688 64 C10.865 63.197 9.042 62.393 7.219 61.591 C3.412 59.914 -0.395 58.235 -4.201 56.556 C-12.608 52.849 -21.022 49.157 -29.436 45.465 C-31.989 44.345 -34.541 43.224 -37.093 42.104 C-47.058 37.727 -57.027 33.36 -67 29 C-64.273 25.639 -60.58 24.268 -56.711 22.594 C-56.347 22.433 -56.347 22.433 -54.505 21.619 C-52.131 20.573 -49.753 19.536 -47.375 18.5 C-45.743 17.784 -44.112 17.068 -42.481 16.352 C-40.018 15.27 -37.555 14.19 -35.091 13.112 C-30.099 10.929 -25.123 8.713 -20.16 6.465 C-19.012 5.948 -17.863 5.431 -16.68 4.898 C-14.56 3.943 -12.442 2.981 -10.328 2.012 C-9.86 1.803 -9.86 1.803 -7.496 0.746 C-6.694 0.382 -5.891 0.018 -5.064 -0.358 C-3 -1 -3 -1 0 0 Z " fill="#000000" transform="translate(370,391)"/>
</svg>
