<?xml version="1.0" encoding="UTF-8"?>
<!-- Generator: visioncortex VTracer 0.6.12 -->
<svg version="1.1" xmlns="http://www.w3.org/2000/svg" width="540" height="540">
<path d="M0 0 C178.2 0 356.4 0 540 0 C540 178.2 540 356.4 540 540 C361.8 540 183.6 540 0 540 C0 361.8 0 183.6 0 0 Z M45 95 C45 210.5 45 326 45 445 C193.5 445 342 445 495 445 C495 329.5 495 214 495 95 C346.5 95 198 95 45 95 Z " fill="#000000" transform="translate(0,0)"/>
<path d="M0 0 C2.977 1.773 5.428 3.856 7 7 C7.375 11.971 7.159 15.052 4 19 C0.99 21.341 -2.277 21.412 -6.031 21.328 C-9.143 20.809 -10.851 19.214 -13 17 C-14.614 13.771 -14.596 10.49 -14 7 C-10.529 0.952 -6.834 -0.683 0 0 Z " fill="#000000" transform="translate(358,130)"/>
<path d="M0 0 C2.602 2.342 3.666 4.154 4.938 7.375 C5.046 11.919 3.263 15.494 0.375 18.938 C-3.389 20.622 -6.961 20.792 -11 20 C-13.756 17.818 -15.436 16.128 -17 13 C-17.444 9.092 -17.137 7.255 -15.25 3.75 C-10.899 -1.568 -6.397 -1.823 0 0 Z " fill="#000000" transform="translate(400,131)"/>
<path d="M0 0 C3.206 1.9 5.399 3.335 6.699 6.938 C7.315 10.433 7.207 12.509 5.812 15.812 C2.614 19.673 1.214 20.865 -3.938 21.438 C-7.028 21.311 -8.093 20.945 -10.875 19.312 C-13.996 15.916 -15.034 13.63 -14.938 9 C-13.759 5.23 -11.976 3.54 -9 1 C-5.851 -0.575 -3.48 -0.348 0 0 Z " fill="#000000" transform="translate(437,130)"/>
<path d="M0 0 C126.06 0 252.12 0 382 0 C382 73.92 382 147.84 382 224 C255.94 224 129.88 224 0 224 C0 150.08 0 76.16 0 0 Z M52.312 46.25 C51.598 46.932 50.883 47.614 50.146 48.316 C49.476 48.98 48.805 49.644 48.113 50.328 C47.492 50.936 46.871 51.543 46.232 52.169 C45 54 45 54 45.179 55.849 C46.249 58.653 47.774 60.134 49.906 62.246 C50.733 63.074 51.561 63.901 52.414 64.754 C53.315 65.64 54.216 66.525 55.145 67.438 C56.066 68.355 56.987 69.272 57.936 70.217 C60.386 72.655 62.845 75.084 65.305 77.511 C67.798 79.973 70.282 82.444 72.768 84.914 C77.149 89.267 81.537 93.612 85.931 97.951 C87.961 99.961 89.98 101.98 92 104 C76.49 119.51 60.98 135.02 45 151 C46.646 154.292 47.553 155.797 50.039 158.234 C50.619 158.808 51.199 159.382 51.797 159.973 C52.4 160.559 53.003 161.146 53.625 161.75 C53.931 162.051 53.931 162.051 55.477 163.574 C56.98 165.054 58.489 166.528 60 168 C64.216 166.356 67.03 163.236 70.146 160.082 C70.751 159.477 71.356 158.872 71.98 158.248 C73.976 156.251 75.964 154.247 77.953 152.242 C79.337 150.855 80.721 149.467 82.106 148.081 C85.747 144.432 89.382 140.778 93.016 137.122 C96.725 133.391 100.441 129.667 104.156 125.941 C111.443 118.633 118.724 111.319 126 104 C122.18 99.44 118.234 95.085 114.026 90.881 C113.463 90.314 112.9 89.748 112.319 89.164 C110.481 87.316 108.639 85.472 106.797 83.629 C105.51 82.339 104.223 81.048 102.936 79.758 C100.251 77.067 97.565 74.379 94.877 71.692 C91.426 68.241 87.982 64.783 84.54 61.324 C81.891 58.664 79.238 56.008 76.583 53.354 C75.31 52.08 74.039 50.805 72.769 49.527 C71.003 47.751 69.23 45.981 67.456 44.213 C67.193 43.947 67.193 43.947 65.863 42.603 C59.678 36.472 57.55 41.056 52.312 46.25 Z M134 145 C134 152.92 134 160.84 134 169 C164.03 169 194.06 169 225 169 C225 161.08 225 153.16 225 145 C194.97 145 164.94 145 134 145 Z " fill="#000000" transform="translate(79,186)"/>
</svg>
