<?xml version="1.0" encoding="UTF-8"?>
<!-- Generator: visioncortex VTracer 0.6.12 -->
<svg version="1.1" xmlns="http://www.w3.org/2000/svg" width="540" height="540">
<path d="M0 0 C178.2 0 356.4 0 540 0 C540 178.2 540 356.4 540 540 C361.8 540 183.6 540 0 540 C0 361.8 0 183.6 0 0 Z M153.5 83.125 C124.16 113.14 111.354 155.26 111.789 196.438 C112.729 236.275 129.848 273.251 157 302 C160.428 301.419 162.045 300.314 164.453 297.84 C165.072 297.211 165.691 296.583 166.328 295.936 C166.962 295.276 167.597 294.617 168.25 293.938 C168.9 293.274 169.549 292.611 170.219 291.928 C171.819 290.292 173.413 288.649 175 287 C173.402 283.627 171.603 281.379 169 278.688 C151.443 259.387 139.658 232.979 137 207 C136.867 205.757 136.734 204.515 136.598 203.234 C133.549 169.648 143.376 134.42 164.625 108.125 C166.075 106.409 167.532 104.7 169 103 C169.628 102.261 170.256 101.523 170.902 100.762 C172.26 99.168 173.629 97.582 175 96 C173.687 93.101 172.273 91.017 170.031 88.766 C169.46 88.192 168.889 87.618 168.301 87.027 C167.707 86.441 167.112 85.854 166.5 85.25 C165.906 84.648 165.311 84.046 164.699 83.426 C164.128 82.857 163.557 82.289 162.969 81.703 C162.447 81.184 161.926 80.665 161.389 80.13 C157.994 77.368 156.017 80.648 153.5 83.125 Z M378.396 80.377 C377.778 81.005 377.16 81.634 376.523 82.281 C375.853 82.958 375.183 83.635 374.492 84.332 C374.143 84.69 374.143 84.69 372.375 86.5 C371.669 87.215 370.962 87.931 370.234 88.668 C368.485 90.441 366.741 92.218 365 94 C366.54 97.231 368.23 99.508 370.688 102.125 C393.651 127.608 405.066 162.608 403.928 196.704 C402.148 229.204 388.861 262.406 365 285 C367.023 289.436 369.979 292.383 373.375 295.812 C373.952 296.423 374.53 297.033 375.125 297.662 C375.69 298.234 376.254 298.806 376.836 299.395 C377.347 299.919 377.858 300.443 378.384 300.984 C380 302 380 302 382.077 301.768 C397.135 295.753 409.906 266.7 416 253 C432.28 213.08 432.497 168.302 415.875 128.5 C408.253 110.938 397.087 91.24 382 79 C380 79 380 79 378.396 80.377 Z M186.438 114.188 C166.255 135.027 156.417 164.488 156.646 193.118 C157.396 222.359 168.898 248.803 189 270 C192.428 269.419 194.045 268.314 196.453 265.84 C197.072 265.211 197.691 264.583 198.328 263.936 C198.962 263.276 199.597 262.617 200.25 261.938 C200.9 261.274 201.549 260.611 202.219 259.928 C203.819 258.292 205.413 256.649 207 255 C205.596 252.072 204.221 250.061 201.938 247.75 C191.186 235.674 184.163 218.905 182 203 C181.866 202.053 181.732 201.105 181.594 200.129 C179.121 177.622 185.63 155.093 199.219 137.055 C200.567 135.379 201.937 133.719 203.336 132.086 C204.908 130.115 205.916 128.261 207 126 C204.55 123.492 202.089 120.995 199.625 118.5 C198.926 117.785 198.228 117.069 197.508 116.332 C196.838 115.655 196.167 114.979 195.477 114.281 C194.859 113.653 194.241 113.024 193.604 112.377 C190.431 109.653 189 111.677 186.438 114.188 Z M346.396 112.377 C345.778 113.005 345.16 113.634 344.523 114.281 C343.853 114.958 343.183 115.635 342.492 116.332 C342.143 116.69 342.143 116.69 340.375 118.5 C339.669 119.215 338.962 119.931 338.234 120.668 C336.485 122.441 334.741 124.218 333 126 C334.544 129.223 336.295 131.655 338.625 134.375 C353.674 153.077 360.869 176.242 358.438 200.188 C355.909 220.15 347.532 238.87 333 253 C335.023 257.436 337.979 260.383 341.375 263.812 C341.952 264.423 342.53 265.033 343.125 265.662 C343.69 266.234 344.254 266.806 344.836 267.395 C345.347 267.919 345.858 268.443 346.384 268.984 C348 270 348 270 350.041 269.818 C353.231 268.486 355.111 265.864 357.25 263.25 C357.734 262.663 358.218 262.076 358.716 261.471 C371.267 245.933 379.137 227.758 382 208 C382.182 206.911 382.364 205.821 382.551 204.699 C386.208 174.584 377.813 144.466 359.18 120.609 C353.362 113.645 353.362 113.645 350 111 C348 111 348 111 346.396 112.377 Z M220.18 143.695 C207.456 157.109 201.277 174.257 201.529 192.637 C202.288 210.259 209.326 225.84 221 239 C225.436 236.977 228.383 234.021 231.812 230.625 C232.423 230.048 233.033 229.47 233.662 228.875 C234.234 228.31 234.806 227.746 235.395 227.164 C235.657 226.909 235.657 226.909 236.984 225.616 C238 224 238 224 237.758 221.957 C236.73 219.303 235.231 217.16 233.625 214.812 C226.824 204.304 224.745 193.592 227.066 181.234 C229.027 174.44 232.274 167.293 236.785 161.844 C238 160 238 160 237.771 158.101 C236.861 155.622 235.753 154.394 233.875 152.547 C233.251 151.928 232.627 151.309 231.984 150.672 C231.33 150.038 230.675 149.403 230 148.75 C229.345 148.1 228.69 147.451 228.016 146.781 C222.593 141.448 222.593 141.448 220.18 143.695 Z M309.375 149.25 C309.015 149.591 309.015 149.591 307.195 151.316 C306.52 151.98 305.844 152.644 305.148 153.328 C304.521 153.936 303.894 154.543 303.248 155.169 C302 157 302 157 302.208 159.074 C303.284 161.689 304.78 163.855 306.375 166.188 C313.447 177.115 315.088 187.876 312.863 200.68 C311.152 207.26 308.217 213.453 303.742 218.594 C302 221 302 221 302.194 222.935 C303.146 225.375 304.286 226.63 306.16 228.453 C306.789 229.072 307.417 229.691 308.064 230.328 C308.394 230.645 308.394 230.645 310.062 232.25 C310.394 232.575 310.394 232.575 312.072 234.219 C313.708 235.819 315.351 237.413 317 239 C325.124 235.363 330.673 223.843 334.004 215.855 C340.755 196.502 339.383 177.062 330.812 158.625 C327.445 152.254 323.275 146.912 318 142 C315.104 142 311.347 147.318 309.375 149.25 Z M250.41 177.926 C246.975 182.979 246.103 189.01 247 195 C248.793 200.786 251.299 205.165 256 209 C256.66 209 257.32 209 258 209 C258 254.87 258 300.74 258 348 C252.163 347.977 252.163 347.977 222.625 347.859 C215.233 347.839 207.841 347.82 200.449 347.805 C188.714 347.781 176.979 347.753 165.245 347.698 C156.698 347.658 148.152 347.633 139.605 347.624 C135.081 347.618 130.557 347.606 126.033 347.577 C121.771 347.55 117.51 347.542 113.248 347.548 C111.687 347.546 110.127 347.539 108.566 347.523 C99.371 347.437 92.487 347.666 85.012 353.57 C77.203 362.738 77.548 373.689 77.602 385.156 C77.6 386.71 77.597 388.263 77.593 389.817 C77.588 393.058 77.595 396.299 77.609 399.54 C77.626 403.668 77.616 407.796 77.598 411.925 C77.587 415.129 77.591 418.332 77.599 421.536 C77.601 423.057 77.598 424.578 77.591 426.099 C77.556 435.881 77.767 444.807 83.062 453.312 C91.306 460.855 99.543 461.728 110.367 461.621 C111.806 461.626 113.245 461.632 114.684 461.641 C118.616 461.658 122.547 461.644 126.479 461.624 C130.728 461.609 134.977 461.622 139.225 461.632 C147.539 461.647 155.852 461.634 164.166 461.613 C173.85 461.589 183.534 461.591 193.218 461.593 C210.496 461.597 227.774 461.576 245.052 461.542 C261.814 461.509 278.577 461.495 295.34 461.501 C313.601 461.508 331.863 461.505 350.125 461.486 C351.09 461.485 352.056 461.484 353.051 461.482 C354.99 461.48 356.93 461.478 358.869 461.476 C365.618 461.469 372.368 461.469 379.117 461.47 C387.341 461.471 395.564 461.462 403.788 461.438 C407.983 461.426 412.178 461.419 416.374 461.425 C420.214 461.43 424.055 461.421 427.896 461.402 C429.285 461.397 430.674 461.397 432.062 461.403 C442.19 461.442 448.83 460.55 456.492 453.609 C461.779 447.967 462.121 441.223 462.161 433.874 C462.166 433.176 462.171 432.477 462.176 431.758 C462.191 429.458 462.198 427.159 462.203 424.859 C462.206 424.07 462.209 423.28 462.212 422.467 C462.227 418.287 462.236 414.108 462.24 409.928 C462.246 405.63 462.27 401.332 462.298 397.034 C462.317 393.712 462.322 390.39 462.324 387.068 C462.327 385.485 462.335 383.901 462.348 382.318 C462.509 361.446 462.509 361.446 454.831 353.612 C447.155 346.854 437.746 347.45 428.107 347.546 C426.51 347.547 424.912 347.546 423.315 347.544 C419.002 347.543 414.688 347.566 410.375 347.594 C405.859 347.62 401.342 347.622 396.826 347.627 C388.284 347.639 379.742 347.672 371.2 347.712 C361.471 347.757 351.742 347.779 342.012 347.799 C322.008 347.84 302.004 347.911 282 348 C282.014 330.093 282.056 312.187 282.132 294.28 C282.167 285.966 282.192 277.652 282.196 269.337 C282.199 262.09 282.219 254.844 282.261 247.597 C282.282 243.76 282.294 239.923 282.286 236.086 C282.279 232.473 282.294 228.861 282.328 225.249 C282.34 223.293 282.328 221.336 282.314 219.38 C282.44 209.817 282.44 209.817 285.436 206.794 C286.282 206.202 287.128 205.61 288 205 C292.216 200.16 293.546 194.754 293.375 188.434 C292.281 181.333 288.409 175.416 282.738 171.117 C271.191 163.695 258.443 168.026 250.41 177.926 Z " fill="#000000" transform="translate(0,0)"/>
<path d="M0 0 C4.407 4.659 7.091 9.863 7.5 16.312 C7.237 22.737 4.628 28.474 -0.008 32.93 C-6.737 38.119 -12.603 38.757 -21 38 C-26.901 36.313 -30.528 33.059 -34 28 C-36.928 22.648 -38.015 17.99 -37 12 C-34.622 4.712 -30.848 -0.447 -24 -4 C-15.347 -7.443 -7.192 -5.854 0 0 Z " fill="#000000" transform="translate(150,388)"/>
<path d="M0 0 C3.884 3.14 5.802 5.287 6.375 10.25 C5.881 15.193 4.462 16.538 1 20 C-2.064 21.532 -4.617 21.229 -8 21 C-10.823 19.745 -12.463 18.716 -14.312 16.25 C-15.328 12.926 -15.418 10.463 -15 7 C-11.357 0.932 -7.034 -1.24 0 0 Z " fill="#000000" transform="translate(252,394)"/>
<path d="M0 0 C3.676 1.998 4.774 3.5 6.5 7.312 C7.124 11.914 6.364 14.035 4 18 C1.137 20.465 -0.694 20.956 -4.438 21.5 C-9.167 20.836 -10.657 19.343 -14 16 C-15.771 12.458 -15.029 8.728 -14 5 C-9.672 -0.173 -6.381 -0.912 0 0 Z " fill="#000000" transform="translate(308,394)"/>
<path d="M0 0 C3.399 2.069 5.889 4.113 7 8 C6.807 13.296 5.69 16.198 2 20 C-1.206 21.603 -4.521 21.487 -8 21 C-11.399 18.931 -13.889 16.887 -15 13 C-14.807 7.704 -13.69 4.802 -10 1 C-6.794 -0.603 -3.479 -0.487 0 0 Z " fill="#000000" transform="translate(364,394)"/>
<path d="M0 0 C3.973 2.813 5.772 5.819 6.688 10.562 C5.781 15.094 4.248 16.752 1 20 C-2.202 21.601 -5.526 21.499 -9 21 C-11.81 19.206 -13.509 17.981 -15 15 C-15.421 11.941 -15.485 9.053 -15 6 C-10.897 0.817 -6.673 -1.495 0 0 Z " fill="#000000" transform="translate(421,394)"/>
</svg>
