<?xml version="1.0" encoding="UTF-8"?>
<!-- Generator: visioncortex VTracer 0.6.12 -->
<svg version="1.1" xmlns="http://www.w3.org/2000/svg" width="540" height="540">
<path d="M0 0 C178.2 0 356.4 0 540 0 C540 178.2 540 356.4 540 540 C361.8 540 183.6 540 0 540 C0 361.8 0 183.6 0 0 Z M213 107 C208 116 208 116 208 118 C206.698 117.896 205.396 117.791 204.055 117.684 C190.614 116.914 190.614 116.914 186.648 119.582 C185.101 121.981 184.073 124.354 183 127 C181.73 129.159 180.437 131.304 179.125 133.438 C176 138.734 176 138.734 176 141 C182.27 141.33 188.54 141.66 195 142 C193.845 144.31 193.845 144.31 188 156 C186.525 155.759 185.051 155.518 183.531 155.27 C177.047 154.631 171.047 154.256 165 157 C158.847 163.165 149 177.08 149 186 C156.92 186 164.84 186 173 186 C168 195.875 168 195.875 166.418 198.984 C166.012 199.791 165.606 200.598 165.188 201.43 C164.769 202.257 164.35 203.085 163.918 203.937 C163 206 163 206 163 208 C162.602 207.958 162.602 207.958 160.588 207.746 C138.741 205.741 138.741 205.741 132.854 209.296 C129.491 212.829 127.758 217.138 126.008 221.633 C124.231 225.805 121.714 229.541 119.312 233.375 C117.771 235.889 116.36 238.378 115 241 C115.33 241.66 115.66 242.32 116 243 C125.24 243 134.48 243 144 243 C139.71 251.58 135.42 260.16 131 269 C128.734 268.887 126.468 268.773 124.133 268.656 C101.874 267.904 101.874 267.904 95.665 271.263 C92.204 274.653 90.685 278.927 89.065 283.413 C86.949 288.552 83.792 293.16 80.875 297.875 C79.739 299.763 78.611 301.656 77.492 303.555 C77.011 304.364 76.53 305.173 76.035 306.007 C75 308 75 308 75 310 C86.55 310.33 98.1 310.66 110 311 C104.72 321.23 99.44 331.46 94 342 C91.333 341.701 88.666 341.402 85.918 341.094 C59.87 338.949 59.87 338.949 52.093 344.316 C44.608 351.385 40.646 361.702 36.741 371.027 C34.484 376.344 31.468 381.115 28.312 385.938 C24 392.832 24 392.832 24 394 C38.52 394 53.04 394 68 394 C59.5 410.875 59.5 410.875 56.811 416.199 C56.113 417.588 55.416 418.978 54.719 420.367 C54.352 421.091 53.985 421.815 53.606 422.561 C51 427.772 51 427.772 51 430 C67.5 430 84 430 101 430 C106.635 418.73 106.635 418.73 108.676 413.844 C109.111 412.802 109.546 411.761 109.994 410.688 C110.212 410.162 110.212 410.162 111.312 407.5 C111.54 406.959 111.54 406.959 112.689 404.219 C113.118 403.188 113.547 402.156 113.988 401.094 C114.375 400.162 114.763 399.231 115.161 398.271 C116 396 116 396 116 394 C217.64 394 319.28 394 424 394 C424.495 395.485 424.495 395.485 427 403 C427.861 405.188 428.747 407.366 429.664 409.531 C429.905 410.101 429.905 410.101 431.125 412.984 C431.62 414.145 432.115 415.305 432.625 416.5 C432.876 417.096 432.876 417.096 434.148 420.109 C437.868 428.868 437.868 428.868 439 430 C440.565 430.093 442.135 430.117 443.703 430.114 C444.204 430.113 444.204 430.113 446.737 430.113 C447.825 430.108 448.914 430.103 450.035 430.098 C451.144 430.096 452.252 430.095 453.394 430.093 C456.95 430.088 460.506 430.075 464.062 430.062 C466.467 430.057 468.871 430.053 471.275 430.049 C477.184 430.038 483.092 430.021 489 430 C487.585 425.384 485.705 421.144 483.523 416.852 C483.377 416.56 483.377 416.56 482.636 415.083 C481.553 412.928 480.464 410.777 479.375 408.625 C476.941 403.799 474.507 398.973 472 394 C486.52 394 501.04 394 516 394 C511.232 385.656 506.462 377.327 501.562 369.062 C501.054 368.202 500.545 367.342 500.021 366.455 C498.952 364.648 497.861 362.853 496.75 361.071 C495.398 358.698 494.355 356.509 493.326 354.001 C491.471 349.815 489.646 345.901 486 343 C479.316 340.602 471.884 341.592 464.938 342.062 C463.004 342.138 461.069 342.206 459.135 342.268 C454.416 342.432 449.711 342.69 445 343 C444.733 342.139 444.465 341.279 444.19 340.392 C443.002 337.006 441.578 333.929 439.961 330.727 C439.699 330.206 439.699 330.206 438.376 327.573 C437.716 326.27 437.055 324.967 436.375 323.625 C435.323 321.542 435.323 321.542 430 311 C435.775 310.835 435.775 310.835 465 310 C463.343 305.858 461.482 302.19 459.227 298.379 C459.044 298.068 459.044 298.068 458.12 296.493 C457.351 295.182 456.579 293.872 455.806 292.562 C454.632 290.574 453.464 288.583 452.297 286.592 C451.545 285.312 450.792 284.033 450.039 282.754 C449.694 282.166 449.349 281.579 448.994 280.973 C448.009 279.308 447.005 277.654 446 276 C445.707 275.444 445.707 275.444 444.223 272.628 C442 270 442 270 438.517 269.227 C437.142 269.186 435.766 269.177 434.391 269.195 C433.664 269.182 432.937 269.168 432.188 269.154 C429.875 269.116 427.564 269.12 425.25 269.125 C423.678 269.107 422.107 269.086 420.535 269.062 C416.689 269.006 412.848 269.004 409 269 C404.71 260.42 400.42 251.84 396 243 C405.57 243 415.14 243 425 243 C423.318 238.796 421.412 235.072 419.121 231.203 C418.749 230.569 418.377 229.935 417.993 229.281 C417.211 227.949 416.427 226.618 415.641 225.288 C414.434 223.245 413.233 221.199 412.033 219.152 C411.271 217.857 410.509 216.561 409.746 215.266 C409.386 214.652 409.025 214.039 408.654 213.407 C406.116 209.116 406.116 209.116 405 208 C402.927 207.912 400.852 207.893 398.777 207.902 C397.517 207.906 396.257 207.909 394.959 207.912 C393.618 207.92 392.278 207.929 390.938 207.938 C389.593 207.943 388.249 207.947 386.904 207.951 C383.603 207.963 380.301 207.979 377 208 C376.71 207.094 376.42 206.189 376.122 205.255 C375.23 202.668 374.289 200.343 373.055 197.914 C372.735 197.279 372.415 196.645 372.085 195.991 C371.686 195.21 371.287 194.429 370.875 193.625 C369.596 191.109 368.317 188.593 367 186 C374.92 186 382.84 186 391 186 C382.121 163.802 382.121 163.802 375 157 C367.644 153.936 359.712 154.938 352 156 C349.69 151.38 347.38 146.76 345 142 C351.27 141.67 357.54 141.34 364 141 C362.649 137.622 361.463 134.889 359.652 131.828 C359.212 131.082 358.772 130.335 358.318 129.566 C358.091 129.184 358.091 129.184 356.938 127.25 C356.478 126.47 356.018 125.69 355.545 124.887 C352.145 119.145 352.145 119.145 351 118 C349.587 117.844 348.166 117.749 346.746 117.684 C345.892 117.642 345.038 117.6 344.158 117.557 C343.26 117.517 342.363 117.478 341.438 117.438 C340.536 117.394 339.634 117.351 338.705 117.307 C336.47 117.2 334.235 117.1 332 117 C330.35 113.7 328.7 110.4 327 107 C319.08 107 311.16 107 303 107 C303.66 108.65 303.66 108.65 307 117 C282.58 117 258.16 117 233 117 C234.32 113.7 235.64 110.4 237 107 C229.08 107 221.16 107 213 107 Z " fill="#000000" transform="translate(0,0)"/>
<path d="M0 0 C31.68 0 63.36 0 96 0 C102 14 102 14 102 16 C66.36 16 30.72 16 -6 16 C-4.02 10.72 -2.04 5.44 0 0 Z " fill="#000000" transform="translate(222,141)"/>
<path d="M0 0 C44.22 0 88.44 0 134 0 C142 19 142 19 142 22 C92.5 22 43 22 -8 22 C-5 12 -5 12 0 0 Z " fill="#000000" transform="translate(203,186)"/>
<path d="M0 0 C0.701 0.003 1.403 0.006 2.125 0.009 C2.865 0.008 3.605 0.007 4.368 0.006 C6.866 0.005 9.364 0.01 11.862 0.016 C13.646 0.016 15.429 0.016 17.212 0.015 C22.07 0.015 26.927 0.021 31.784 0.028 C36.854 0.034 41.925 0.035 46.995 0.036 C56.603 0.039 66.212 0.047 75.82 0.057 C86.756 0.068 97.691 0.074 108.627 0.079 C131.129 0.089 153.631 0.107 176.134 0.129 C177.809 4.063 179.472 8.002 181.134 11.942 C181.372 12.501 181.372 12.501 182.579 15.334 C183.03 16.407 183.481 17.48 183.946 18.586 C184.156 19.081 184.156 19.081 185.216 21.585 C186.134 24.129 186.134 24.129 186.134 27.129 C119.474 27.129 52.814 27.129 -15.866 27.129 C-15.102 23.306 -14.341 20.574 -12.835 17.082 C-12.437 16.155 -12.039 15.229 -11.628 14.274 C-11.212 13.318 -10.795 12.363 -10.366 11.379 C-9.95 10.408 -9.534 9.438 -9.105 8.438 C-5.466 0.017 -5.466 0.017 0 0 Z " fill="#000000" transform="translate(184.86641508340836,242.8709186911583)"/>
<path d="M0 0 C78.54 0 157.08 0 238 0 C251 31 251 31 251 33 C163.88 33 76.76 33 -13 33 C-9.261 21.784 -4.547 10.913 0 0 Z " fill="#000000" transform="translate(151,310)"/>
</svg>
