<?xml version="1.0" encoding="UTF-8"?>
<!-- Generator: visioncortex VTracer 0.6.12 -->
<svg version="1.1" xmlns="http://www.w3.org/2000/svg" width="540" height="540">
<path d="M0 0 C178.2 0 356.4 0 540 0 C540 178.2 540 356.4 540 540 C361.8 540 183.6 540 0 540 C0 361.8 0 183.6 0 0 Z " fill="#000000" transform="translate(0,0)"/>
<path d="M0 0 C6.249 5.72 10.394 13.796 11.102 22.246 C11.342 32.653 9.325 41.444 2.609 49.617 C-4.507 56.877 -13.076 60.014 -23.148 60.562 C-32.68 60.239 -41.197 56.516 -48.137 49.961 C-51.196 46.595 -55.137 42.117 -55.137 37.398 C-103.137 38.398 -103.137 38.398 -190.137 125.398 C-98.397 125.398 -6.657 125.398 87.863 125.398 C81.593 119.128 75.323 112.858 68.863 106.398 C66.793 101.222 66.557 99.623 67.863 94.398 C69.687 91.693 70.938 89.861 73.863 88.398 C75.816 88.16 75.816 88.16 78.113 88.086 C78.861 88.049 79.609 88.011 80.379 87.973 C85.83 88.907 89.896 93.183 93.675 96.983 C94.576 97.884 95.476 98.785 96.404 99.713 C97.367 100.686 98.33 101.659 99.293 102.633 C100.293 103.636 101.293 104.64 102.294 105.642 C104.912 108.268 107.525 110.9 110.136 113.533 C112.807 116.225 115.484 118.911 118.16 121.598 C123.4 126.859 128.634 132.127 133.863 137.398 C132.35 140.952 130.275 143.234 127.553 145.952 C126.662 146.846 125.771 147.74 124.853 148.661 C123.879 149.629 122.904 150.596 121.93 151.562 C120.93 152.561 119.932 153.559 118.933 154.558 C116.842 156.647 114.748 158.733 112.651 160.816 C109.965 163.486 107.285 166.161 104.608 168.84 C102.547 170.901 100.483 172.959 98.418 175.016 C97.429 176.002 96.441 176.988 95.453 177.975 C94.072 179.354 92.688 180.729 91.303 182.104 C90.516 182.887 89.73 183.67 88.919 184.476 C84.663 188.455 81.915 188.833 76.309 188.719 C72.832 188.263 71.167 186.991 68.863 184.398 C66.678 180.703 66.42 178.092 67.012 173.887 C68.79 168.69 73.018 165.161 76.863 161.398 C80.163 158.098 83.463 154.798 86.863 151.398 C10.303 151.398 -66.257 151.398 -145.137 151.398 C-131.607 165.733 -118.077 180.067 -104.137 194.836 C-99.959 199.369 -95.781 203.902 -91.477 208.572 C-60.669 240.85 -60.669 240.85 -40.686 241.724 C-32.981 241.709 -25.716 240.793 -18.137 239.398 C-18.137 231.808 -18.137 224.218 -18.137 216.398 C-9.288 216.376 -0.439 216.358 8.41 216.347 C12.518 216.341 16.627 216.334 20.735 216.323 C24.697 216.312 28.658 216.306 32.62 216.304 C34.135 216.302 35.65 216.298 37.164 216.293 C39.279 216.285 41.393 216.284 43.508 216.285 C44.11 216.284 44.11 216.284 47.161 216.278 C49.863 216.398 49.863 216.398 50.863 217.398 C50.957 219.515 50.981 221.635 50.977 223.754 C50.977 224.091 50.977 224.091 50.977 225.797 C50.976 227.988 50.969 230.18 50.961 232.371 C50.959 233.72 50.958 235.07 50.958 236.419 C50.953 241.433 50.939 246.447 50.926 251.461 C50.905 262.66 50.885 273.86 50.863 285.398 C28.093 285.398 5.323 285.398 -18.137 285.398 C-18.137 277.808 -18.137 270.218 -18.137 262.398 C-21.121 263.042 -24.105 263.685 -27.18 264.347 C-41.733 266.759 -58.422 268.262 -71.544 260.342 C-80.251 254.096 -87.471 246.06 -94.629 238.152 C-95.755 236.922 -96.882 235.691 -98.009 234.46 C-107.975 223.523 -117.592 212.285 -127.052 200.908 C-134.205 192.317 -141.538 183.927 -149.191 175.777 C-149.758 175.169 -150.325 174.562 -150.909 173.935 C-167.791 155.993 -182.739 148.145 -207.578 147.303 C-223.49 147.016 -239.377 148.282 -255.137 150.398 C-255.338 151.018 -255.538 151.637 -255.745 152.276 C-256.011 153.088 -256.278 153.899 -256.552 154.736 C-256.683 155.138 -256.683 155.138 -257.348 157.176 C-261.278 168.249 -270.011 175.181 -280.162 180.178 C-290.172 184.92 -303.767 185.371 -314.262 181.773 C-328.586 175.441 -337.229 165.808 -342.949 151.344 C-346.556 139.672 -344.368 126.51 -338.816 115.867 C-337.38 113.575 -335.845 111.494 -334.137 109.398 C-333.861 109.055 -333.861 109.055 -332.465 107.316 C-325.46 99.489 -314.756 93.802 -304.23 93.16 C-288.352 92.772 -277.305 96.109 -265.328 107.051 C-260.95 111.701 -255.137 119.903 -255.137 126.398 C-229.042 129.548 -229.042 129.548 -219.027 122.285 C-212.717 117.126 -207.358 110.914 -202.075 104.736 C-198.803 100.912 -195.392 97.23 -191.951 93.558 C-182.815 83.768 -173.83 73.845 -164.999 63.779 C-157.501 55.236 -149.873 46.837 -141.992 38.645 C-141.41 38.037 -140.829 37.43 -140.229 36.804 C-125.369 21.41 -112.509 11.237 -90.506 10.636 C-78.608 10.558 -66.776 12.009 -55.137 14.398 C-54.847 13.463 -54.557 12.527 -54.259 11.563 C-51.693 4.327 -44.861 -2.015 -38.137 -5.602 C-24.595 -11.076 -11.544 -8.653 0 0 Z " fill="#FFFFFF" transform="translate(383.13671875,131.6015625)"/>
</svg>
