<?xml version="1.0" encoding="UTF-8"?>
<!-- Generator: visioncortex VTracer 0.6.12 -->
<svg version="1.1" xmlns="http://www.w3.org/2000/svg" width="538" height="538">
<path d="M0 0 C177.54 0 355.08 0 538 0 C538 177.54 538 355.08 538 538 C360.46 538 182.92 538 0 538 C0 360.46 0 182.92 0 0 Z M184.172 48.414 C179.724 52.969 178.605 57.797 178 64 C178.146 65.162 178.292 66.323 178.442 67.52 C178.695 72.323 178.583 75.854 176 80 C168.872 86.254 159.502 89.949 150.956 93.911 C147.482 95.539 144.044 97.238 140.602 98.93 C134.079 102.124 127.53 105.259 120.968 108.37 C109.223 113.942 97.532 119.624 85.843 125.312 C81.745 127.304 77.638 129.272 73.52 131.222 C70.954 132.44 68.394 133.671 65.836 134.904 C64.094 135.738 62.344 136.556 60.594 137.372 C53.355 140.88 48.594 144.401 44.625 151.438 C43.347 156.678 43.195 160.422 45.625 165.188 C48.919 169.088 52.053 172.351 57 174 C58.498 174.089 59.999 174.122 61.499 174.12 C61.959 174.121 61.959 174.121 64.291 174.124 C64.795 174.123 64.795 174.123 67.346 174.114 C67.878 174.114 67.878 174.114 70.569 174.114 C74.092 174.113 77.614 174.105 81.137 174.098 C83.576 174.096 86.016 174.094 88.455 174.093 C94.882 174.09 101.308 174.08 107.734 174.069 C114.29 174.058 120.845 174.054 127.4 174.049 C140.267 174.038 153.133 174.021 166 174 C165.967 174.293 165.967 174.293 165.801 175.774 C161.914 210.479 158.03 245.184 154.152 279.889 C153.687 284.056 153.221 288.223 152.755 292.39 C152.663 293.219 152.57 294.049 152.474 294.904 C150.973 308.337 149.469 321.769 147.964 335.202 C146.42 348.984 144.879 362.767 143.34 376.55 C142.391 385.055 141.439 393.56 140.484 402.065 C139.83 407.897 139.178 413.729 138.529 419.561 C138.154 422.926 137.778 426.291 137.399 429.655 C136.988 433.304 136.582 436.954 136.177 440.604 C136.056 441.666 135.936 442.727 135.811 443.82 C135.703 444.803 135.595 445.785 135.484 446.797 C135.437 447.218 135.437 447.218 135.199 449.348 C134.958 452.557 135 455.782 135 459 C116.19 459 97.38 459 78 459 C78 470.55 78 482.1 78 494 C155.88 494 233.76 494 314 494 C314 482.45 314 470.9 314 459 C295.52 459 277.04 459 258 459 C257.742 456.639 257.742 456.639 256.436 444.692 C250.561 391.018 244.603 337.354 238.61 283.693 C237.605 274.696 236.603 265.7 235.6 256.703 C234.617 247.878 233.632 239.054 232.647 230.229 C232.065 225.023 231.485 219.818 230.905 214.612 C230.368 209.787 229.829 204.964 229.289 200.14 C229.092 198.378 228.896 196.616 228.7 194.855 C228.433 192.452 228.164 190.051 227.895 187.649 C227.818 186.956 227.742 186.262 227.663 185.548 C227.225 181.664 226.644 177.863 226 174 C288.04 174 350.08 174 414 174 C414 205.35 414 236.7 414 269 C395.52 269 377.04 269 358 269 C358 298.7 358 328.4 358 359 C402.88 359 447.76 359 494 359 C494 329.3 494 299.6 494 269 C475.52 269 457.04 269 438 269 C438 237.65 438 206.3 438 174 C452.52 174 467.04 174 482 174 C490.533 169.124 490.533 169.124 493 164 C494.551 157.996 494.374 153.392 491.496 147.887 C486.699 141.837 481.841 139.964 474.54 138.278 C473.61 138.049 472.68 137.82 471.721 137.584 C468.656 136.835 465.586 136.109 462.516 135.383 C460.346 134.857 458.177 134.33 456.009 133.802 C450.42 132.444 444.826 131.106 439.231 129.772 C434.294 128.592 429.361 127.395 424.428 126.198 C413.89 123.646 403.345 121.122 392.799 118.604 C384.223 116.554 375.647 114.499 367.072 112.445 C363.704 111.638 360.336 110.832 356.968 110.025 C339.914 105.942 322.864 101.842 305.816 97.734 C304.575 97.435 303.333 97.136 302.053 96.828 C291.077 94.183 280.101 91.539 269.125 88.892 C263.467 87.528 257.808 86.164 252.149 84.801 C250.069 84.299 247.989 83.798 245.909 83.296 C243.056 82.608 240.202 81.92 237.349 81.233 C236.939 81.134 236.939 81.134 234.862 80.632 C232.576 80.082 230.289 79.539 228 79 C227.195 78.808 226.39 78.615 225.561 78.417 C225.166 78.325 225.166 78.325 223.166 77.86 C222.461 77.695 221.757 77.529 221.031 77.359 C219 77 219 77 215 77 C214.981 76.433 214.981 76.433 214.887 73.562 C214.13 54.721 214.13 54.721 207.875 48.625 C200.421 42.909 191.696 42.594 184.172 48.414 Z " fill="#000000" transform="translate(0,0)"/>
<path d="M0 0 C23.451 5.242 46.839 10.716 70.214 16.288 C74.834 17.39 79.455 18.489 84.076 19.588 C93.051 21.723 102.026 23.861 111 26 C111 26.33 111 26.66 111 27 C75.36 27 39.72 27 3 27 C2.01 18.09 1.02 9.18 0 0 Z " fill="#000000" transform="translate(219,113)"/>
<path d="M0 0 C-0.142 2.229 -0.289 4.459 -0.438 6.688 C-0.519 7.929 -0.6 9.17 -0.684 10.449 C-1 14 -1 14 -2 19 C-13.55 19 -25.1 19 -37 19 C-33.34 16.255 -29.714 14.22 -25.645 12.207 C-24.942 11.856 -24.24 11.505 -23.517 11.144 C-22.039 10.406 -20.561 9.671 -19.081 8.938 C-16.808 7.81 -14.537 6.676 -12.268 5.541 C-10.831 4.825 -9.394 4.11 -7.957 3.395 C-7.275 3.054 -6.593 2.713 -5.89 2.363 C-1.116 0 -1.116 0 0 0 Z " fill="#000000" transform="translate(172,121)"/>
<path d="M0 0 C0.33 0 0.66 0 1 0 C1.33 4.29 1.66 8.58 2 13 C0.68 13 -0.64 13 -2 13 C-1.86 11.02 -1.713 9.041 -1.562 7.062 C-1.481 5.96 -1.4 4.858 -1.316 3.723 C-1 1 -1 1 0 0 Z " fill="#000000" transform="translate(196,222)"/>
<path d="M0 0 C2.051 0.033 4.102 0.065 6.152 0.098 C7.435 7.509 8.408 14.57 8.152 22.098 C3.862 22.098 -0.428 22.098 -4.848 22.098 C-3.249 0.172 -3.249 0.172 0 0 Z " fill="#000000" transform="translate(193.84765625,257.90234375)"/>
<path d="M0 0 C29.04 0 58.08 0 88 0 C88 14.52 88 29.04 88 44 C58.96 44 29.92 44 0 44 C0 29.48 0 14.96 0 0 Z " fill="#000000" transform="translate(382,292)"/>
<path d="M0 0 C6.27 0 12.54 0 19 0 C20.444 7.76 21 13.922 21 22 C13.41 22 5.82 22 -2 22 C-1.502 14.608 -0.92 7.356 0 0 Z " fill="#000000" transform="translate(186,303)"/>
<path d="M0 0 C9.57 0 19.14 0 29 0 C29.165 1.268 29.165 1.268 30 7.688 C30.052 8.082 30.052 8.082 30.316 10.081 C30.398 10.718 30.479 11.355 30.562 12.012 C30.646 12.656 30.73 13.3 30.816 13.964 C31.027 16.3 31 18.654 31 21 C19.78 21 8.56 21 -3 21 C-2.01 14.07 -1.02 7.14 0 0 Z " fill="#000000" transform="translate(182,348)"/>
<path d="M0 0 C12.87 0 25.74 0 39 0 C41 16 41 16 41 21 C26.48 21 11.96 21 -3 21 C-2.01 14.07 -1.02 7.14 0 0 Z " fill="#000000" transform="translate(177,393)"/>
<path d="M0 0 C6.96 -0.025 13.92 -0.043 20.88 -0.055 C23.25 -0.06 25.62 -0.067 27.99 -0.075 C31.388 -0.088 34.786 -0.093 38.184 -0.098 C39.25 -0.103 40.317 -0.108 41.416 -0.113 C41.906 -0.113 41.906 -0.113 44.388 -0.114 C45.257 -0.116 46.125 -0.118 47.02 -0.12 C49 0 49 0 50 1 C50.241 2.471 50.417 3.954 50.562 5.438 C50.646 6.241 50.73 7.044 50.816 7.871 C51.073 12.24 51 16.623 51 21 C33.51 21 16.02 21 -2 21 C-1.67 17.535 -1.67 17.535 0 0 Z " fill="#000000" transform="translate(171,438)"/>
</svg>
