<?xml version="1.0" encoding="UTF-8"?>
<!-- Generator: visioncortex VTracer 0.6.12 -->
<svg version="1.1" xmlns="http://www.w3.org/2000/svg" width="538" height="538">
<path d="M0 0 C177.54 0 355.08 0 538 0 C538 177.54 538 355.08 538 538 C360.46 538 182.92 538 0 538 C0 360.46 0 182.92 0 0 Z M256.062 49.438 C252.729 53.579 251.749 56.257 251.773 61.595 C251.773 62.716 251.773 63.836 251.773 64.991 C251.784 66.196 251.794 67.4 251.805 68.641 C251.808 69.878 251.81 71.115 251.813 72.39 C251.823 75.672 251.841 78.953 251.863 82.234 C251.883 85.586 251.892 88.937 251.902 92.289 C251.924 98.859 251.958 105.43 252 112 C251.377 111.953 250.754 111.906 250.112 111.858 C230.153 110.376 210.193 109.381 190.188 108.812 C189.436 108.791 188.685 108.769 187.91 108.746 C120.199 106.833 120.199 106.833 98.365 126.572 C88.145 136.405 79.578 148.243 72.663 160.583 C70.776 163.326 68.677 165.046 66 167 C78.737 193.297 98.281 206.872 122 225 C164.9 225 207.8 225 252 225 C252 313.77 252 402.54 252 494 C263.22 494 274.44 494 286 494 C286 449.45 286 404.9 286 359 C306.357 360.093 326.714 361.186 347.688 362.312 C371.745 362.953 371.745 362.953 383.547 362.512 C384.246 362.486 384.945 362.461 385.665 362.435 C408.918 361.532 427.172 357.282 443.95 340.141 C452.928 330.365 460.851 319.735 467.502 308.253 C469 306 469 306 472 304 C469.854 292.606 459.388 281.461 452.125 272.75 C451.597 272.114 451.069 271.478 450.525 270.823 C435.94 253.641 419.842 244.947 397.38 243.09 C380.984 241.904 364.543 242.121 348.125 242.625 C347.745 242.636 347.745 242.636 345.823 242.694 C325.847 243.304 305.922 244.414 286 246 C286.005 245.028 286.009 244.056 286.014 243.055 C286.125 219.402 286.207 195.749 286.259 172.096 C286.285 160.657 286.32 149.219 286.377 137.78 C286.427 127.81 286.459 117.84 286.47 107.869 C286.477 102.59 286.492 97.312 286.529 92.033 C286.563 87.062 286.573 82.092 286.566 77.121 C286.567 75.299 286.577 73.477 286.596 71.655 C286.768 54.488 286.768 54.488 281 48 C272.681 42.394 263.633 43.155 256.062 49.438 Z " fill="#000000" transform="translate(0,0)"/>
</svg>
