<?xml version="1.0" encoding="UTF-8"?>
<!-- Generator: visioncortex VTracer 0.6.12 -->
<svg version="1.1" xmlns="http://www.w3.org/2000/svg" width="535" height="535">
<path d="M0 0 C176.55 0 353.1 0 535 0 C535 176.55 535 353.1 535 535 C358.45 535 181.9 535 0 535 C0 358.45 0 181.9 0 0 Z M120.406 114.781 C117.91 117.083 115.362 119.32 112.812 121.562 C108.499 125.461 104.683 129.508 101 134 C100.58 134.497 100.16 134.994 99.728 135.505 C91.108 145.715 83.811 156.513 77 168 C76.809 168.319 76.809 168.319 75.844 169.936 C51.244 211.719 43.458 265.606 53 313 C53.172 313.865 53.343 314.731 53.52 315.623 C63.301 363.427 89.552 407.711 128 438 C128.511 438.409 129.022 438.818 129.548 439.239 C137.353 445.486 145.316 451.011 154 456 C154.817 456.483 155.635 456.967 156.477 457.465 C172.267 466.152 191.135 467.474 208.367 462.839 C218.483 459.83 227.103 454.951 235 448 C235.688 447.394 236.377 446.788 237.086 446.164 C250.646 433.435 257.652 415.727 258.344 397.363 C258.402 395.013 258.454 392.663 258.5 390.312 C259.297 361.709 259.297 361.709 263 354 C265.512 352.934 265.512 352.934 268.688 352.438 C290.516 348.23 308.395 338.207 321.381 319.712 C338.249 294.471 343.928 263.389 338.474 233.625 C332.873 206.154 320.724 181.243 307 157 C306.558 156.207 306.116 155.415 305.66 154.598 C304.584 152.678 303.488 150.773 302.375 148.875 C301.805 147.903 301.235 146.931 300.648 145.93 C300.104 145.293 299.56 144.656 299 144 C295 144 295 144 292.103 146.459 C290.98 147.589 289.868 148.73 288.766 149.879 C288.169 150.484 287.572 151.089 286.957 151.712 C285.045 153.653 283.147 155.607 281.25 157.562 C278.759 160.11 276.264 162.651 273.766 165.191 C273.167 165.802 272.568 166.412 271.951 167.04 C267.805 171.243 263.539 175.221 259 179 C258.024 179.857 257.048 180.714 256.043 181.598 C244.275 191.756 231.899 201.18 218.562 209.188 C200.516 220.145 188.037 236.276 182.125 256.75 C177.683 278.613 180.92 300.278 193 319 C199.016 327.48 206.094 336.221 216 340 C216.115 339.576 216.115 339.576 216.699 337.427 C239.478 254.014 239.478 254.014 253 245 C256.188 245.375 256.188 245.375 259 246 C260.598 252.408 259.176 255.681 256.125 261.375 C243.485 286.587 235.962 314.671 229.562 342.062 C229.328 343.065 229.093 344.068 228.851 345.101 C225.733 358.972 224.562 372.791 223.877 386.965 C223.091 400.709 221.123 412.604 210.688 422.312 C202.867 428.555 193.844 430.791 184 430 C160.974 426.711 136.676 401.53 123.125 383.941 C94.154 343.84 78.564 296.308 86.555 246.492 C92.817 211.446 107.362 178.159 132.517 152.519 C134.121 150.876 135.697 149.208 137.273 147.539 C168.454 114.973 212.773 97.378 257.492 95.812 C306.683 94.764 349.848 113.552 386 146 C386.337 146.3 386.337 146.3 388.043 147.82 C419.646 177.697 437.841 224.236 439.203 267.113 C439.573 291.926 436.266 319.467 425 342 C424.01 341.423 423.02 340.845 422 340.25 C406.765 332.74 389.679 331.856 373.527 336.754 C365.399 339.626 358.882 342.921 352.527 348.828 C352.017 349.302 351.507 349.776 350.982 350.264 C344.416 356.413 338.087 362.805 331.75 369.188 C330.504 370.438 329.258 371.689 328.012 372.939 C325.005 375.957 322.002 378.978 319 382 C320.837 386.004 323.491 388.72 326.625 391.75 C326.883 392.003 326.883 392.003 328.188 393.285 C329.454 394.528 330.726 395.765 332 397 C326.959 403.077 321.479 408.529 315.746 413.951 C311.151 418.429 306.347 423.37 305.843 430.09 C306.196 434.812 307.644 437.74 311 441 C313.853 442.699 316.061 443.317 319.375 443.375 C320.105 443.403 320.834 443.432 321.586 443.461 C327.177 442.393 331.308 437.935 335.18 434.016 C336.108 433.081 337.036 432.146 337.992 431.184 C338.953 430.206 339.914 429.228 340.875 428.25 C341.859 427.256 342.843 426.263 343.828 425.27 C346.223 422.851 348.614 420.428 351 418 C354.568 419.514 356.837 421.605 359.547 424.352 C360.391 425.202 361.236 426.053 362.105 426.93 C362.978 427.819 363.851 428.709 364.75 429.625 C365.194 430.074 365.194 430.074 367.441 432.344 C369.632 434.558 371.818 436.777 374 439 C368.507 445.635 362.447 451.587 356.281 457.592 C355.503 458.359 354.724 459.127 353.922 459.918 C353.216 460.607 352.511 461.295 351.784 462.005 C348.359 465.835 347.607 468.849 347.742 474.039 C348.29 478.207 350.842 481.369 354 484 C358.173 485.391 361.651 485.769 366 485 C367.868 483.769 367.868 483.769 369.676 482.09 C370.363 481.455 371.051 480.82 371.759 480.166 C375.887 476.177 379.962 472.141 384 468.062 C384.435 467.625 384.435 467.625 386.637 465.412 C388.76 463.277 390.881 461.14 393 459 C396.954 462.331 400.81 465.684 404.438 469.375 C405.117 470.063 405.796 470.752 406.496 471.461 C406.992 471.969 407.489 472.477 408 473 C414.646 467.421 420.834 461.457 426.997 455.354 C428.24 454.127 429.489 452.905 430.743 451.689 C445.582 437.3 456.801 422.108 457.535 400.744 C457.636 390.195 456.366 380.869 452.18 371.082 C451.882 367.636 453.606 364.846 455.062 361.812 C479.001 309.429 480.156 250.546 460.438 196.625 C449.756 168.694 432.522 144.47 412 123 C411.364 122.323 410.729 121.646 410.074 120.949 C405.128 115.814 399.577 111.426 394 107 C392.987 106.181 391.974 105.363 390.93 104.52 C383.618 98.685 376.007 93.674 367.872 89.062 C366.659 88.374 365.45 87.679 364.245 86.978 C340.701 73.289 313.924 65.44 287 62 C286.275 61.906 285.549 61.811 284.802 61.714 C225.397 54.857 164.358 74.254 120.406 114.781 Z " fill="#000000" transform="translate(0,0)"/>
</svg>
