<?xml version="1.0" encoding="UTF-8"?>
<!-- Generator: visioncortex VTracer 0.6.12 -->
<svg version="1.1" xmlns="http://www.w3.org/2000/svg" width="535" height="535">
<path d="M0 0 C176.55 0 353.1 0 535 0 C535 176.55 535 353.1 535 535 C358.45 535 181.9 535 0 535 C0 358.45 0 181.9 0 0 Z M126.406 108.781 C123.91 111.083 121.362 113.32 118.812 115.562 C114.5 119.452 110.71 123.543 107 128 C106.264 128.837 105.528 129.673 104.77 130.535 C68.4 172.571 51.563 228.585 55.462 283.691 C58.572 321.6 70.928 357.9 93 389 C93.388 389.554 93.775 390.109 94.174 390.68 C99.118 397.709 104.629 404.063 110.5 410.312 C112.473 412.434 114.35 414.576 116.188 416.812 C119.435 420.637 123.173 423.771 127 427 C127.949 427.837 128.897 428.673 129.875 429.535 C161.625 457.367 203.139 474.506 245 479 C246.002 479.111 247.003 479.222 248.035 479.336 C286.004 482.888 326.136 476.444 360.18 458.936 C362.152 457.922 364.139 456.936 366.125 455.949 C384.066 446.886 399.549 435.094 414.25 421.438 C414.581 421.131 414.581 421.131 416.256 419.579 C420.81 415.292 424.945 410.758 429 406 C429.82 405.073 430.64 404.146 431.484 403.191 C466.999 361.982 483.134 305.881 479.727 252.082 C476.073 205.411 457.508 161.404 426.344 126.512 C425.13 125.146 423.937 123.762 422.746 122.375 C419.191 118.257 415.533 114.504 411.371 111 C409.523 109.441 407.712 107.86 405.91 106.25 C335.962 44.229 225.758 38.022 126.406 108.781 Z " fill="#000000" transform="translate(0,0)"/>
<path d="M0 0 C0.767 -0.01 1.535 -0.02 2.325 -0.03 C31.544 -0.326 58.909 2.909 85.75 15.238 C78.524 22.946 69.019 32.476 57.955 33.048 C48.34 33.06 42.23 30.455 34.02 25.637 C19.113 16.961 3.749 14.461 -13.03 18.627 C-26.558 22.352 -42.711 27.558 -52.25 38.238 C-52.875 40.801 -52.875 40.801 -52.25 43.238 C-47.839 47.779 -42.893 49.307 -36.684 49.504 C-35.018 49.509 -33.353 49.504 -31.688 49.488 C-30.85 49.496 -30.013 49.504 -29.15 49.512 C-24.807 49.498 -21.102 49.476 -17.25 47.238 C-15.625 45.504 -15.625 45.504 -14.25 43.488 C-13.995 43.135 -13.995 43.135 -12.703 41.348 C-11.807 40.046 -10.936 38.726 -10.109 37.379 C-9 35.738 -9 35.738 -6.25 33.238 C-2.858 32.747 0.349 32.882 3.75 33.238 C-9.933 57.653 -9.933 57.653 -17.107 59.792 C-19.43 60.276 -21.546 60.365 -23.918 60.379 C-24.812 60.398 -25.706 60.418 -26.627 60.438 C-28.481 60.471 -30.335 60.49 -32.189 60.492 C-40.483 60.718 -46.283 63.499 -52.438 68.988 C-56.799 72.296 -61.962 71.941 -67.238 72.098 C-70.25 72.238 -70.25 72.238 -72.25 73.238 C-72.848 75.891 -72.848 75.891 -73.312 79.176 C-74.161 85.061 -74.161 85.061 -75.25 87.238 C-78.051 87.836 -78.051 87.836 -81.562 88.301 C-83.793 88.603 -86.022 88.915 -88.25 89.238 C-88.628 89.289 -88.628 89.289 -90.543 89.547 C-92.978 90.533 -93.239 91.858 -94.25 94.238 C-94.748 94.973 -95.245 95.708 -95.758 96.465 C-99.864 102.555 -101.09 106.931 -100.25 114.238 C-95.376 116.787 -90.61 116.57 -85.25 116.551 C-84.361 116.567 -83.471 116.583 -82.555 116.6 C-75.07 116.605 -71.758 114.807 -66.473 109.551 C-64.376 107.393 -62.296 105.221 -60.221 103.043 C-55.664 98.361 -51.813 94.657 -45.062 93.863 C-41.822 94.295 -41.251 94.764 -39.25 97.238 C-38.482 99.215 -38.482 99.215 -37.934 101.434 C-37.727 102.232 -37.52 103.029 -37.307 103.852 C-37.102 104.68 -36.898 105.509 -36.688 106.363 C-36.277 108.014 -35.859 109.662 -35.434 111.309 C-35.254 112.038 -35.074 112.768 -34.888 113.52 C-34.25 115.238 -34.25 115.238 -32.25 116.238 C-29.917 116.279 -27.583 116.281 -25.25 116.238 C-22.69 111.099 -22.923 106.089 -22.947 100.477 C-22.828 96.142 -22.616 94.675 -19.707 91.207 C-18.896 90.557 -18.085 89.908 -17.25 89.238 C-16.901 90.237 -16.551 91.236 -16.191 92.266 C-15.732 93.569 -15.272 94.872 -14.812 96.176 C-14.697 96.505 -14.697 96.505 -14.115 98.174 C-12.363 103.125 -12.363 103.125 -11.25 104.238 C-1.58 105.228 -1.58 105.228 2.438 102.238 C2.819 101.908 2.819 101.908 4.75 100.238 C7.703 99.628 9.67 99.841 12.75 100.238 C15.623 103.118 16.175 105.5 16.438 109.488 C16.503 110.38 16.569 111.272 16.637 112.191 C16.655 112.529 16.655 112.529 16.75 114.238 C20.367 115.873 23.31 116.52 27.27 116.652 C28.291 116.691 29.313 116.73 30.365 116.77 C31.42 116.8 32.475 116.831 33.562 116.863 C34.637 116.902 35.711 116.941 36.818 116.98 C39.462 117.074 42.106 117.16 44.75 117.238 C46.809 121.936 46.809 121.936 46.281 124.66 C45.941 125.428 45.601 126.197 45.25 126.988 C44.93 127.767 44.611 128.545 44.281 129.348 C42.75 131.238 42.75 131.238 40.324 132.129 C34.078 132.32 28.06 130.834 21.955 129.621 C10.616 127.529 0.866 129.275 -10.258 131.715 C-18.573 133.098 -25.986 130.575 -33.75 127.801 C-54.148 120.6 -74.205 120.342 -94.418 128.859 C-107.651 135.302 -115.428 144.189 -120.254 158.141 C-124.967 174.376 -125.173 192.422 -117.012 207.539 C-112.49 214.467 -106.146 218.881 -98.25 221.238 C-93.012 221.896 -87.771 222.08 -82.5 222.238 C-67.847 222.683 -54.319 224 -43.574 234.945 C-33.237 247.13 -34.68 263.349 -34.688 278.301 C-34.65 311.602 -34.65 311.602 -24.25 323.238 C-22.835 324.903 -21.43 326.577 -20.025 328.25 C-18.625 329.914 -17.214 331.569 -15.801 333.223 C-13.25 336.238 -13.25 336.238 -11.355 338.941 C-7.272 343.396 -2.881 344.357 2.93 344.742 C4.828 344.778 6.726 344.797 8.625 344.801 C9.567 344.838 10.51 344.874 11.48 344.912 C18.854 344.958 23.13 342.91 28.75 338.238 C29.03 338.009 29.03 338.009 30.445 336.846 C38.564 329.796 43.994 321.856 48.75 312.238 C49.138 311.469 49.527 310.7 49.927 309.908 C51.178 307.422 52.406 304.927 53.625 302.426 C54.007 301.65 54.389 300.874 54.782 300.074 C60.146 288.742 60.091 277.757 59.98 265.447 C59.965 263.271 59.988 261.098 60.016 258.922 C60.014 258.28 60.014 258.28 60.009 255.033 C61.537 247.208 67.851 241.862 73.426 236.508 C74.678 235.281 75.93 234.054 77.182 232.826 C79.131 230.927 81.084 229.03 83.041 227.139 C84.949 225.291 86.844 223.432 88.738 221.57 C89.327 221.009 89.915 220.447 90.522 219.869 C92.885 217.535 94.601 215.643 95.756 212.502 C95.75 210.238 95.75 210.238 93.668 207.691 C90.866 205.336 88.031 203.129 85.062 200.988 C79.293 196.714 73.961 192.172 68.75 187.238 C67.854 186.407 66.958 185.575 66.035 184.719 C56.834 175.905 45.684 163.583 41.75 151.238 C42.297 148.555 42.297 148.555 43.75 146.238 C46.375 144.926 46.375 144.926 48.75 144.238 C54.287 150.707 59.607 157.28 64.688 164.113 C72.777 174.968 72.777 174.968 76.688 180.051 C77.124 180.631 77.56 181.212 78.01 181.81 C81.018 185.69 83.862 188.693 88.82 189.629 C96.641 189.094 101.164 184.318 106.75 179.238 C107.232 178.844 107.232 178.844 109.672 176.852 C110.585 176.092 111.497 175.333 112.438 174.551 C113.266 173.866 114.095 173.182 114.949 172.477 C116.75 170.238 116.75 170.238 117.258 167.152 C116.75 164.238 116.75 164.238 115.168 162.586 C114.432 162.162 113.696 161.738 112.938 161.301 C112.127 160.81 111.316 160.319 110.48 159.812 C109.579 159.293 108.678 158.774 107.75 158.238 C105.742 157.043 103.742 155.835 101.75 154.613 C100.822 154.064 99.894 153.515 98.938 152.949 C96.75 151.238 96.75 151.238 95.863 149.195 C95.686 146.14 96.903 144.595 98.75 142.238 C100.537 141.411 100.537 141.411 102.75 141.238 C105.217 142.394 105.217 142.394 107.969 144.168 C108.985 144.798 110 145.429 111.047 146.078 C113.157 147.419 115.261 148.767 117.359 150.125 C123.745 154.064 128.514 156.027 136.076 155.977 C139.349 156.297 141.115 157.304 143.75 159.238 C145.161 161.46 146.278 163.496 147.375 165.863 C147.703 166.54 148.03 167.216 148.368 167.913 C150.542 172.467 152.564 177.084 154.57 181.715 C155.055 182.833 155.541 183.951 156.041 185.103 C157.002 187.333 157.953 189.568 158.893 191.807 C159.114 192.324 159.114 192.324 160.234 194.941 C160.623 195.866 161.012 196.791 161.413 197.743 C163.217 201.11 165.314 203.52 168.75 205.238 C176.054 205.47 176.054 205.47 179.75 204.238 C181.914 199.797 181.806 195.902 181.672 191.104 C181.457 179.069 181.457 179.069 185.41 174.707 C192.606 168.238 192.606 168.238 196.75 168.238 C197.796 172.543 197.926 176.747 197.953 181.152 C197.96 181.915 197.967 182.678 197.975 183.464 C198.204 215.525 198.204 215.525 194.75 229.238 C194.541 230.077 194.331 230.915 194.116 231.779 C192.521 237.995 190.71 244.128 188.75 250.238 C188.525 250.945 188.299 251.653 188.067 252.381 C182.282 270.106 173.112 286.515 161.75 301.238 C161.17 302.028 160.59 302.819 159.992 303.633 C155.161 310.109 149.632 315.963 144.085 321.824 C143.019 322.954 141.964 324.094 140.914 325.238 C109.381 358.532 61.53 376.317 16.432 378.164 C-33.775 379.426 -81.798 361.589 -118.289 327.066 C-118.778 326.599 -119.267 326.132 -119.771 325.65 C-120.752 324.714 -121.738 323.783 -122.729 322.857 C-135.368 311.044 -145.713 297.265 -154.25 282.238 C-154.904 281.117 -155.557 279.995 -156.23 278.84 C-163.748 265.613 -169.096 251.28 -173.062 236.613 C-173.245 235.948 -173.428 235.282 -173.616 234.597 C-177.429 219.555 -178.807 204.462 -178.688 188.988 C-178.684 188.142 -178.681 187.297 -178.678 186.425 C-178.606 172.696 -177.624 159.595 -174.25 146.238 C-174.036 145.356 -173.821 144.474 -173.601 143.565 C-164.91 108.463 -146.636 78.748 -121.25 53.238 C-120.719 52.704 -120.189 52.169 -119.642 51.618 C-106.642 38.687 -91.488 28.646 -75.25 20.238 C-74.591 19.893 -73.932 19.548 -73.253 19.192 C-51.009 7.687 -25.143 0.267 0 0 Z M-95.062 52.551 C-95.853 53.289 -96.643 54.028 -97.457 54.789 C-99.25 57.238 -99.25 57.238 -99.723 60.281 C-99.172 63.725 -98.336 64.828 -95.875 67.238 C-92.858 70.407 -91.231 72.878 -90.25 77.238 C-88.813 77.32 -87.376 77.378 -85.938 77.426 C-85.137 77.461 -84.336 77.495 -83.512 77.531 C-81.25 77.238 -81.25 77.238 -79.469 75.988 C-77.964 73.827 -77.934 72.656 -78.062 70.051 C-78.124 68.793 -78.186 67.535 -78.25 66.238 C-76.6 66.238 -74.95 66.238 -73.25 66.238 C-72.389 54.419 -72.389 54.419 -75.438 50.676 C-83.762 43.461 -87.394 45.187 -95.062 52.551 Z " fill="#000000" transform="translate(257.25,78.76171875)"/>
</svg>
