<?xml version="1.0" encoding="UTF-8"?>
<!-- Generator: visioncortex VTracer 0.6.12 -->
<svg version="1.1" xmlns="http://www.w3.org/2000/svg" width="535" height="535">
<path d="M0 0 C176.55 0 353.1 0 535 0 C535 176.55 535 353.1 535 535 C358.45 535 181.9 535 0 535 C0 358.45 0 181.9 0 0 Z M48 87 C45.152 91.984 43.877 96.044 43.869 101.746 C43.865 102.703 43.861 103.66 43.857 104.646 C43.858 105.694 43.859 106.742 43.86 107.823 C43.857 108.939 43.854 110.054 43.851 111.204 C43.842 114.957 43.84 118.71 43.839 122.464 C43.834 125.149 43.829 127.835 43.824 130.52 C43.81 137.826 43.804 145.132 43.8 152.438 C43.797 157.001 43.793 161.564 43.788 166.127 C43.776 178.764 43.766 191.401 43.762 204.038 C43.762 204.846 43.762 205.655 43.762 206.488 C43.762 207.299 43.761 208.11 43.761 208.945 C43.761 210.588 43.76 212.23 43.76 213.873 C43.76 214.688 43.759 215.502 43.759 216.342 C43.755 229.54 43.738 242.739 43.714 255.937 C43.691 269.492 43.678 283.046 43.677 296.601 C43.676 304.21 43.67 311.818 43.652 319.427 C43.637 325.907 43.632 332.387 43.64 338.867 C43.644 342.171 43.641 345.476 43.629 348.78 C43.616 352.368 43.622 355.955 43.633 359.543 C43.628 360.061 43.628 360.061 43.608 362.685 C43.659 370.159 44.449 376.898 49.312 382.812 C59.553 391.148 68.641 391.292 81.32 391.227 C82.868 391.226 84.416 391.227 85.964 391.228 C90.148 391.229 94.331 391.217 98.514 391.203 C102.893 391.19 107.272 391.189 111.651 391.187 C119.934 391.181 128.218 391.164 136.501 391.144 C145.935 391.122 155.369 391.111 164.804 391.101 C184.202 391.08 203.601 391.043 223 391 C223 401.56 223 412.12 223 423 C204.52 423 186.04 423 167 423 C167 434.22 167 445.44 167 457 C233.33 457 299.66 457 368 457 C368 445.78 368 434.56 368 423 C349.85 423 331.7 423 313 423 C313 412.44 313 401.88 313 391 C317.679 391.01 322.357 391.021 327.177 391.032 C342.636 391.065 358.095 391.087 373.553 391.104 C382.926 391.114 392.298 391.128 401.671 391.151 C409.842 391.171 418.013 391.184 426.184 391.188 C430.509 391.191 434.833 391.197 439.158 391.211 C443.233 391.225 447.308 391.229 451.383 391.226 C452.874 391.227 454.366 391.231 455.857 391.238 C476.144 391.338 476.144 391.338 484.273 384.715 C488.425 380.592 490.795 375.598 491.129 369.744 C491.131 368.912 491.132 368.08 491.134 367.223 C491.136 366.741 491.136 366.741 491.148 364.302 C491.148 363.246 491.147 362.19 491.147 361.102 C491.149 360.539 491.149 360.539 491.158 357.695 C491.169 353.914 491.173 350.134 491.177 346.353 C491.183 343.648 491.19 340.942 491.197 338.237 C491.217 330.11 491.227 321.982 491.236 313.855 C491.24 310.026 491.245 306.197 491.251 302.369 C491.268 289.639 491.282 276.91 491.289 264.18 C491.291 260.878 491.293 257.575 491.295 254.273 C491.296 253.452 491.296 252.631 491.297 251.785 C491.305 238.49 491.33 225.195 491.363 211.9 C491.396 198.245 491.414 184.591 491.417 170.937 C491.419 163.273 491.428 155.608 491.453 147.943 C491.475 141.416 491.483 134.888 491.474 128.361 C491.469 125.032 491.473 121.703 491.49 118.375 C491.508 114.761 491.501 111.147 491.488 107.533 C491.499 106.488 491.51 105.443 491.521 104.367 C491.454 96.797 489.984 90.553 485.035 84.66 C484.384 84.133 483.733 83.606 483.062 83.062 C482.414 82.517 481.766 81.972 481.098 81.41 C476.445 78.282 472.52 77.749 466.957 77.743 C466.607 77.741 466.607 77.741 464.834 77.732 C462.48 77.723 460.127 77.728 457.773 77.733 C456.071 77.729 454.369 77.724 452.667 77.719 C447.985 77.707 443.303 77.707 438.621 77.709 C433.573 77.71 428.525 77.699 423.477 77.689 C413.586 77.672 403.694 77.667 393.803 77.666 C385.764 77.665 377.725 77.661 369.686 77.654 C346.902 77.637 324.117 77.628 301.333 77.629 C300.104 77.629 298.876 77.629 297.61 77.629 C296.379 77.629 295.149 77.63 293.882 77.63 C273.941 77.63 254.001 77.611 234.061 77.583 C213.594 77.554 193.127 77.541 172.66 77.542 C161.166 77.543 149.673 77.537 138.179 77.516 C128.393 77.498 118.608 77.493 108.822 77.507 C103.829 77.514 98.836 77.514 93.842 77.496 C89.271 77.481 84.7 77.483 80.128 77.501 C78.475 77.504 76.821 77.5 75.168 77.489 C63.99 77.419 55.637 77.836 48 87 Z " fill="#000000" transform="translate(0,0)"/>
<path d="M0 0 C124.74 0 249.48 0 378 0 C378 80.52 378 161.04 378 244 C253.26 244 128.52 244 0 244 C0 163.48 0 82.96 0 0 Z M169.977 30.484 C162.731 39.706 155 53.093 155 65 C154.154 64.795 153.309 64.59 152.438 64.379 C137.442 60.817 120.19 57.688 105.805 65.137 C101.532 67.97 99.109 71.077 97.312 75.812 C95.652 87.435 99.764 97.329 106 107 C108.864 110.789 111.896 114.406 115 118 C116.023 119.227 117.045 120.456 118.062 121.688 C118.382 122.069 118.382 122.069 120 124 C119.196 124.887 118.391 125.774 117.562 126.688 C108.618 137.197 97.308 151.468 98 166 C98.582 172.334 101.116 176.914 106 181 C120.889 189.79 138.93 185.716 155 183 C155.109 183.559 155.218 184.118 155.33 184.694 C158.335 199.244 165.251 215.147 177.875 223.75 C183.209 226.529 188.105 227.277 194 226 C206.659 220.428 212.828 208.06 218 196 C219.491 192.039 220.829 188.067 222 184 C223.375 184.144 224.75 184.29 226.125 184.438 C226.891 184.519 227.656 184.6 228.445 184.684 C231 185 231 185 233.605 185.516 C246.146 187.305 262.315 188.496 272.906 180.574 C277.563 176.324 279.066 172.493 279.375 166.375 C278.978 150.584 267.972 137.316 258 126 C259.592 122.274 261.953 119.645 264.625 116.625 C273.568 106.145 281.65 93.566 281.062 79.25 C280.081 73.497 276.868 69.153 272.246 65.684 C259.373 58.401 242.06 60.617 228.199 63.598 C226 64 226 64 222 64 C221.636 62.9 221.273 61.801 220.898 60.668 C216.149 46.573 210.632 31.908 197.5 23.438 C186.449 18.899 178.001 21.852 169.977 30.484 Z " fill="#000000" transform="translate(79,112)"/>
<path d="M0 0 C6.757 5.037 10.477 13.135 13.824 20.656 C14.119 21.317 14.413 21.978 14.717 22.659 C16.515 26.924 17.415 30.801 17.887 35.406 C-2.243 45.651 -2.243 45.651 -10.215 43.551 C-13.804 42.197 -17.129 40.461 -20.395 38.455 C-22.884 36.936 -25.494 35.682 -28.113 34.406 C-24.648 21.769 -20.352 9.205 -10.113 0.406 C-6.263 -1.543 -4.013 -2.019 0 0 Z " fill="#000000" transform="translate(272.11328125,145.59375)"/>
<path d="M0 0 C0.469 -0.004 0.469 -0.004 2.844 -0.023 C19.021 0.021 19.021 0.021 22.25 3.25 C22.183 5.534 21.88 7.764 21.594 10.031 C21.25 13.25 21.25 13.25 21.156 17.156 C20.922 22.935 20.731 27.619 16.66 32.102 C13.612 34.355 10.511 36.322 7.25 38.25 C5.975 39.239 4.717 40.253 3.5 41.312 C2.757 41.952 2.015 42.591 1.25 43.25 C-8.187 39.179 -14.096 27.957 -18.75 19.25 C-20.325 15.058 -21.324 11.744 -20.75 7.25 C-18.923 4.158 -17.553 2.615 -14.273 1.125 C-9.476 -0.066 -4.924 -0.04 0 0 Z " fill="#000000" transform="translate(207.75,184.75)"/>
<path d="M0 0 C0.469 -0.007 0.469 -0.007 2.844 -0.041 C9.336 0.001 14.821 0.571 19.625 5.375 C21.334 14.774 16.549 22.567 11.41 30.031 C7.527 35.13 3.155 39.845 -1.375 44.375 C-1.804 44.007 -1.804 44.007 -3.973 42.145 C-5.127 41.159 -6.282 40.173 -7.438 39.188 C-7.999 38.705 -8.56 38.222 -9.139 37.725 C-9.703 37.244 -10.267 36.764 -10.848 36.27 C-11.135 36.024 -11.135 36.024 -12.586 34.78 C-14.375 33.375 -14.375 33.375 -16.302 32.248 C-19.18 30.552 -20.992 29.381 -22.207 26.191 C-22.736 23.582 -23.061 21.024 -23.312 18.375 C-23.424 17.486 -23.536 16.596 -23.65 15.68 C-24.146 11.552 -24.423 7.535 -24.375 3.375 C-16.215 0.788 -8.515 0.051 0 0 Z " fill="#000000" transform="translate(328.375,184.625)"/>
<path d="M0 0 C1.604 0.479 3.208 0.958 4.812 1.438 C5.259 1.571 5.259 1.571 7.52 2.246 C9.355 2.804 11.18 3.393 13 4 C13 4.66 13 5.32 13 6 C8.38 8.64 3.76 11.28 -1 14 C-1.986 10.055 -1.917 8.568 -1.062 4.75 C-0.868 3.858 -0.673 2.966 -0.473 2.047 C-0.317 1.371 -0.161 0.696 0 0 Z " fill="#000000" transform="translate(241,191)"/>
<path d="M0 0 C2.125 7.5 2.125 7.5 1 12 C-3.29 9.69 -7.58 7.38 -12 5 C-10.717 2.435 -9.772 2.335 -7.125 1.375 C-6.426 1.115 -5.728 0.854 -5.008 0.586 C-3 0 -3 0 0 0 Z " fill="#000000" transform="translate(293,192)"/>
<path d="M0 0 C4.359 2.12 8.549 4.458 12.727 6.914 C13.564 7.396 14.401 7.878 15.264 8.375 C19.908 11.082 19.908 11.082 22.164 12.539 C23.056 13.098 23.948 13.657 24.867 14.233 C27.918 17.296 28.135 20.032 28.355 24.164 C28.403 24.904 28.451 25.644 28.501 26.406 C28.624 28.785 28.687 31.157 28.727 33.539 C28.744 34.34 28.761 35.14 28.778 35.965 C28.878 48.996 28.878 48.996 25.308 54.292 C20.727 58.386 15.458 60.696 9.68 62.644 C7.226 63.517 5.094 64.595 2.82 65.855 C0.486 67.035 -0.639 67.536 -3.289 67.582 C-7.228 65.969 -10.889 63.955 -14.586 61.852 C-15.346 61.429 -16.107 61.007 -16.891 60.572 C-18.438 59.703 -19.972 58.809 -21.492 57.892 C-23.836 56.539 -23.836 56.539 -26.367 55.44 C-29.156 54.056 -30.847 52.951 -32.836 50.539 C-34.345 45.116 -34.435 39.889 -34.336 34.289 C-34.333 33.536 -34.329 32.783 -34.326 32.008 C-34.148 17.972 -34.148 17.972 -29.988 13.426 C-26.937 11.079 -23.602 9.662 -19.992 8.376 C-17.729 7.497 -15.784 6.413 -13.711 5.152 C-4.043 -0.657 -4.043 -0.657 0 0 Z M-15.086 22.914 C-18.447 27.956 -19.229 31.356 -18.375 37.324 C-17.297 41.754 -15.057 44.582 -11.523 47.352 C-5.587 49.975 -0.894 49.841 5.078 47.629 C9.343 45.401 11.645 42.095 13.164 37.539 C13.532 31.923 13.38 28.362 10.164 23.539 C6.232 19.564 3.019 17.661 -2.648 17.289 C-7.958 17.377 -11.414 19.039 -15.086 22.914 Z " fill="#000000" transform="translate(269.8359375,202.4609375)"/>
<path d="M0 0 C8.17 5.893 8.17 5.893 11 10 C9.547 11.339 8.088 12.671 6.625 14 C6.219 14.371 6.219 14.371 4.164 16.25 C2 18 2 18 0 18 C0 12.06 0 6.12 0 0 Z " fill="#000000" transform="translate(308,227)"/>
<path d="M0 0 C0 4.95 0 9.9 0 15 C-7.2 10.2 -7.2 10.2 -9 8 C-9 7.34 -9 6.68 -9 6 C-7.285 4.492 -7.285 4.492 -5.062 2.875 C-4.332 2.336 -3.601 1.797 -2.848 1.242 C-1 0 -1 0 0 0 Z " fill="#000000" transform="translate(226,229)"/>
<path d="M0 0 C1.861 1.359 3.693 2.738 5.504 4.164 C8 6 8 6 10.84 7.523 C15.512 10.396 18.258 12.591 19.878 17.854 C21.46 25.16 22.334 32.559 23 40 C9.824 43.18 -4.183 45.746 -17 40 C-19.386 37.614 -19.372 36.908 -19.5 33.625 C-19.275 23.248 -12.485 14.602 -6 7 C-5.413 6.304 -4.827 5.608 -4.223 4.891 C-2.828 3.25 -1.416 1.623 0 0 Z " fill="#000000" transform="translate(208,244)"/>
<path d="M0 0 C9.344 9.061 18.79 19.148 20.438 32.562 C20 36 20 36 17.875 38.812 C12.652 42.786 7.478 43.36 1.062 43.312 C0.33 43.311 -0.403 43.31 -1.158 43.309 C-8.661 43.18 -15.724 41.779 -23 40 C-22.689 37.312 -22.376 34.625 -22.062 31.938 C-21.975 31.185 -21.888 30.433 -21.799 29.658 C-21.623 28.155 -21.439 26.653 -21.246 25.152 C-21.022 23.195 -20.913 21.225 -20.816 19.258 C-19.734 14.938 -17.4 13.319 -13.875 10.938 C-12.69 10.086 -11.507 9.233 -10.324 8.379 C-9.752 7.974 -9.18 7.57 -8.591 7.153 C-5.562 4.958 -2.8 2.475 0 0 Z " fill="#000000" transform="translate(327,244)"/>
<path d="M0 0 C11.25 6.027 11.25 6.027 15 9 C13.585 9.65 12.168 10.295 10.75 10.938 C9.961 11.297 9.172 11.657 8.359 12.027 C6 13 6 13 2 14 C1.34 9.38 0.68 4.76 0 0 Z " fill="#000000" transform="translate(239,267)"/>
<path d="M0 0 C-0.66 3.63 -1.32 7.26 -2 11 C-10.75 9.125 -10.75 9.125 -13 8 C-13 7.34 -13 6.68 -13 6 C-11.211 4.995 -9.419 3.996 -7.625 3 C-6.627 2.443 -5.63 1.886 -4.602 1.312 C-2 0 -2 0 0 0 Z " fill="#000000" transform="translate(295,269)"/>
<path d="M0 0 C0.723 0.257 1.446 0.513 2.191 0.777 C4.04 1.467 5.838 2.288 7.625 3.125 C9.804 9.662 4.071 19.454 1.25 25.5 C-1.818 31.384 -5.838 36.434 -11.375 40.125 C-14.566 40.793 -16.517 40.642 -19.332 38.945 C-28.944 31.263 -35.348 17.113 -37.375 5.125 C-34.481 3.912 -31.585 2.704 -28.684 1.508 C-26.643 0.655 -24.612 -0.221 -22.598 -1.133 C-21.761 -1.501 -20.924 -1.87 -20.062 -2.25 C-19.324 -2.588 -18.585 -2.925 -17.824 -3.273 C-11.719 -4.773 -5.672 -2.141 0 0 Z " fill="#000000" transform="translate(281.375,286.875)"/>
</svg>
