<?xml version="1.0" encoding="UTF-8"?>
<!-- Generator: visioncortex VTracer 0.6.12 -->
<svg version="1.1" xmlns="http://www.w3.org/2000/svg" width="535" height="535">
<path d="M0 0 C176.55 0 353.1 0 535 0 C535 176.55 535 353.1 535 535 C358.45 535 181.9 535 0 535 C0 358.45 0 181.9 0 0 Z M411.5 75.188 C410.773 75.898 410.046 76.609 409.297 77.342 C408.611 78.027 407.925 78.712 407.219 79.418 C406.599 80.034 405.98 80.651 405.342 81.286 C404 83 404 83 404 86 C404.66 86 405.32 86 406 86 C406 86.66 406 87.32 406 88 C406.66 88 407.32 88 408 88 C408 88.66 408 89.32 408 90 C408.66 90 409.32 90 410 90 C410 90.66 410 91.32 410 92 C410.66 92 411.32 92 412 92 C412 92.66 412 93.32 412 94 C412.66 94 413.32 94 414 94 C414 94.66 414 95.32 414 96 C414.66 96 415.32 96 416 96 C416.33 96.99 416.66 97.98 417 99 C417.66 99 418.32 99 419 99 C419.131 99.293 419.131 99.293 419.792 100.775 C421.072 103.132 422.447 104.705 424.336 106.602 C424.988 107.256 425.64 107.911 426.312 108.586 C426.653 108.922 426.653 108.922 428.375 110.625 C429.048 111.306 429.721 111.986 430.414 112.688 C431.069 113.34 431.724 113.992 432.398 114.664 C432.696 114.96 432.696 114.96 434.201 116.459 C436.04 118.034 437.796 119.017 440 120 C442.961 117.089 445.914 114.171 448.862 111.248 C449.865 110.255 450.87 109.263 451.877 108.274 C453.326 106.849 454.769 105.417 456.211 103.984 C457.08 103.126 457.95 102.267 458.845 101.382 C461.757 98.163 462.842 96.025 463.5 91.75 C462.4 83.502 454.631 77.317 448.938 71.688 C448.243 70.986 447.549 70.284 446.834 69.561 C438.63 61.388 438.63 61.388 432.188 60.438 C423.833 60.789 417.016 69.646 411.5 75.188 Z M49.215 90.938 C43.003 98.563 38.887 108.516 38.863 118.373 C38.858 119.469 38.853 120.566 38.848 121.696 C38.847 122.9 38.847 124.104 38.846 125.345 C38.842 126.625 38.837 127.905 38.833 129.224 C38.821 132.779 38.815 136.335 38.811 139.89 C38.805 143.724 38.793 147.558 38.782 151.392 C38.758 160.654 38.743 169.916 38.73 179.178 C38.727 181.795 38.723 184.413 38.719 187.03 C38.693 203.292 38.671 219.554 38.659 235.816 C38.656 239.582 38.653 243.349 38.65 247.115 C38.649 248.051 38.648 248.987 38.648 249.952 C38.635 265.103 38.602 280.254 38.56 295.405 C38.518 310.97 38.494 326.535 38.489 342.1 C38.485 350.835 38.474 359.57 38.441 368.305 C38.413 375.748 38.402 383.19 38.413 390.633 C38.418 394.426 38.415 398.219 38.391 402.012 C38.364 406.136 38.376 410.26 38.392 414.385 C38.378 415.567 38.364 416.749 38.35 417.967 C38.498 433.651 44.92 446.082 55.969 456.934 C70.041 468.412 86.664 469.307 103.97 469.241 C105.668 469.241 107.365 469.243 109.062 469.246 C113.699 469.25 118.335 469.242 122.971 469.232 C127.981 469.223 132.991 469.226 138.001 469.228 C146.672 469.229 155.343 469.223 164.014 469.211 C176.551 469.195 189.087 469.19 201.624 469.187 C221.965 469.183 242.307 469.17 262.649 469.151 C282.404 469.133 302.16 469.118 321.916 469.11 C322.531 469.11 322.531 469.11 325.646 469.108 C335.273 469.104 344.9 469.1 354.528 469.096 C401.685 469.077 448.843 469.037 496 469 C496 356.47 496 243.94 496 128 C453 128 453 128 441.801 134.93 C439.113 137.885 436.723 140.728 434.312 143.875 C432.978 145.409 431.632 146.934 430.275 148.449 C421 159.003 421 159.003 421 162 C434.53 162 448.06 162 462 162 C462 251.76 462 341.52 462 434 C355.08 433.67 248.16 433.34 138 433 C138.66 430.03 139.32 427.06 140 424 C140.248 421.202 140.248 421.202 140.246 418.801 C140.25 417.87 140.254 416.94 140.258 415.981 C140.252 414.988 140.247 413.994 140.241 412.971 C140.241 412.432 140.241 412.432 140.246 409.706 C140.249 406.113 140.238 402.52 140.227 398.927 C140.226 396.345 140.227 393.762 140.228 391.18 C140.229 385.629 140.223 380.078 140.211 374.527 C140.195 366.502 140.19 358.476 140.187 350.45 C140.183 337.428 140.17 324.405 140.151 311.383 C140.133 298.736 140.118 286.09 140.11 273.444 C140.109 272.664 140.109 271.884 140.108 271.08 C140.106 267.165 140.103 263.251 140.101 259.337 C140.08 226.891 140.045 194.446 140 162 C140.821 162.029 141.642 162.059 142.487 162.089 C162.616 162.801 182.743 163.328 202.882 163.658 C212.623 163.822 222.355 164.045 232.09 164.414 C303.003 167.049 303.003 167.049 319.913 152.689 C326.853 146.096 332.653 138.529 337 130 C337 129.34 337 128.68 337 128 C271.99 128 206.98 128 140 128 C140 124.37 140 120.74 140 117 C138.061 102.73 131.19 90.649 119.938 81.875 C96.233 65.198 68.2 70.333 49.215 90.938 Z M392.832 93.92 C392.383 94.37 392.383 94.37 390.111 96.646 C389.614 97.141 389.118 97.635 388.607 98.144 C386.958 99.789 385.317 101.441 383.676 103.094 C382.53 104.241 381.384 105.387 380.237 106.534 C377.827 108.945 375.421 111.36 373.017 113.777 C369.953 116.858 366.883 119.932 363.811 123.003 C361.439 125.376 359.069 127.751 356.7 130.128 C355.57 131.26 354.44 132.392 353.309 133.524 C351.716 135.12 350.126 136.719 348.536 138.318 C347.634 139.224 346.732 140.13 345.802 141.064 C343.654 143.267 341.639 145.559 339.634 147.892 C336.084 151.981 332.272 155.702 328.327 159.405 C326.809 160.844 325.292 162.283 323.775 163.723 C322.98 164.476 322.185 165.229 321.367 166.006 C316.186 170.938 311.06 175.927 305.928 180.91 C301.455 185.248 296.963 189.562 292.419 193.826 C270.704 214.238 254.155 231.312 247.912 261.044 C246.719 266.545 244.821 271.797 242.957 277.101 C242 280 242 280 242 282 C251.593 279.532 261.043 276.602 270.48 273.604 C272.288 273.034 274.098 272.472 275.911 271.917 C278.566 271.105 281.211 270.266 283.855 269.422 C284.655 269.183 285.454 268.944 286.277 268.698 C297.693 264.965 305.654 254.485 313.934 246.18 C315.225 244.888 316.517 243.596 317.809 242.305 C321.296 238.818 324.78 235.328 328.264 231.838 C331.912 228.183 335.563 224.531 339.214 220.879 C346.119 213.972 353.02 207.062 359.921 200.151 C367.781 192.279 375.645 184.411 383.508 176.542 C399.675 160.365 415.839 144.184 432 128 C425.719 120.597 425.719 120.597 422.688 117.543 C422.115 116.963 421.541 116.383 420.95 115.785 C420.651 115.486 420.651 115.486 419.141 113.973 C418.51 113.339 417.88 112.705 417.23 112.052 C415.91 110.727 414.589 109.404 413.267 108.082 C411.236 106.049 409.214 104.008 407.191 101.967 C405.904 100.677 404.616 99.387 403.328 98.098 C402.723 97.485 402.118 96.873 401.494 96.242 C396.179 90.956 396.179 90.956 392.832 93.92 Z M175 203 C175 267.68 175 332.36 175 399 C211.3 399 247.6 399 285 399 C285 393.06 285 387.12 285 381 C282.03 381 279.06 381 276 381 C276 360.87 276 340.74 276 320 C262.14 320 248.28 320 234 320 C234 325.94 234 331.88 234 338 C242.25 338 250.5 338 259 338 C259 352.19 259 366.38 259 381 C237.22 381 215.44 381 193 381 C193 366.81 193 352.62 193 338 C197.62 338 202.24 338 207 338 C207 332.06 207 326.12 207 320 C202.38 320 197.76 320 193 320 C193 309.11 193 298.22 193 287 C203.23 287 213.46 287 224 287 C229 273 229 273 229 270 C217.12 270 205.24 270 193 270 C193 253.83 193 237.66 193 221 C196.64 221.186 200.281 221.371 204.031 221.562 C207.609 221.688 211.186 221.785 214.765 221.879 C217.228 221.959 219.689 222.067 222.149 222.207 C243.653 223.395 243.653 223.395 251.289 217.438 C255.309 213.724 259.124 209.68 262 205 C262 204.34 262 203.68 262 203 C233.29 203 204.58 203 175 203 Z M378 203 C372.72 208.28 367.44 213.56 362 219 C362 219.66 362 220.32 362 221 C377.51 221 393.02 221 409 221 C409 237.17 409 253.34 409 270 C380.62 270 352.24 270 323 270 C323 275.61 323 281.22 323 287 C351.38 287 379.76 287 409 287 C409 297.89 409 308.78 409 320 C404.38 320 399.76 320 395 320 C395 325.94 395 331.88 395 338 C399.62 338 404.24 338 409 338 C409 352.19 409 366.38 409 381 C387.22 381 365.44 381 343 381 C343 366.81 343 352.62 343 338 C351.25 338 359.5 338 368 338 C368 332.06 368 326.12 368 320 C354.14 320 340.28 320 326 320 C326 340.13 326 360.26 326 381 C323.03 381 320.06 381 317 381 C317 386.94 317 392.88 317 399 C353.3 399 389.6 399 427 399 C427 334.32 427 269.64 427 203 C410.83 203 394.66 203 378 203 Z " fill="#000000" transform="translate(0,0)"/>
<path d="M0 0 C3.416 2.626 5.059 4.838 6.23 8.922 C6.514 12.312 6.491 15.689 6.471 19.09 C6.473 20.123 6.474 21.157 6.476 22.221 C6.479 25.688 6.468 29.155 6.458 32.622 C6.457 35.106 6.457 37.589 6.458 40.073 C6.459 45.422 6.453 50.771 6.442 56.12 C6.426 63.854 6.42 71.588 6.418 79.321 C6.414 91.869 6.4 104.417 6.381 116.965 C6.363 129.154 6.349 141.342 6.34 153.531 C6.34 153.906 6.34 153.906 6.339 155.808 C6.336 159.577 6.334 163.347 6.331 167.116 C6.31 198.385 6.275 229.653 6.23 260.922 C5.094 260.754 3.957 260.587 2.785 260.414 C-7.23 259.054 -15.795 258.837 -25.77 260.922 C-25.838 229.048 -25.891 197.174 -25.923 165.301 C-25.926 161.538 -25.93 157.775 -25.934 154.013 C-25.935 153.264 -25.936 152.515 -25.937 151.743 C-25.95 139.612 -25.973 127.482 -26.001 115.352 C-26.029 102.906 -26.046 90.46 -26.052 78.014 C-26.056 70.333 -26.069 62.653 -26.093 54.972 C-26.111 49.084 -26.113 43.196 -26.109 37.307 C-26.11 34.891 -26.116 32.475 -26.127 30.058 C-26.142 26.763 -26.138 23.468 -26.13 20.172 C-26.139 19.213 -26.148 18.254 -26.157 17.266 C-26.111 10.438 -24.999 6.151 -20.02 1.172 C-13.308 -3.474 -7.019 -4.276 0 0 Z " fill="#000000" transform="translate(98.76953125,109.078125)"/>
<path d="M0 0 C3.432 3.003 5.183 5.559 6 10 C6 14.323 5.314 16.4 3 20 C-0.137 23.137 -4.143 23.87 -8.312 25.188 C-9.168 25.473 -10.023 25.759 -10.904 26.053 C-19.107 28.664 -19.107 28.664 -23 27 C-25 24 -25 24 -24.664 21.795 C-23.772 19.044 -22.874 16.298 -21.938 13.562 C-21.787 13.085 -21.787 13.085 -21.025 10.67 C-19.285 5.477 -18.005 1.803 -13 -1 C-8.558 -2.714 -4.331 -1.675 0 0 Z " fill="#000000" transform="translate(287,233)"/>
<path d="M0 0 C3.822 1.932 6.39 4.377 8.336 8.293 C10.082 13.737 9.852 18.64 7.309 23.727 C3.717 27.804 0.524 30.942 -5.055 31.59 C-10.593 31.772 -13.651 31.097 -18.004 27.352 C-22.03 22.89 -23.375 19.561 -23.285 13.477 C-22.643 8.622 -19.993 5.268 -16.441 1.977 C-11.52 -1.305 -5.626 -1.821 0 0 Z " fill="#000000" transform="translate(96.00390625,402.6484375)"/>
</svg>
