<?xml version="1.0" encoding="UTF-8"?>
<!-- Generator: visioncortex VTracer 0.6.12 -->
<svg version="1.1" xmlns="http://www.w3.org/2000/svg" width="535" height="535">
<path d="M0 0 C176.55 0 353.1 0 535 0 C535 176.55 535 353.1 535 535 C358.45 535 181.9 535 0 535 C0 358.45 0 181.9 0 0 Z M249.5 26.562 C248.082 28.634 246.664 30.706 245.246 32.777 C244.537 33.819 243.828 34.86 243.097 35.933 C239.958 40.524 236.76 45.074 233.562 49.625 C232.423 51.259 231.284 52.893 230.145 54.527 C228.195 57.316 226.219 60.079 224.199 62.816 C219.885 68.709 216.583 73.609 216 81 C215.894 82.209 215.789 83.418 215.68 84.664 C215.41 88.108 215.186 91.55 215 95 C214.317 95.102 213.634 95.205 212.93 95.31 C209.438 96.132 206.351 97.517 203.121 99.035 C202.45 99.345 201.779 99.655 201.088 99.974 C199.633 100.646 198.18 101.32 196.727 101.996 C192.773 103.837 188.81 105.66 184.848 107.484 C184.438 107.673 184.438 107.673 182.364 108.629 C174.797 112.109 167.186 115.486 159.565 118.846 C145.312 125.133 131.135 131.576 117 138.125 C116.131 138.527 115.262 138.929 114.367 139.343 C109.591 141.554 104.824 143.784 100.065 146.034 C98.138 146.935 96.201 147.809 94.258 148.675 C93.72 148.923 93.72 148.923 91 150.18 C90.093 150.587 89.185 150.994 88.25 151.414 C85.186 153.574 84.292 155.495 83 159 C82.471 163.715 82.527 168.427 82.554 173.167 C82.562 175.428 82.534 177.687 82.502 179.947 C82.5 181.401 82.501 182.855 82.504 184.309 C82.502 185.616 82.5 186.924 82.498 188.271 C83.155 193.15 84.827 197.215 88.75 200.438 C92.957 201.489 96.968 202.176 100.816 199.949 C102.989 198.174 104.737 196.526 106 194 C106 187.07 106 180.14 106 173 C139 173 172 173 206 173 C204.676 219.1 204.676 219.1 196.665 226.779 C188.426 233.031 177.875 235.683 168.068 238.458 C160.835 240.56 154.123 243.74 147.315 246.922 C143.661 248.616 139.973 250.232 136.289 251.859 C133.191 253.237 130.096 254.618 127 256 C126.57 256.192 126.57 256.192 124.392 257.164 C118.963 259.59 113.542 262.032 108.129 264.495 C106.391 265.283 104.651 266.067 102.908 266.846 C100.485 267.931 98.07 269.031 95.656 270.137 C94.938 270.454 94.22 270.771 93.48 271.098 C89.209 273.08 86.566 275.037 84 279 C82.832 282.504 82.819 285.689 82.797 289.336 C82.791 290.052 82.785 290.769 82.78 291.507 C82.77 293.021 82.764 294.536 82.76 296.051 C82.75 298.36 82.719 300.668 82.688 302.977 C82.681 304.451 82.676 305.924 82.672 307.398 C82.66 308.085 82.647 308.772 82.634 309.479 C82.659 314.814 84.004 318.004 87.75 321.75 C90.909 323.505 93.394 323.876 97 324 C101.642 322.304 102.953 321.062 106 317 C106 310.07 106 303.14 106 296 C134.38 296 162.76 296 192 296 C188.534 326.042 188.534 326.042 182.748 339.624 C182.332 340.61 181.917 341.596 181.489 342.612 C181.061 343.628 180.633 344.644 180.191 345.691 C179.295 347.886 178.402 350.083 177.512 352.28 C175.647 356.874 173.764 361.46 171.867 366.04 C169.031 372.903 166.26 379.791 163.507 386.687 C162.595 388.972 161.682 391.256 160.77 393.541 C160.318 394.673 159.866 395.805 159.4 396.971 C157.108 402.701 154.801 408.426 152.494 414.15 C152.037 415.284 151.581 416.417 151.11 417.585 C150.185 419.881 149.26 422.176 148.335 424.471 C145.981 430.312 143.628 436.153 141.275 441.994 C140.814 443.139 140.353 444.283 139.878 445.463 C136.378 454.155 132.887 462.85 129.399 471.547 C127.32 476.729 125.228 481.906 123.113 487.074 C122.285 489.102 121.462 491.133 120.642 493.164 C119.72 495.445 118.789 497.722 117.844 499.994 C115.591 505.617 114.423 509.932 115 516 C116.54 519.097 118.876 521.438 122 523 C128.835 523.823 134.064 522.231 140.246 519.477 C141.117 519.104 141.988 518.732 142.886 518.348 C145.743 517.122 148.59 515.874 151.438 514.625 C153.457 513.754 155.478 512.884 157.499 512.015 C161.655 510.227 165.806 508.43 169.955 506.625 C175.488 504.219 181.033 501.838 186.582 499.469 C187.425 499.108 188.269 498.747 189.138 498.375 C193.374 496.562 197.614 494.76 201.863 492.976 C210.493 489.334 219.012 485.556 227.427 481.435 C231.747 479.332 236.097 477.295 240.451 475.264 C242.533 474.271 244.602 473.247 246.653 472.19 C263.46 463.549 263.46 463.549 272.917 466.32 C278.138 468.294 283.046 470.802 287.965 473.429 C292.907 475.987 298.045 478.045 303.188 480.164 C305.284 481.053 307.379 481.946 309.473 482.841 C310.537 483.295 311.6 483.748 312.696 484.216 C313.241 484.448 313.241 484.448 316 485.625 C318.31 486.61 320.621 487.594 322.931 488.579 C335.555 493.96 348.172 499.355 360.785 504.762 C361.43 505.038 362.075 505.315 362.74 505.599 C369.623 508.55 376.506 511.503 383.389 514.458 C384.534 514.949 385.678 515.44 386.858 515.946 C388.997 516.864 391.136 517.783 393.274 518.702 C394.223 519.109 395.171 519.516 396.149 519.935 C396.97 520.287 397.79 520.64 398.636 521.003 C404.552 523.498 408.661 524.975 415 523 C417.914 520.828 419.582 518.213 420.773 514.758 C421.082 511.007 419.946 508.062 418.632 504.616 C418.361 503.879 418.09 503.141 417.811 502.382 C414.037 492.227 409.949 482.191 405.887 472.148 C404.998 469.944 404.11 467.739 403.222 465.534 C401.347 460.88 399.471 456.227 397.593 451.576 C394.67 444.333 391.754 437.088 388.84 429.841 C387.867 427.421 386.893 425 385.92 422.58 C385.44 421.387 384.96 420.194 384.466 418.965 C378.505 404.145 372.54 389.327 366.551 374.518 C364.132 368.534 361.722 362.546 359.32 356.556 C358.014 353.3 356.704 350.046 355.381 346.797 C353.959 343.299 352.553 339.795 351.152 336.289 C350.752 335.318 350.352 334.347 349.94 333.346 C345.198 321.346 344.597 308.777 343 296 C371.38 296 399.76 296 429 296 C429 302.93 429 309.86 429 317 C433.844 323.056 433.844 323.056 438 324 C442.637 324.16 445.277 323.585 448.938 320.625 C452.256 316.401 452.185 312.633 452.238 307.48 C452.246 306.744 452.254 306.008 452.263 305.25 C452.277 303.692 452.287 302.134 452.295 300.577 C452.307 298.989 452.327 297.402 452.357 295.814 C452.399 293.515 452.416 291.217 452.426 288.918 C452.435 288.566 452.435 288.566 452.479 286.787 C452.457 281.703 451.323 278.824 448 275 C445.12 273.138 445.12 273.138 441.77 271.578 C441.158 271.289 440.546 270.999 439.916 270.701 C437.952 269.781 435.978 268.888 434 268 C433.682 267.856 433.682 267.856 432.071 267.124 C428.028 265.292 423.968 263.499 419.901 261.72 C408.992 256.941 398.12 252.083 387.309 247.086 C386.422 246.677 385.536 246.269 384.622 245.847 C380.19 243.798 375.773 241.721 371.379 239.59 C363.255 235.68 355.779 232.142 346.813 230.689 C342.084 229.046 338.393 226.705 335 223 C333.475 219.587 333.027 216.264 332.621 212.566 C332.484 211.578 332.347 210.59 332.205 209.572 C330.939 199.842 330.424 190.046 330.162 180.242 C330 178 330 178 329 173 C362 173 395 173 429 173 C429 179.93 429 186.86 429 194 C433.794 199.992 433.794 199.992 437 201 C441.283 201.476 443.474 201.278 447.312 199.25 C449.991 197.008 450.842 196.181 452 193 C452.203 190.412 452.304 187.935 452.301 185.348 C452.305 184.611 452.309 183.873 452.314 183.114 C452.319 181.558 452.32 180.002 452.316 178.447 C452.313 176.074 452.336 173.703 452.361 171.33 C452.364 169.815 452.364 168.3 452.363 166.785 C452.368 166.432 452.368 166.432 452.391 164.648 C452.35 160.226 451.752 157.48 449 154 C445.424 150.652 441.54 148.678 437.078 146.777 C436.398 146.48 435.718 146.182 435.018 145.876 C433.541 145.23 432.063 144.587 430.584 143.948 C426.522 142.19 422.472 140.405 418.422 138.621 C417.571 138.247 416.72 137.872 415.843 137.486 C406.335 133.288 396.918 128.897 387.5 124.5 C372.545 117.524 357.524 110.717 342.418 104.074 C341.017 103.457 339.616 102.84 338.215 102.223 C337.562 101.936 336.909 101.649 336.236 101.353 C332.835 99.848 329.493 98.271 326.191 96.559 C323 95 323 95 320 95 C319.976 94.547 319.976 94.547 319.852 92.254 C319.814 91.645 319.814 91.645 319.625 88.562 C319.59 87.965 319.59 87.965 319.414 84.941 C318.452 75.787 316.277 70.107 310.75 62.688 C309.476 60.925 308.203 59.162 306.93 57.398 C306.277 56.505 305.625 55.611 304.952 54.69 C301.867 50.439 298.875 46.124 295.875 41.812 C294.718 40.162 293.56 38.513 292.402 36.863 C290.129 33.621 287.873 30.368 285.629 27.105 C284.565 25.57 283.501 24.035 282.438 22.5 C281.961 21.8 281.485 21.1 280.994 20.378 C274.991 11.754 274.991 11.754 269.754 10.434 C269.031 10.435 268.308 10.436 267.562 10.438 C267.202 10.427 267.202 10.427 265.379 10.371 C257.746 12.389 253.617 20.451 249.5 26.562 Z " fill="#000000" transform="translate(0,0)"/>
<path d="M0 0 C4 3.749 7.033 7.694 10.062 12.25 C13.045 16.709 16.048 21.112 19.312 25.371 C19.855 26.093 20.398 26.815 20.957 27.56 C21.99 28.929 23.042 30.285 24.115 31.624 C29.082 38.299 28.552 41.586 30 51 C10.53 51 -8.94 51 -29 51 C-26.712 36.128 -26.712 36.128 -22.062 30.688 C-21.069 29.433 -20.078 28.176 -19.09 26.918 C-18.835 26.6 -18.835 26.6 -17.546 24.99 C-14.914 21.603 -12.527 18.052 -10.125 14.5 C-6.808 9.623 -3.444 4.789 0 0 Z " fill="#000000" transform="translate(267,43)"/>
<path d="M0 0 C8.197 -0.023 16.394 -0.041 24.591 -0.052 C28.397 -0.057 32.202 -0.064 36.008 -0.075 C39.678 -0.086 43.348 -0.092 47.018 -0.095 C48.421 -0.097 49.824 -0.1 51.227 -0.106 C53.186 -0.113 55.144 -0.113 57.103 -0.114 C58.22 -0.116 59.337 -0.118 60.488 -0.12 C63 0 63 0 64 1 C64.3 2.948 64.54 4.904 64.754 6.863 C64.886 8.06 65.018 9.257 65.154 10.49 C65.289 11.752 65.424 13.013 65.562 14.312 C65.701 15.562 65.84 16.812 65.982 18.1 C67 27.438 67 27.438 67 32 C43.57 32 20.14 32 -4 32 C-1 2 -1 2 0 0 Z " fill="#000000" transform="translate(236,118)"/>
<path d="M0 0 C9.887 4.001 19.565 8.411 29.25 12.875 C40.451 18.034 51.684 23.099 63 28 C63 28.33 63 28.66 63 29 C43.2 29 23.4 29 3 29 C0 4 0 4 0 0 Z " fill="#000000" transform="translate(323,121)"/>
<path d="M0 0 C-0.118 2.021 -0.245 4.042 -0.375 6.062 C-0.445 7.188 -0.514 8.313 -0.586 9.473 C-1.183 16.004 -2.133 22.499 -3 29 C-22.47 29 -41.94 29 -62 29 C-58.346 26.26 -54.846 24.406 -50.727 22.559 C-50.014 22.234 -49.301 21.91 -48.567 21.576 C-46.255 20.525 -43.94 19.481 -41.625 18.438 C-40.039 17.719 -38.453 16.999 -36.868 16.279 C-33.716 14.849 -30.562 13.421 -27.408 11.996 C-23.544 10.248 -19.685 8.488 -15.828 6.723 C-14.805 6.255 -13.782 5.787 -12.728 5.305 C-10.863 4.452 -8.999 3.598 -7.135 2.744 C-6.325 2.375 -5.515 2.005 -4.68 1.625 C-3.986 1.308 -3.292 0.991 -2.578 0.664 C-1 0 -1 0 0 0 Z " fill="#000000" transform="translate(212,121)"/>
<path d="M0 0 C25.41 0 50.82 0 77 0 C81 35 81 35 81 44 C52.95 44 24.9 44 -4 44 C-3.135 29.298 -1.626 14.637 0 0 Z " fill="#000000" transform="translate(229,173)"/>
<path d="M0 0 C30.03 0 60.06 0 91 0 C92.685 10.952 93.897 21.974 95 33 C62.33 33 29.66 33 -4 33 C-1 5 -1 5 0 0 Z " fill="#000000" transform="translate(222,240)"/>
<path d="M0 0 C-0.141 2.729 -0.288 5.458 -0.438 8.188 C-0.477 8.956 -0.516 9.725 -0.557 10.518 C-0.578 10.893 -0.578 10.893 -0.684 12.793 C-0.72 13.479 -0.757 14.165 -0.795 14.872 C-1.026 17.27 -1.527 19.637 -2 22 C-17.18 22 -32.36 22 -48 22 C-45.203 19.902 -43.378 18.572 -40.336 17.238 C-39.635 16.928 -38.934 16.617 -38.212 16.298 C-37.464 15.973 -36.716 15.647 -35.945 15.312 C-35.166 14.969 -34.387 14.625 -33.584 14.271 C-31.1 13.176 -28.613 12.088 -26.125 11 C-23.645 9.911 -21.166 8.821 -18.687 7.729 C-17.148 7.052 -15.607 6.376 -14.066 5.702 C-10.863 4.297 -7.724 2.859 -4.605 1.27 C-2 0 -2 0 0 0 Z " fill="#000000" transform="translate(197,251)"/>
<path d="M0 0 C6.164 1.926 12.014 4.222 17.867 6.941 C18.669 7.31 19.47 7.678 20.296 8.058 C21.972 8.829 23.648 9.603 25.322 10.38 C27.887 11.568 30.455 12.748 33.023 13.928 C34.659 14.682 36.294 15.436 37.93 16.191 C38.695 16.544 39.461 16.896 40.25 17.258 C43.323 18.686 46.175 20.116 49 22 C33.49 22 17.98 22 2 22 C0 7 0 7 0 0 Z " fill="#000000" transform="translate(338,251)"/>
<path d="M0 0 C13.412 -0.023 26.825 -0.041 40.237 -0.052 C46.464 -0.057 52.691 -0.064 58.918 -0.075 C64.922 -0.086 70.926 -0.092 76.93 -0.095 C79.227 -0.097 81.523 -0.1 83.819 -0.106 C87.023 -0.113 90.227 -0.114 93.431 -0.114 C93.911 -0.115 93.911 -0.115 96.339 -0.124 C97.207 -0.123 98.075 -0.122 98.969 -0.12 C99.728 -0.121 100.487 -0.122 101.268 -0.123 C103 0 103 0 104 1 C104.406 3.877 104.756 6.738 105.062 9.625 C105.108 10.023 105.108 10.023 105.338 12.035 C105.85 16.721 106.095 21.287 106 26 C97.326 30.066 88.636 34.098 79.935 38.107 C78.061 38.972 76.189 39.841 74.317 40.711 C70.927 42.282 67.528 43.831 64.125 45.375 C63.093 45.857 62.061 46.339 60.998 46.835 C60.032 47.269 59.066 47.702 58.07 48.148 C57.233 48.532 56.395 48.915 55.532 49.31 C49.265 51.018 43.61 47.708 38.016 45.141 C37.16 44.754 36.304 44.368 35.423 43.97 C33.616 43.153 31.811 42.332 30.007 41.509 C27.276 40.262 24.541 39.025 21.805 37.789 C13.461 34.011 5.126 30.232 -3 26 C-1.586 3.173 -1.586 3.173 0 0 Z " fill="#000000" transform="translate(216,296)"/>
<path d="M0 0 C4.584 0.583 8.289 1.821 12.492 3.723 C13.691 4.261 14.89 4.799 16.125 5.354 C17.375 5.923 18.625 6.493 19.875 7.062 C21.148 7.637 22.422 8.21 23.695 8.783 C26.8 10.183 29.901 11.588 33 13 C33 13.66 33 14.32 33 15 C27.094 17.692 21.186 20.379 15.275 23.063 C13.265 23.976 11.255 24.891 9.246 25.807 C6.358 27.123 3.468 28.435 0.578 29.746 C-0.32 30.157 -1.218 30.567 -2.143 30.99 C-2.984 31.37 -3.824 31.75 -4.69 32.142 C-5.428 32.478 -6.165 32.813 -6.924 33.158 C-8.935 33.973 -10.885 34.531 -13 35 C-10.819 27.057 -7.919 19.497 -4.812 11.875 C-4.349 10.728 -3.886 9.58 -3.408 8.398 C-2.276 5.597 -1.14 2.798 0 0 Z " fill="#000000" transform="translate(205,345)"/>
<path d="M0 0 C1.856 4.661 3.707 9.324 5.554 13.989 C6.184 15.577 6.814 17.164 7.446 18.75 C8.352 21.027 9.255 23.306 10.156 25.586 C10.441 26.297 10.725 27.009 11.018 27.742 C13 32.772 13 32.772 13 35 C6.741 33.04 0.778 30.699 -5.191 27.988 C-6.022 27.615 -6.853 27.242 -7.709 26.858 C-10.328 25.68 -12.946 24.496 -15.562 23.312 C-17.352 22.507 -19.142 21.701 -20.932 20.896 C-25.29 18.936 -29.646 16.969 -34 15 C-28.912 10.884 -22.906 8.532 -17 5.812 C-15.811 5.254 -14.623 4.695 -13.398 4.119 C-12.827 3.855 -12.827 3.855 -9.938 2.52 C-8.895 2.036 -7.852 1.552 -6.777 1.054 C-4 0 -4 0 0 0 Z " fill="#000000" transform="translate(330,345)"/>
<path d="M0 0 C0.848 0.386 1.695 0.771 2.569 1.168 C5.329 2.425 8.087 3.689 10.844 4.953 C13.692 6.253 16.541 7.551 19.391 8.849 C21.298 9.719 23.206 10.589 25.113 11.459 C30.896 14.097 36.69 16.708 42.5 19.285 C43.182 19.588 43.864 19.891 44.567 20.204 C47.705 21.597 50.844 22.986 53.986 24.368 C55.074 24.851 56.161 25.334 57.281 25.832 C58.218 26.245 59.156 26.658 60.121 27.084 C62.344 28.203 62.344 28.203 64.344 30.203 C63.386 30.604 62.429 31.005 61.443 31.418 C57.699 32.986 53.956 34.558 50.213 36.13 C48.511 36.844 46.808 37.559 45.104 38.272 C35.294 42.382 25.513 46.545 15.793 50.863 C14.106 51.609 12.419 52.354 10.731 53.1 C8.298 54.175 5.867 55.255 3.444 56.352 C1.197 57.369 -1.056 58.368 -3.312 59.363 C-3.641 59.515 -3.641 59.515 -5.306 60.286 C-10.581 62.581 -14.065 62.134 -19.396 60.219 C-19.863 60.017 -19.863 60.017 -22.224 58.998 C-23.293 58.54 -24.362 58.082 -25.464 57.61 C-26.607 57.112 -27.751 56.614 -28.93 56.102 C-29.528 55.844 -29.528 55.844 -32.556 54.542 C-35.738 53.173 -38.917 51.796 -42.095 50.417 C-45.273 49.04 -48.455 47.671 -51.637 46.301 C-63.994 40.976 -76.338 35.618 -88.656 30.203 C-85.005 27.114 -80.939 25.378 -76.605 23.465 C-75.806 23.107 -75.007 22.749 -74.184 22.38 C-71.573 21.212 -68.959 20.051 -66.344 18.891 C-62.715 17.275 -59.088 15.657 -55.461 14.039 C-54.55 13.634 -53.64 13.228 -52.702 12.81 C-46.875 10.211 -41.074 7.56 -35.289 4.867 C-33.181 3.892 -31.072 2.917 -28.964 1.943 C-27.64 1.328 -26.319 0.708 -25 0.084 C-23.179 -0.778 -21.349 -1.622 -19.52 -2.465 C-18.502 -2.942 -17.484 -3.419 -16.435 -3.911 C-10.496 -5.804 -5.358 -2.47 0 0 Z " fill="#000000" transform="translate(279.65625,376.796875)"/>
<path d="M0 0 C7.435 2.341 14.533 5.248 21.691 8.324 C22.877 8.83 24.063 9.337 25.285 9.858 C28.408 11.192 31.529 12.529 34.65 13.868 C37.847 15.238 41.046 16.604 44.244 17.971 C50.498 20.643 56.75 23.32 63 26 C61.389 29.223 57.998 29.89 54.805 31.211 C54.045 31.532 53.285 31.852 52.502 32.182 C49.962 33.253 47.419 34.314 44.875 35.375 C43.104 36.12 41.333 36.865 39.562 37.611 C36.742 38.799 33.921 39.987 31.099 41.172 C20.443 45.647 9.81 50.178 -0.822 54.709 C-5.922 56.882 -11.024 59.052 -16.125 61.223 C-17.857 61.96 -19.589 62.697 -21.32 63.434 C-22.535 63.951 -23.749 64.468 -25 65 C-26 63 -26 63 -25.178 60.412 C-24.956 59.865 -24.956 59.865 -23.834 57.097 C-23.592 56.494 -23.35 55.891 -23.101 55.269 C-22.296 53.269 -21.48 51.273 -20.664 49.277 C-20.104 47.893 -19.544 46.508 -18.985 45.123 C-17.811 42.218 -16.632 39.316 -15.449 36.415 C-13.93 32.689 -12.42 28.96 -10.913 25.23 C-9.757 22.37 -8.598 19.511 -7.438 16.652 C-6.88 15.277 -6.323 13.902 -5.766 12.527 C-4.988 10.608 -4.207 8.69 -3.424 6.773 C-2.979 5.68 -2.534 4.587 -2.076 3.461 C-1 1 -1 1 0 0 Z " fill="#000000" transform="translate(174,425)"/>
<path d="M0 0 C3.264 8.178 6.524 16.358 9.779 24.539 C11.29 28.338 12.803 32.136 14.319 35.933 C15.781 39.595 17.239 43.258 18.695 46.923 C19.252 48.323 19.811 49.722 20.37 51.121 C21.152 53.076 21.929 55.033 22.705 56.99 C22.927 57.547 22.927 57.547 24.051 60.368 C25 63 25 63 25 65 C17.417 62.662 10.199 59.605 2.929 56.446 C-0.889 54.788 -4.712 53.143 -8.535 51.496 C-9.354 51.143 -10.173 50.79 -11.017 50.426 C-21.883 45.749 -32.786 41.158 -43.688 36.562 C-44.703 36.134 -45.718 35.706 -46.764 35.265 C-52.508 32.842 -58.254 30.42 -64 28 C-64 27.34 -64 26.68 -64 26 C-56.785 22.905 -49.57 19.81 -42.355 16.716 C-39.004 15.279 -35.653 13.842 -32.303 12.405 C-29.068 11.017 -25.832 9.629 -22.597 8.242 C-20.766 7.457 -18.935 6.671 -17.105 5.886 C-15.984 5.405 -14.863 4.925 -13.708 4.43 C-12.725 4.008 -11.741 3.586 -10.727 3.152 C-10.277 2.962 -10.277 2.962 -8 2 C-7.119 1.62 -6.238 1.24 -5.331 0.848 C-3 0 -3 0 0 0 Z " fill="#000000" transform="translate(362,425)"/>
</svg>
