<?xml version="1.0" encoding="UTF-8"?>
<!-- Generator: visioncortex VTracer 0.6.12 -->
<svg version="1.1" xmlns="http://www.w3.org/2000/svg" width="535" height="535">
<path d="M0 0 C176.55 0 353.1 0 535 0 C535 176.55 535 353.1 535 535 C358.45 535 181.9 535 0 535 C0 358.45 0 181.9 0 0 Z M142.562 38.938 C134.543 49.679 132.686 60.916 132.746 74.082 C132.743 75.153 132.74 76.225 132.737 77.328 C132.729 80.895 132.735 84.461 132.741 88.027 C132.738 90.594 132.735 93.16 132.731 95.727 C132.722 101.96 132.724 108.193 132.729 114.426 C132.734 119.494 132.735 124.563 132.732 129.631 C132.732 130.354 132.732 131.077 132.731 131.822 C132.731 133.291 132.73 134.759 132.729 136.228 C132.724 149.983 132.73 163.738 132.741 177.493 C132.75 189.281 132.748 201.069 132.739 212.856 C132.729 226.564 132.724 240.272 132.73 253.979 C132.731 255.442 132.732 256.906 132.732 258.369 C132.733 259.089 132.733 259.809 132.733 260.55 C132.735 265.609 132.732 270.668 132.727 275.727 C132.721 282.543 132.726 289.359 132.737 296.175 C132.74 298.673 132.739 301.172 132.735 303.67 C132.729 307.086 132.736 310.502 132.746 313.918 C132.742 314.902 132.737 315.885 132.733 316.898 C132.8 328.864 134.963 338.927 143.375 347.812 C149.925 353.938 157.179 357.136 166.23 357.047 C167.125 357.04 168.02 357.033 168.942 357.026 C169.621 357.018 170.3 357.009 171 357 C170.569 357.932 170.138 358.865 169.693 359.825 C161.698 377.123 153.76 394.442 146.062 411.875 C140.136 425.294 134.046 438.629 127.87 451.934 C121.446 465.778 115.192 479.691 109.037 493.656 C108.719 494.376 108.402 495.096 108.074 495.838 C107.488 497.167 106.903 498.497 106.32 499.827 C105.052 502.702 103.734 505.52 102.302 508.318 C101 511 101 511 101 513 C109.58 513 118.16 513 127 513 C128.485 509.741 129.97 506.483 131.5 503.125 C131.735 502.612 131.735 502.612 132.924 500.016 C133.107 499.613 133.107 499.613 134.031 497.57 C134.408 496.743 134.785 495.915 135.174 495.063 C136 493 136 493 136 491 C222.46 491.33 308.92 491.66 398 492 C400.97 498.6 403.94 505.2 407 512 C408 513 408 513 410.408 513.114 C411.451 513.108 412.493 513.103 413.566 513.098 C414.691 513.094 415.816 513.091 416.975 513.088 C418.159 513.08 419.343 513.071 420.562 513.062 C421.75 513.058 422.938 513.053 424.162 513.049 C427.108 513.037 430.054 513.021 433 513 C432.351 508.608 430.727 504.861 428.859 500.875 C428.541 500.185 428.223 499.494 427.895 498.783 C427.21 497.297 426.522 495.812 425.832 494.327 C424.359 491.158 422.898 487.984 421.436 484.81 C420.69 483.19 419.944 481.571 419.197 479.952 C415.958 472.926 412.779 465.876 409.625 458.812 C408.569 456.45 407.513 454.089 406.457 451.727 C406.186 451.12 405.915 450.514 405.636 449.889 C401.876 441.482 398.093 433.085 394.312 424.688 C393.554 423.002 392.796 421.317 392.037 419.632 C388.432 411.622 384.826 403.613 381.218 395.604 C379.564 391.932 377.91 388.26 376.256 384.588 C375.468 382.837 374.679 381.087 373.89 379.336 C372.792 376.9 371.695 374.464 370.598 372.027 C370.277 371.316 369.956 370.604 369.625 369.87 C367.703 365.6 365.833 361.31 364 357 C364.655 357.058 365.31 357.116 365.984 357.176 C375.009 357.622 383.08 355.217 390.375 349.75 C400.064 339.599 402.475 328.377 402.381 314.615 C402.386 313.535 402.39 312.456 402.395 311.343 C402.407 307.76 402.398 304.177 402.388 300.594 C402.392 298.01 402.398 295.427 402.404 292.844 C402.417 286.577 402.415 280.31 402.406 274.043 C402.399 268.946 402.398 263.85 402.401 258.753 C402.402 258.025 402.402 257.297 402.403 256.548 C402.404 255.069 402.405 253.591 402.406 252.112 C402.414 238.274 402.405 224.437 402.388 210.599 C402.375 198.745 402.377 186.892 402.391 175.039 C402.407 161.248 402.413 147.457 402.404 133.666 C402.403 132.193 402.402 130.72 402.401 129.247 C402.401 128.885 402.401 128.885 402.4 127.052 C402.397 121.966 402.402 116.88 402.409 111.794 C402.418 104.938 402.411 98.083 402.394 91.228 C402.39 88.717 402.391 86.207 402.398 83.696 C402.406 80.259 402.396 76.822 402.381 73.385 C402.388 72.401 402.394 71.417 402.401 70.403 C402.286 56.577 397.999 44.873 388.684 34.59 C379.743 26.147 368.426 21.85 356.279 21.853 C355.888 21.851 355.888 21.851 353.909 21.842 C351.284 21.831 348.66 21.827 346.035 21.823 C344.154 21.817 342.273 21.81 340.393 21.803 C334.211 21.782 328.029 21.772 321.848 21.762 C319.717 21.758 317.586 21.754 315.456 21.749 C305.441 21.73 295.425 21.716 285.41 21.708 C273.867 21.698 262.323 21.672 250.779 21.631 C241.848 21.601 232.916 21.586 223.984 21.583 C218.654 21.581 213.325 21.572 207.995 21.547 C202.974 21.523 197.954 21.519 192.933 21.529 C191.098 21.53 189.264 21.524 187.429 21.51 C169.307 21.381 154.861 24.347 142.562 38.938 Z " fill="#000000" transform="translate(0,0)"/>
<path d="M0 0 C0.492 -0.005 0.492 -0.005 2.984 -0.029 C4.046 -0.033 5.109 -0.038 6.204 -0.042 C6.75 -0.045 6.75 -0.045 9.518 -0.059 C11.833 -0.069 14.148 -0.075 16.463 -0.079 C20.003 -0.089 23.543 -0.12 27.083 -0.151 C29.331 -0.158 31.58 -0.163 33.829 -0.167 C34.358 -0.173 34.358 -0.173 37.036 -0.204 C46.31 -0.176 46.31 -0.176 50.149 3.161 C52.301 6.389 52.35 7.445 52.149 11.161 C52.447 11.158 52.447 11.158 53.955 11.141 C60.185 11.074 66.415 11.029 72.645 10.996 C74.967 10.981 77.288 10.961 79.61 10.935 C82.957 10.898 86.302 10.881 89.649 10.868 C90.679 10.853 91.71 10.837 92.772 10.821 C100.114 10.82 105.466 11.935 111.836 15.786 C117.647 21.753 119.715 27.66 119.793 35.915 C119.778 37.008 119.764 38.101 119.748 39.227 C119.752 40.402 119.756 41.577 119.76 42.788 C119.767 46.648 119.738 50.508 119.708 54.368 C119.701 57.059 119.701 59.749 119.7 62.439 C119.696 68.065 119.672 73.691 119.636 79.317 C119.594 85.817 119.577 92.317 119.573 98.818 C119.57 105.753 119.551 112.688 119.526 119.622 C119.52 121.617 119.517 123.611 119.513 125.605 C119.504 129.317 119.482 133.03 119.455 136.742 C119.455 137.845 119.454 138.948 119.453 140.085 C119.448 140.59 119.448 140.59 119.423 143.147 C119.418 144.024 119.414 144.901 119.409 145.804 C118.986 149.638 118.019 151.463 114.998 153.887 C111.461 155.469 108.359 155.578 104.558 155.542 C103.802 155.547 103.046 155.551 102.266 155.556 C99.737 155.568 97.208 155.559 94.678 155.549 C92.863 155.553 91.048 155.559 89.232 155.565 C84.305 155.579 79.377 155.574 74.45 155.564 C69.294 155.557 64.138 155.564 58.982 155.568 C50.323 155.574 41.665 155.567 33.006 155.552 C22.994 155.536 12.983 155.541 2.971 155.558 C-5.624 155.571 -14.218 155.573 -22.813 155.565 C-27.947 155.561 -33.08 155.56 -38.214 155.57 C-43.04 155.579 -47.866 155.573 -52.693 155.555 C-54.464 155.551 -56.236 155.553 -58.008 155.559 C-60.426 155.567 -62.842 155.557 -65.26 155.542 C-65.962 155.549 -66.664 155.555 -67.387 155.562 C-71.709 155.51 -74.421 154.815 -77.851 152.161 C-80.016 148.913 -80.104 148.013 -80.118 144.261 C-80.127 143.25 -80.136 142.239 -80.144 141.198 C-80.143 140.09 -80.143 138.982 -80.142 137.84 C-80.148 136.672 -80.155 135.505 -80.162 134.301 C-80.181 130.428 -80.185 126.554 -80.187 122.681 C-80.19 121.345 -80.193 120.01 -80.197 118.674 C-80.215 111.675 -80.223 104.676 -80.222 97.677 C-80.22 91.165 -80.242 84.653 -80.273 78.14 C-80.299 72.542 -80.31 66.943 -80.309 61.345 C-80.308 58.004 -80.316 54.664 -80.335 51.324 C-80.355 47.592 -80.349 43.861 -80.337 40.129 C-80.348 39.031 -80.359 37.933 -80.371 36.802 C-80.308 29.143 -79.019 23.91 -73.957 17.919 C-73.324 17.38 -72.691 16.841 -72.039 16.286 C-71.413 15.732 -70.788 15.178 -70.144 14.606 C-63.769 10.588 -56.952 10.892 -49.667 10.966 C-49.14 10.967 -49.14 10.967 -46.469 10.974 C-43.117 10.986 -39.765 11.011 -36.414 11.036 C-34.133 11.046 -31.852 11.055 -29.572 11.063 C-23.998 11.085 -18.425 11.119 -12.851 11.161 C-12.788 10.69 -12.788 10.69 -12.468 8.306 C-11.745 4.62 -10.753 3.465 -7.851 1.161 C-4.938 0.19 -3.034 0.024 0 0 Z " fill="#000000" transform="translate(247.85107421875,44.8388671875)"/>
<path d="M0 0 C3.878 3.349 6.259 6.545 7.133 11.582 C7.426 17.315 6.167 20.789 2.75 25.375 C-2.582 29.51 -6.513 30.832 -13.25 30.375 C-18.925 28.332 -22.549 24.778 -25.25 19.375 C-25.808 13.412 -25.752 8.446 -22.25 3.375 C-15.558 -3.136 -8.174 -4.087 0 0 Z " fill="#000000" transform="translate(193.25,292.625)"/>
<path d="M0 0 C4.328 3.523 6.577 6.441 7.176 12.094 C7.459 17.845 6.934 21.343 2.93 25.77 C-1.698 29.752 -6.061 31.021 -12.07 30.77 C-17.958 29.101 -20.643 26.608 -24.07 21.77 C-25.667 16.978 -26.106 12.258 -24.129 7.508 C-21.353 2.801 -18.549 -0.177 -13.188 -1.801 C-8.616 -2.729 -4.051 -2.408 0 0 Z " fill="#000000" transform="translate(360.0703125,292.23046875)"/>
<path d="M0 0 C46.53 0 93.06 0 141 0 C148 15 148 15 151 22 C98.2 22 45.4 22 -9 22 C-8 17 -8 17 0 0 Z " fill="#000000" transform="translate(197,357)"/>
<path d="M0 0 C60.06 0 120.12 0 182 0 C191 20 191 20 191 21 C125 21 59 21 -9 21 C-6 12 -6 12 0 0 Z " fill="#000000" transform="translate(177,402)"/>
<path d="M0 0 C73.59 0 147.18 0 223 0 C232 20 232 20 232 22 C152.47 22 72.94 22 -9 22 C-6.494 14.483 -3.176 7.259 0 0 Z " fill="#000000" transform="translate(156,446)"/>
</svg>
