<?xml version="1.0" encoding="UTF-8"?>
<!-- Generator: visioncortex VTracer 0.6.12 -->
<svg version="1.1" xmlns="http://www.w3.org/2000/svg" width="540" height="540">
<path d="M0 0 C178.2 0 356.4 0 540 0 C540 178.2 540 356.4 540 540 C361.8 540 183.6 540 0 540 C0 361.8 0 183.6 0 0 Z M202 45 C202 52.59 202 60.18 202 68 C220.48 68 238.96 68 258 68 C258 78.89 258 89.78 258 101 C255.447 100.984 252.894 100.969 250.264 100.952 C241.803 100.903 233.341 100.869 224.879 100.845 C219.752 100.829 214.625 100.808 209.498 100.774 C204.544 100.741 199.59 100.723 194.636 100.715 C192.752 100.71 190.868 100.699 188.984 100.683 C174.562 100.563 164.246 101.814 152 110 C151.113 110.578 150.226 111.155 149.312 111.75 C142.188 118.682 135.454 129.047 134.871 139.255 C134.869 140.086 134.868 140.918 134.866 141.775 C134.861 142.738 134.857 143.701 134.852 144.693 C134.852 145.749 134.853 146.804 134.853 147.892 C134.849 149.015 134.845 150.139 134.842 151.296 C134.831 155.074 134.827 158.853 134.823 162.631 C134.817 165.335 134.81 168.038 134.803 170.742 C134.783 178.865 134.773 186.988 134.764 195.111 C134.76 198.938 134.755 202.765 134.749 206.592 C134.732 219.318 134.718 232.043 134.711 244.768 C134.709 248.07 134.707 251.371 134.705 254.672 C134.704 255.493 134.704 256.313 134.703 257.159 C134.695 270.447 134.67 283.735 134.637 297.023 C134.604 310.672 134.586 324.32 134.583 337.969 C134.581 345.629 134.572 353.29 134.547 360.951 C134.525 367.476 134.517 374.001 134.526 380.526 C134.531 383.853 134.527 387.179 134.51 390.506 C134.492 394.12 134.499 397.733 134.512 401.346 C134.501 402.388 134.49 403.43 134.479 404.504 C134.567 414.588 137.611 422.645 144.613 429.957 C152.815 436.977 161.584 438.62 172 440 C162.391 461.621 162.391 461.621 161.337 463.992 C160.632 465.578 159.928 467.163 159.224 468.748 C157.383 472.894 155.537 477.037 153.684 481.177 C153.312 482.008 152.94 482.84 152.557 483.697 C151.844 485.293 151.129 486.889 150.412 488.485 C148 493.888 148 493.888 148 495 C156.58 495 165.16 495 174 495 C178.947 484.424 183.858 473.833 188.736 463.225 C189.505 461.553 190.275 459.882 191.046 458.21 C192.175 455.761 193.303 453.31 194.43 450.859 C194.774 450.113 195.119 449.366 195.474 448.596 C196.779 445.755 198.01 442.969 199 440 C245.86 440 292.72 440 341 440 C347.27 453.86 353.54 467.72 360 482 C361.98 486.29 363.96 490.58 366 495 C374.58 495 383.16 495 392 495 C388.955 487.692 385.902 480.428 382.645 473.219 C382.257 472.357 381.869 471.496 381.47 470.609 C380.661 468.814 379.852 467.019 379.042 465.225 C377.803 462.479 376.566 459.732 375.33 456.984 C374.539 455.229 373.748 453.474 372.957 451.719 C372.589 450.902 372.222 450.085 371.843 449.244 C371.499 448.482 371.155 447.72 370.8 446.936 C370.5 446.27 370.2 445.605 369.89 444.919 C368.965 442.925 367.992 440.961 367 439 C367.75 439.046 368.5 439.093 369.273 439.141 C379.57 439.504 386.364 437.509 394.312 430.875 C399.698 425.761 404.665 418.546 405.129 410.87 C405.131 410.039 405.132 409.208 405.134 408.351 C405.136 407.871 405.136 407.871 405.148 405.44 C405.148 404.383 405.147 403.325 405.147 402.235 C405.149 401.674 405.149 401.674 405.158 398.836 C405.169 395.056 405.173 391.277 405.177 387.498 C405.183 384.796 405.19 382.095 405.197 379.393 C405.217 371.269 405.227 363.146 405.236 355.022 C405.24 351.195 405.245 347.368 405.251 343.541 C405.268 330.816 405.282 318.091 405.289 305.366 C405.291 302.063 405.293 298.761 405.295 295.458 C405.296 294.637 405.296 293.816 405.297 292.971 C405.305 279.683 405.33 266.396 405.363 253.108 C405.396 239.461 405.414 225.813 405.417 212.166 C405.419 204.506 405.428 196.846 405.453 189.185 C405.475 182.659 405.483 176.133 405.474 169.607 C405.469 166.28 405.473 162.954 405.49 159.626 C405.508 156.011 405.501 152.396 405.488 148.781 C405.499 147.741 405.51 146.701 405.521 145.63 C405.41 132.95 400.308 122.515 391.75 113.312 C378.78 101.054 364.189 100.559 347.332 100.707 C345.442 100.713 343.552 100.717 341.662 100.72 C336.722 100.731 331.782 100.761 326.842 100.794 C321.787 100.825 316.732 100.838 311.678 100.854 C301.785 100.886 291.893 100.938 282 101 C282 90.11 282 79.22 282 68 C300.48 68 318.96 68 338 68 C338 60.41 338 52.82 338 45 C293.12 45 248.24 45 202 45 Z " fill="#000000" transform="translate(0,0)"/>
<path d="M0 0 C0.965 -0.01 1.929 -0.019 2.923 -0.029 C3.964 -0.033 5.004 -0.038 6.077 -0.042 C7.148 -0.048 8.22 -0.053 9.324 -0.059 C11.592 -0.069 13.86 -0.075 16.127 -0.079 C19.595 -0.089 23.062 -0.12 26.53 -0.151 C28.733 -0.158 30.936 -0.163 33.139 -0.167 C34.176 -0.179 35.212 -0.192 36.28 -0.204 C45.238 -0.177 45.238 -0.177 49.241 3.161 C52.061 6.176 52.241 6.828 52.241 11.161 C52.797 11.157 53.353 11.152 53.926 11.148 C59.751 11.103 65.575 11.073 71.4 11.051 C73.569 11.041 75.739 11.028 77.908 11.01 C81.039 10.986 84.169 10.975 87.299 10.966 C88.259 10.955 89.219 10.945 90.208 10.935 C98.974 10.933 106.563 11.73 113.514 17.38 C118.484 22.507 120.357 29.049 120.381 36.044 C120.387 37.025 120.393 38.006 120.398 39.017 C120.399 39.552 120.399 39.552 120.402 42.26 C120.407 43.392 120.412 44.524 120.417 45.691 C120.432 49.439 120.438 53.187 120.444 56.935 C120.45 59.538 120.455 62.141 120.461 64.744 C120.471 69.505 120.477 74.267 120.48 79.028 C120.484 86.029 120.502 93.029 120.531 100.03 C120.555 106.101 120.563 112.171 120.564 118.242 C120.567 120.822 120.575 123.402 120.588 125.981 C120.606 129.589 120.604 133.196 120.597 136.803 C120.606 137.869 120.616 138.936 120.625 140.034 C120.571 149.708 120.571 149.708 117.241 154.161 C112.669 156.991 108.801 157.594 103.536 157.549 C102.78 157.554 102.024 157.56 101.244 157.565 C98.72 157.579 96.197 157.572 93.672 157.565 C91.859 157.571 90.045 157.578 88.231 157.586 C83.312 157.604 78.392 157.603 73.473 157.597 C69.365 157.594 65.257 157.6 61.149 157.606 C51.458 157.62 41.768 157.619 32.077 157.607 C22.081 157.596 12.085 157.61 2.088 157.637 C-6.497 157.659 -15.082 157.665 -23.668 157.659 C-28.794 157.656 -33.921 157.659 -39.047 157.676 C-43.867 157.691 -48.686 157.687 -53.506 157.668 C-55.274 157.665 -57.042 157.668 -58.81 157.678 C-61.226 157.692 -63.64 157.68 -66.055 157.662 C-66.753 157.672 -67.451 157.682 -68.171 157.691 C-73.127 157.617 -76.02 156.388 -79.759 153.161 C-81.628 149.807 -82.011 146.981 -82.02 143.179 C-82.027 142.2 -82.034 141.222 -82.041 140.214 C-82.039 139.152 -82.036 138.09 -82.034 136.996 C-82.039 135.869 -82.044 134.741 -82.049 133.58 C-82.063 129.852 -82.062 126.124 -82.06 122.396 C-82.064 119.801 -82.068 117.207 -82.073 114.612 C-82.081 109.172 -82.08 103.731 -82.075 98.291 C-82.069 92.019 -82.081 85.747 -82.103 79.476 C-82.122 73.426 -82.125 67.376 -82.122 61.326 C-82.122 58.76 -82.128 56.194 -82.138 53.628 C-82.15 50.033 -82.143 46.439 -82.132 42.844 C-82.139 41.79 -82.147 40.736 -82.155 39.65 C-82.102 32.172 -81.34 25.405 -76.572 19.411 C-67.209 11.921 -59.999 10.999 -48.232 11.063 C-47.737 11.064 -47.737 11.064 -45.235 11.068 C-42.097 11.073 -38.96 11.086 -35.822 11.099 C-33.686 11.104 -31.55 11.108 -29.414 11.112 C-24.195 11.123 -18.977 11.14 -13.759 11.161 C-13.701 10.69 -13.701 10.69 -13.408 8.306 C-12.759 5.161 -12.759 5.161 -10.384 2.849 C-6.8 0.545 -4.169 0.034 0 0 Z " fill="#000000" transform="translate(250.75927734375,123.8388671875)"/>
<path d="M0 0 C4.425 2.212 7.195 4.948 10 9 C11.66 13.981 11.599 18.303 9.875 23.188 C6.79 27.815 3.452 30.78 -1.812 32.5 C-6.698 33.462 -10.682 32.374 -15 30 C-19.268 26.768 -21.295 23.35 -22.125 18.062 C-22.322 12.883 -21.264 9.055 -18 5 C-12.751 0.041 -7.059 -1.279 0 0 Z " fill="#000000" transform="translate(191,372)"/>
<path d="M0 0 C4.389 2.96 7.422 6.635 8.688 11.812 C8.929 17.069 8.444 21.489 5.188 25.75 C1.596 29.367 -2.268 31.156 -7.312 31.812 C-12.143 31.616 -15.373 30.548 -19.188 27.562 C-22.856 22.815 -24.924 19.005 -24.664 12.832 C-23.832 8.051 -21.286 4.714 -17.75 1.438 C-12.286 -2.205 -6.052 -2.17 0 0 Z " fill="#000000" transform="translate(362.3125,373.1875)"/>
</svg>
